<svg width="174" height="168" viewBox="0 0 174 168" fill="none" xmlns="http://www.w3.org/2000/svg">
<path d="M125.825 19.0593L128.55 20.2447C129.004 21.1375 134.175 24.2376 135.344 25.3863C138.901 28.8826 142.496 32.4346 145.938 36.0467C148.174 38.3937 150.162 41.0032 152.195 43.5191C154.952 46.9348 157.706 50.3637 160.309 53.8992C160.936 54.7524 161.26 56.3637 161.855 57.2376C163.382 59.479 164.8 61.7828 166.254 64.0659C167.623 66.2153 169.686 68.0813 171.195 70.1487C172.125 71.3736 172.448 72.7962 173.193 73.9688L170.905 79.2268C170.879 79.2442 170.855 79.2621 170.829 79.2794C169.069 80.9845 167.619 83.7143 166.09 85.636C162.483 90.1689 158.676 93.809 154.404 97.6705C152.2 99.6633 149.843 102.34 147.193 103.861C146.365 104.339 144.859 104.391 143.938 104.253C143.458 104.18 142.495 103.971 142.087 103.636C139.592 101.591 137.519 98.4947 135.166 96.186C134.963 95.9859 133.883 94.7152 133.864 94.7111C133.345 94.6037 133.171 94.9272 132.664 94.134C131.497 92.3078 130.994 91.9854 129.26 90.6868C128.709 95.871 126.858 101.15 125.477 106.158C125.07 108.039 125.05 110.023 124.642 111.901C124.258 113.674 123.434 115.361 122.99 117.117C122.772 117.984 122.965 119.249 122.715 120.071C119.906 129.289 117.233 138.576 114.206 147.723C113.978 148.412 113.354 149.113 113.084 149.807C111.749 154.313 109.234 158.473 107.906 162.939C106.701 167.539 104.172 168.091 99.9159 167.567C98.4569 167.387 96.2991 166.918 94.8889 166.769C90.9371 166.356 88.5946 165.159 85.2634 163.149C84.0593 162.423 81.6477 161.957 80.2802 161.379C76.521 159.872 74.7543 159.041 70.7447 158.483C64.8764 153.256 55.0525 153.062 47.6942 150.818C45.6865 150.206 42.2062 150.719 40.0199 149.573C33.709 147.25 26.9244 146.576 20.4021 145.089C17.8812 144.515 9.63232 139.736 7.72922 140.236L7.39325 140.09C6.88766 138.578 -0.702891 136.897 0.0526248 132.458C0.956851 127.145 3.80137 122.806 5.66257 117.827C6.76214 114.885 7.26679 112.099 9.15491 109.451C11.2487 106.85 11.6841 101.833 13.1342 99.2993C17.1429 92.2963 19.915 84.9235 23.1863 77.5616C24.1284 75.4414 24.0127 74.4105 24.3618 72.3139C24.6237 70.7414 25.7992 72.5948 25.0052 69.3288C25.3102 68.4178 25.9258 67.4884 26.1305 66.8887C26.4575 65.9303 27.5312 62.3165 27.1804 61.5094C26.3802 61.2153 24.4661 62.3237 23.5798 62.6C20.5503 63.544 17.5579 64.5816 14.3867 64.9472C12.7797 65.1323 10.4897 65.7736 9.02806 64.7655C7.8425 63.9478 7.42219 61.6328 6.87195 60.3819C3.51901 52.7683 2.37494 44.556 1.57175 36.3519C1.00788 30.8291 0.318494 26.094 2.04107 20.7069C2.21933 20.1494 2.38035 19.7873 2.20451 19.1987L2.68284 18.0991C4.51004 16.8247 5.73094 16.9232 7.64362 16.1287C8.83329 15.6345 10.2582 14.8613 11.4779 14.3141C22.7076 9.38983 34.347 5.4538 46.2638 2.55055C48.5572 1.99905 52.2492 1.00153 54.418 0.717403C57.6248 0.297347 61.216 0.871884 64.6609 0.445554C66.348 0.236762 73.5582 -0.459871 74.6508 0.476198C77.0142 2.5008 80.2997 6.62836 82.4931 9.0265C83.8728 10.5352 85.4019 11.0087 86.9478 12.1252C88.2011 13.024 89.3716 14.1845 90.6277 15.0648C95.3417 18.3685 100.98 20.9704 106.785 21.3864C108.506 21.5097 110.536 22.0554 112.242 22.0414C116.867 22.0036 121.619 20.9629 125.825 19.0593Z" fill="#FDC31C"/>
</svg>
