<svg width="297" height="263" viewBox="0 0 297 263" fill="none" xmlns="http://www.w3.org/2000/svg">
<g clip-path="url(#clip0_100_45)">
<path d="M150.39 0.606471C152.645 0.414402 157.451 1.55672 159.584 2.54173C168.954 6.86949 172.441 10.3374 173.046 20.7518C173.129 22.1881 172.267 23.4421 172.675 24.4746C173.657 25.0311 175.297 25.4622 176.318 25.9625C179.459 27.503 184.05 29.3901 186.703 31.4868C189.478 33.7057 192.047 36.499 194.856 38.6443C198.206 41.077 202.482 42.3386 205.43 45.3761C212.592 52.7527 217.656 61.7536 220.663 71.5498C221.529 74.8621 221.87 78.4247 222.775 81.7155C224.054 86.3715 225.803 90.7083 226.358 95.5525C227.379 104.468 227.471 113.478 228.509 122.369C228.934 125.276 230.802 128.18 231.417 130.989C232.659 136.676 233.583 142.489 234.909 148.168C235.754 151.782 234.864 155.921 235.906 159.446C237.142 163.619 240.044 167.12 242.171 170.837C247.723 181.773 253.465 192.601 258.715 203.675C260.918 208.321 261.018 212.304 258.899 216.966C257.649 219.57 255.987 223.296 253.944 225.34C250.083 229.198 243.252 233.867 238.298 236.068C234.213 237.882 229.459 239.576 225.256 240.534C223.684 240.894 215.174 242.009 214.181 241.59C214.951 240.637 214.934 240.701 214.72 239.514C214.557 238.384 214.472 237.068 214.515 235.932C214.696 230.984 212.271 226.434 210.178 222.105C209.604 220.919 207.836 217.97 207.965 216.802C209.638 215.576 230.161 221.368 232 218.594C231.398 217.212 222.102 211.504 220.282 210.768C216.529 209.248 211.897 208.138 207.929 207.032C206.446 206.773 202.192 205.159 200.92 205.333C196.194 205.979 195.212 209.142 190.596 204.513C190.373 204.666 190.145 204.826 189.899 204.939C188.489 205.592 178.209 203.055 176.45 202.43C175.284 203.175 174.582 203.74 173.18 204.036C170.069 204.691 165.505 202.877 162.914 201.248C161.056 201.684 157.029 203.329 155.528 203.065C154.807 202.552 154.63 201.626 154.365 200.773C151.174 202.868 150.223 201.807 147.195 200.1C144.462 203.427 144.213 202.455 140.221 202.122C137.79 201.92 135.238 201.671 132.784 201.465C130.4 201.264 127.485 202.11 125.033 201.99C123.629 201.946 122.432 202.012 120.982 201.864C120.214 201.784 118.364 201.519 117.686 201.533C115.671 201.577 113.346 203.03 111.198 202.959C110.11 202.924 108.263 202.593 107.195 202.243C106.803 202.114 106.585 201.615 106.096 201.567C105.872 202.025 105.884 202.03 105.539 202.393C103.309 203.3 101.122 200.378 100.041 201.015L99.8628 201.785C99.1579 202.368 97.6613 201.387 96.7717 201.461C94.2046 201.675 91.7948 202.703 89.2088 202.907C87.0042 203.169 84.6598 202.895 82.4658 203.104C79.3266 203.403 75.9388 203.485 72.8346 203.871C70.405 204.172 67.5981 205.207 65.2111 205.833C62.8434 206.454 60.3898 207.673 58.226 208.802C56.8809 209.577 53.7702 210.765 52.9217 211.549C52.9642 212.169 53.9844 212.971 54.4612 213.405C56.113 213.376 57.7926 212.846 59.4733 212.942C61.1965 213.039 62.8698 213.391 64.4783 214.012C65.9822 212.588 66.6375 211.913 68.4839 210.912C68.7848 211.668 69.4183 212.823 69.8018 213.595C71.4078 212.646 72.9295 211.649 74.6925 211.046C75.5777 211.417 76.0708 211.733 76.8001 212.334C77.1638 211.755 77.4851 211.09 77.8004 210.478C80.7621 210.78 82.6746 211.736 85.3636 212.143C86.3818 212.298 89.797 211.678 91.3281 211.61C92.0439 211.033 92.6242 210.588 93.3794 210.067C97.2773 209.761 100.843 211.674 104.634 212.027C104.954 211.569 105.365 210.423 105.588 209.858C107.339 210.158 110.009 211.081 111.599 211.798C112.824 208.737 114.946 209.946 116.684 211.749C116.806 211.7 116.928 211.652 117.051 211.603C118.672 210.956 120.622 211.217 122.355 211.064C124.089 210.977 125.859 210.67 127.592 210.622C132.026 210.5 136.462 210.845 140.875 210.294C141.816 210.177 146.637 210.23 146.345 211.824C145.951 213.992 144.562 216.661 142.902 218.154C142.315 218.671 141.205 219.093 140.505 219.662C141.608 221.156 139.399 221.41 138.725 222.54C138.055 223.664 137.547 225.021 137.118 226.258C136.361 228.442 135.179 230.753 135.674 233.114C135.999 234.909 136.295 236.716 136.608 238.504C135.333 240.05 134.987 240.398 135.983 242.282C136.464 243.193 137.683 245.47 137.056 246.409C135.83 248.243 133.529 246.955 132.158 246.048C131.981 246.152 131.565 246.404 131.329 246.51C129.417 247.374 126.661 247.471 124.571 247.668C123.928 247.729 124.075 246.795 123.494 246.778C122.871 246.759 122.161 246.733 121.57 246.74C119.98 246.759 118.585 246.642 117.021 246.49C115.162 246.31 112.616 244.98 111.037 244.78C107.547 244.338 103.693 245.013 100.315 243.863C99.7932 244.355 99.4879 244.652 98.8893 245.071C97.6855 244.819 97.4584 242.716 96.376 242.425C95.9782 242.609 95.5383 242.863 95.0885 242.798C91.6624 242.298 88.2755 241.586 84.8952 240.844C83.1747 240.466 79.8379 239.502 78.2025 239.526C78.0132 239.529 77.9068 239.595 77.7523 239.686C77.677 239.731 77.6075 239.786 77.5275 239.821C77.2296 239.95 74.8851 238.048 73.5961 237.927C71.3723 237.719 69.1538 238.613 66.9917 238.401C64.8896 238.197 63.085 236.326 60.9905 235.865C60.1676 235.684 57.3938 235.842 56.9214 235.547C56.2535 235.129 56.1488 234.006 56.0043 233.301C55.871 233.328 55.0204 233.498 54.9598 233.485C52.9744 233.102 50.6345 231.11 48.8119 230.487C41.6318 228.033 38.011 228.351 32.2093 222.921C24.2083 215.434 24.4309 208.923 28.0575 199.197C29.3575 195.711 30.4792 192.009 32.5471 188.788C37.3326 181.832 42.7527 175.541 47.5209 168.519C51.3384 162.896 53.1893 157.968 55.9454 151.853C57.0303 149.446 59.9367 146.863 61.0707 144.075C62.3634 140.898 62.0846 139.204 62.2526 135.981C62.3318 134.614 62.4833 133.251 62.7065 131.9C63.3955 127.51 64.7022 122.537 65.5026 118.091C65.9477 115.565 67.1932 113.033 67.715 110.564C68.8009 105.295 70.9192 100.485 72.4289 95.3705C72.6776 94.5277 71.9815 92.4976 71.9244 91.3053C72.3448 90.5356 73.2039 89.6116 73.7992 88.9209C73.5202 87.2392 73.2952 86.6361 72.0618 85.4804C73.0291 82.8754 74.3479 80.9124 76.001 78.6706C76.3171 78.2418 77.1839 78.0436 77.3848 77.6824L77.0756 77.4079C76.93 76.8066 80.6661 69.6815 81.1077 68.4259C81.6523 66.8778 82.0941 64.7774 82.7531 63.305C83.458 61.7298 84.7017 59.964 85.5659 58.4325C88.0054 54.4267 90.8964 50.0881 94.0614 46.634C95.5012 45.2443 97.187 43.8446 98.6074 42.4652C103.433 37.7774 108.602 34.3029 115.052 32.2407C116.542 31.7646 116.887 29.3967 118.24 28.893C118.761 28.9587 118.922 29.163 119.354 29.5053C121.828 24.9924 124.127 27.8235 127.885 25.9453C128.984 25.3959 129.716 24.5241 130.545 23.6354C130.156 19.7753 131.12 12.0684 133.237 8.76533C134.099 7.41988 135.042 6.49895 136.191 5.43477C140.556 1.39001 145.205 1.76166 150.39 0.606471ZM143.405 20.0244C146.432 20.5192 146.851 21.362 150.446 21.2671C152.649 21.2194 154.671 20.6521 156.64 20.6472L156.866 20.6454C156.911 20.6461 156.958 20.6469 157.003 20.6476C157.268 20.0933 157.619 19.4094 157.839 18.8498C156.824 17.0353 154.916 13.492 153.703 11.9751C153.11 12.001 151.892 12.016 151.35 12.0831C146.383 12.6037 144.784 15.6806 143.405 20.0244Z" fill="#FDC31C"/>
<path d="M47.5505 62.7748C49.3382 62.6214 53.1971 62.3568 51.7656 65.6766C51.1523 67.099 49.3627 69.0284 48.3796 70.3179C45.6473 73.9021 42.4525 77.2776 40.4121 81.3359C35.3635 91.1629 31.9528 100.626 32.8402 111.838C33.2137 116.557 34.0944 118.484 33.9207 123.522C32.7415 124.93 31.7257 125.682 30.0039 126.298C28.6388 125.856 28.2091 125.475 27.1322 124.557C25.2971 122.495 24.7484 120.597 23.5138 118.224C22.3351 115.958 20.3184 112.824 19.8838 110.292C19.4035 107.495 21.5276 103.264 22.359 100.416C23.4014 96.846 23.5124 93.611 24.2672 90.1277C25.5758 84.0891 29.7415 78.0388 33.1408 72.9975C36.0651 68.6604 38.2186 65.936 43.2465 64.1601C44.8523 63.5928 45.7201 63.1152 47.5505 62.7748Z" fill="#FDC31C"/>
<path d="M251.825 94.9221C255.295 94.7842 258.939 98.5212 261.105 100.917C265.129 105.371 268.798 109.809 271.237 115.359C272.027 117.158 273.256 119.071 273.923 120.923C276.097 126.951 277.418 133.233 276.736 139.669C276.269 143.418 274.184 150.088 271.617 152.765C270.208 153.872 269.059 154.056 267.327 154.427C266.697 154.122 265.542 153.646 265.448 152.908C264.766 147.547 266.101 141.642 266.36 136.324C266.456 134.361 265.964 129.832 265.725 127.826C265.055 122.212 261.385 113.572 257.866 109.134C255.086 106.02 251.414 102.799 249.639 98.9801C248.581 96.7036 249.938 95.6201 251.825 94.9221Z" fill="#FDC31C"/>
<path d="M170.004 263C169.205 262.451 165.494 261.903 164.183 261.483C157.796 259.432 149.321 253.484 147.65 246.516C143.917 230.953 151.097 213.837 167.607 209.665C169.158 209.273 171.848 208.609 173.397 209.129C175.427 210.323 174.066 214.424 177.134 214.472L177.696 214.479C178.537 212.552 178.864 211.477 179.215 209.404C180.463 209.425 181.672 209.48 182.9 209.709C186.93 210.464 193.73 212.895 196.551 215.801C199.83 219.175 201.994 225.85 204.005 230.158L205.358 231.092C204.71 232.592 204.708 235.373 204.31 237.2C201.94 248.031 198.021 255.717 187.174 260.361C185.963 260.867 184.72 261.293 183.454 261.641C182.412 261.926 178.827 262.606 178.247 263H170.004Z" fill="#FDC31C"/>
<path d="M297 128.034C297.006 128.026 295.416 132.43 295.168 133.072C293.438 137.556 289.878 141.847 284.727 138.986C283.707 138.419 283.877 134.973 283.88 133.736L283.91 125.167C283.915 123.862 283.998 120.601 283.752 119.512C283.33 117.639 282.35 114.786 281.673 112.919C280.688 110.197 279.041 107.5 278.124 104.753C277.83 103.819 277.506 102.554 278.043 101.661C278.743 100.495 281.554 98.6708 282.936 98.9847C284.186 99.3527 285.529 99.7054 286.547 100.537C289.824 103.214 291.262 107.471 292.999 111.196C294.01 113.368 294.96 115.528 295.833 117.759C296.266 118.868 296.503 121.166 297 121.899V128.034Z" fill="#FDC31C"/>
<path d="M0 85.9293C0.0422845 85.868 0.086283 85.8078 0.126853 85.7454C0.769342 84.7566 0.831472 82.545 1.28456 81.3071C3.34576 75.6756 9.23503 63.8664 15.3513 62.2707C16.1932 62.051 17.178 61.9253 17.9402 62.4331C18.6597 62.9128 18.9936 63.8629 19.1224 64.678C19.9486 69.9107 11.3986 82.3862 11.0184 89.2777C10.8846 91.7012 10.6658 94.1144 10.5275 96.5333C10.4506 97.8779 10.5797 99.2933 10.3396 100.617C10.2004 101.384 9.89487 102.124 9.4098 102.738C8.75497 103.566 7.4776 104.248 6.43714 104.352C5.04565 104.493 3.74436 103.813 2.72222 102.923C1.80986 102.13 0.92508 101.016 0.605918 99.8377C0.425065 99.1698 0.431088 98.4912 0 97.9213V85.9293Z" fill="#FDC31C"/>
</g>
<defs>
<clipPath id="clip0_100_45">
<rect width="297" height="263" fill="white"/>
</clipPath>
</defs>
</svg>
