<svg width="101" height="90" viewBox="0 0 101 90" fill="none" xmlns="http://www.w3.org/2000/svg">
<path d="M74.4322 5H77.684C77.6901 5.20802 77.6559 5.26852 77.7636 5.411C78.4184 5.42496 79.0733 5.37365 79.7233 5.52509C80.4693 5.69882 81.1694 6.25604 81.8591 6.54194C82.9259 6.9837 84.159 7.34529 85.2705 7.67255C85.4643 7.72973 85.8906 7.75943 86.106 7.79928C86.3086 8.98198 87.1026 9.42546 87.99 10.1163C88.5212 10.5299 89.1883 10.8344 89.7255 11.248C90.5389 11.8666 91.5604 12.897 92.2352 13.6691C92.3092 14.124 92.3075 14.4108 92.2998 14.8667C92.6195 14.8635 92.9575 14.8543 93.2761 14.8592C93.3214 16.2871 93.646 17.6787 94.3236 18.9321C95.116 20.3981 95.1574 20.7894 95.1629 22.4528C95.4324 22.4519 95.7338 22.4442 96 22.4538V25.3875C95.8945 25.4224 95.7559 25.4391 95.7305 25.5409C95.5168 26.4465 95.0729 27.5007 95.1833 28.4363C95.2325 28.8519 95.4936 29.3489 95.556 29.793C95.5903 30.0397 95.5676 30.8973 95.667 31.0315C95.8178 31.0576 95.847 31.0607 96 31.0612V34.3064C95.7703 34.3661 95.7918 34.3202 95.6792 34.47C95.5958 35.3061 95.3181 35.9406 95.1899 36.7357C95.0784 37.4232 95.2225 38.2174 95.0193 38.9189C94.7057 40.0016 94.2302 41.0837 93.921 42.1617C93.7029 42.9216 93.8156 43.6089 93.5389 44.4414C93.3357 45.0531 93.0524 45.62 92.8575 46.1953C92.1452 48.2981 91.0778 50.2606 90.08 52.2384C89.8365 52.7207 89.1314 53.613 88.8155 54.0989C88.3412 54.8286 87.842 55.7611 87.3423 56.4451C86.4643 57.6456 85.572 58.8442 84.604 59.9721C84.271 60.3601 83.9149 60.9242 83.5803 61.3421C83.1993 61.8178 82.7796 62.2418 82.4074 62.7109C82.0507 63.1593 81.7746 63.6819 81.3815 64.1259C80.6647 64.9343 79.673 65.7214 79.0325 66.5733C78.684 67.0368 78.4069 67.9978 78.1567 68.5376C77.9403 69.0056 77.6531 69.4228 77.4201 69.888C77.25 70.2284 77.1771 70.5905 77.0341 70.9047L76.9822 70.9465C76.3864 71.4212 75.7061 71.7064 75.1136 72.1443C72.3853 74.1582 69.9435 76.434 67.6763 78.9627C67.2997 79.4061 66.9833 79.9487 66.6094 80.3866C65.229 82.0039 63.5719 83.4858 61.7364 84.5476C61.3582 84.7666 60.9131 84.4579 60.7049 85H58.0266C58.0191 84.9387 57.9805 84.7198 57.9173 84.7058C56.9639 84.4947 56.1618 84.5872 55.2004 84.2423C52.9629 83.4401 50.7356 82.5838 48.5669 81.6072C47.8353 81.278 46.9883 81.0758 46.2567 80.722C45.071 80.1632 43.5088 79.7298 42.3699 79.1326C40.5415 78.127 39.077 77.3187 37.0069 76.9409C36.3774 76.8256 33.9889 75.1861 33.4268 74.6752C32.557 73.6435 31.1981 72.9298 30.2806 72.0306C29.1305 70.9036 28.0475 70.0797 26.7505 69.122C25.8827 68.4819 24.9262 68.0022 24.079 67.3783C22.662 66.3348 21.2659 65.2524 19.8633 64.1894C17.3462 62.1231 15.2061 59.5178 12.8225 57.29C11.6667 56.2098 11.1841 55.5352 10.3616 54.2289C9.55638 52.95 8.81436 51.9619 8.23296 50.5125C7.93162 49.7613 7.28172 48.9229 7.00064 48.1293C6.60928 47.4016 6.42437 46.5102 6.09103 45.7748C5.34136 44.1208 5.41681 42.8699 5.41771 41.087L5.42214 37.3828C5.42301 36.8433 5.45341 35.9022 5.38273 35.4001C5.25978 35.2835 5.20621 35.3201 5 35.3105V33.8451C5.10943 33.8503 5.26122 33.8756 5.35785 33.814C5.534 33.7016 5.35034 30.208 5.45831 29.652C5.82631 27.7571 8.94432 23.9765 10.5463 22.8946C10.7423 22.8855 11.296 22.8831 11.4278 22.7764C11.3094 22.6422 11.029 22.3369 11.0153 22.1705C10.9528 21.4084 11.2567 20.792 11.613 20.1973C13.2985 19.89 13.5834 19.6005 14.7681 18.5074C15.2137 18.0962 16.7317 17.6148 17.3846 17.293C18.4346 16.7753 19.8434 16.4468 20.9549 16.0461C21.2318 15.9497 21.9961 15.8983 22.3202 15.8013C22.5987 15.7179 22.844 15.4311 23.1207 15.3808C23.4039 15.2798 24.505 15.3905 24.6979 15.2899C25.6682 14.7837 26.3438 14.8916 27.444 14.8919L30.2868 14.8954C31.687 14.8977 33.0876 14.8674 34.4855 14.9245C35.1348 14.951 35.0162 15.1971 35.2692 15.2628C35.9769 15.4464 36.5706 15.0912 37.1049 15.7949C39.0792 15.8523 40.5844 17.0982 42.3723 17.7745C43.6002 18.239 44.8891 18.4635 46.0955 18.974C46.8338 19.2864 47.7644 20.7444 48.5793 20.5653C49.5406 20.354 49.8719 18.5916 50.2075 17.8021C50.4763 17.1611 50.7528 16.4019 51.1721 15.8455C51.4633 15.4935 51.7295 15.1084 52.0158 14.755C52.2948 14.4105 52.5992 13.8686 52.9055 13.5659C54.1999 12.2911 55.446 10.9628 56.7445 9.69382C57.1025 9.34398 57.6939 9.02519 58.1196 8.74784C59.7466 7.68783 61.7618 7.02975 63.6735 6.77793C63.9081 6.74704 64.1699 6.51574 64.4134 6.47469C65.1909 6.37404 65.9832 6.45562 66.7585 6.30972C66.7856 6.27253 66.9899 6.0094 67.018 5.99501C67.4775 5.76116 69.0656 5.93373 69.435 5.85227C70.2605 5.67029 70.0678 5.5173 70.9899 5.44439C71.6531 5.39193 73.9877 5.51444 74.3892 5.37638C74.4797 5.22245 74.4433 5.21772 74.4322 5Z" fill="#0F52A1"/>
</svg>
