<svg width="348" height="57" viewBox="0 0 348 57" fill="none" xmlns="http://www.w3.org/2000/svg">
<path d="M8.24512 1.20545L8.15647 2.20151L8.24512 1.20545ZM19.2451 1.09924L19.1483 2.09455L19.2451 1.09924ZM27.4951 1.20091L27.4227 0.20353L27.4951 1.20091ZM35.7451 1.46245L35.623 0.469934L35.7451 1.46245ZM43.9951 1.13998L43.9503 2.13898L43.9951 1.13998ZM52.2451 1.18446L52.1987 2.18338L52.2451 1.18446ZM64.6201 1.62718L64.453 2.61311L64.6201 1.62718ZM71.4951 1.55757L71.3663 0.565898L71.4951 1.55757ZM75.6201 1.72453L75.7448 0.732334L75.6201 1.72453ZM76.9951 1.89732L76.8704 2.88952L76.9951 1.89732ZM92.1201 1.63786L92.0336 0.641612L92.1201 1.63786ZM93.4951 1.5184L93.4086 0.522154L93.4951 1.5184ZM98.9951 1.82246L98.893 2.81723L98.9951 1.82246ZM109.995 1.33251L109.892 0.337822L109.995 1.33251ZM115.495 1.67128L115.379 2.66454L115.495 1.67128ZM120.995 1.47178L120.908 0.47556L120.995 1.47178ZM125.12 1.68715L124.999 2.67979L125.12 1.68715ZM126.495 1.85481L126.374 2.84746L126.495 1.85481ZM134.745 1.74148L134.681 0.743533L134.745 1.74148ZM140.245 1.54667L140.194 2.54537L140.245 1.54667ZM145.745 1.56833L145.609 0.577634L145.745 1.56833ZM148.495 1.19058L148.631 2.18128L148.495 1.19058ZM151.245 1.06603L151.198 2.06494L151.245 1.06603ZM156.745 1.23313L156.726 0.233303L156.745 1.23313ZM162.245 1.1091L162.211 0.109667L162.245 1.1091ZM167.745 1.21764L167.568 2.2018L167.745 1.21764ZM170.495 1.71293L170.672 0.728761L170.495 1.71293ZM178.745 1.23755L178.686 2.23583L178.745 1.23755ZM181.495 1.39902L181.554 0.400742L181.495 1.39902ZM184.245 1.35101L184.152 0.35537L184.245 1.35101ZM186.995 1.09352L187.088 2.08917L186.995 1.09352ZM189.745 1.04043L189.69 2.03892L189.745 1.04043ZM195.245 1.22213L195.212 0.222675L195.245 1.22213ZM200.745 1.26017L200.62 2.25228L200.745 1.26017ZM202.12 1.43395L201.995 2.42606L202.12 1.43395ZM203.495 1.60774L203.62 0.615628L203.495 1.60774ZM206.245 1.56904L206.092 0.580769L206.245 1.56904ZM208.995 1.14408L209.148 2.13235L208.995 1.14408ZM211.745 1.0337L211.671 2.03095L211.745 1.0337ZM217.245 1.30061L217.216 0.301015L217.245 1.30061ZM222.745 1.2077L222.727 2.20753L222.745 1.2077ZM228.245 1.42739L228.141 2.42195L228.245 1.42739ZM230.995 1.71534L231.099 0.720775L230.995 1.71534ZM233.745 1.83624L233.728 0.836385L233.745 1.83624ZM239.245 1.7231L239.213 0.723611L239.245 1.7231ZM244.745 1.68946L244.674 2.68692L244.745 1.68946ZM250.245 1.80415L250.115 0.812598L250.245 1.80415ZM252.995 1.44443L253.125 2.43598L252.995 1.44443ZM255.745 1.22048L255.713 0.220992L255.745 1.22048ZM258.495 1.13229L258.463 0.132805L258.495 1.13229ZM261.245 1.06919L261.231 0.069288L261.245 1.06919ZM272.245 1.08392L272.299 0.085356L272.245 1.08392ZM274.995 1.23155L274.941 2.23011L274.995 1.23155ZM280.495 1.40165L280.472 2.40138L280.495 1.40165ZM283.245 1.55054L283.33 0.554123L283.245 1.55054ZM285.995 1.7841L285.91 2.78052L285.995 1.7841ZM288.745 1.735L288.865 2.72781L288.745 1.735ZM291.495 1.40324L291.375 0.410434L291.495 1.40324ZM294.245 1.366L294.338 0.37035L294.245 1.366ZM296.995 1.6233L296.902 2.61895L296.995 1.6233ZM302.495 1.86065L302.469 2.8603L302.495 1.86065ZM307.995 1.87077L307.989 0.870789L307.995 1.87077ZM310.745 1.78142L310.804 2.77971L310.745 1.78142ZM313.495 1.62014L313.437 0.621858L313.495 1.62014ZM318.995 1.39443L318.96 0.395046L318.995 1.39443ZM324.495 1.49257L324.46 2.49194L324.495 1.49257ZM327.245 1.40555L327.343 2.4007L327.245 1.40555ZM329.995 1.13384L329.897 0.138686L329.995 1.13384ZM335.495 1.00613L335.493 2.00613L335.495 1.00613ZM338.245 1.25862L338.424 0.274719L338.245 1.25862ZM340.995 1.75816L340.816 2.74206L340.995 1.75816ZM343.522 2.21496L343.345 3.19919L343.522 2.21496ZM344.674 2.42198L344.851 1.43775L344.674 2.42198ZM345.826 2.62901L345.65 3.61324L345.826 2.62901ZM346.881 4.21103L347.879 4.28164L346.881 4.21103ZM346.687 6.96103L345.689 6.89042L346.687 6.96103ZM346.532 9.71103L347.531 9.75295L346.532 9.71103ZM346.416 12.461L345.417 12.4191L346.416 12.461ZM346.328 15.211L345.329 15.1891L346.328 15.211ZM346.268 17.961L347.268 17.983L346.268 17.961ZM346.366 20.711L347.362 20.6179L346.366 20.711ZM346.623 23.461L345.628 23.5541L346.623 23.461ZM346.63 26.211L347.626 26.2994L346.63 26.211ZM346.386 28.961L345.39 28.8726L346.386 28.961ZM346.201 31.711L347.2 31.7569L346.201 31.711ZM346.138 33.086L347.137 33.1319L346.138 33.086ZM346.074 34.461L345.076 34.4152L346.074 34.461ZM346.108 37.211L345.111 37.2814L346.108 37.211ZM346.302 39.961L347.3 39.8907L346.302 39.961ZM346.496 42.711L347.493 42.6409L346.496 42.711ZM346.689 45.461L347.687 45.3909L346.689 45.461ZM346.616 48.211L345.623 48.0882L346.616 48.211ZM346.275 50.961L347.268 51.0838L346.275 50.961ZM345.387 52.944L344.741 52.1805L345.387 52.944ZM344.668 53.5519L344.022 52.7885L344.668 53.5519ZM343.95 54.1598L344.596 54.9232L343.95 54.1598ZM341.856 54.5693L341.999 53.5796L341.856 54.5693ZM340.481 54.3709L340.624 53.3811L340.481 54.3709ZM339.106 54.1724L338.963 55.1622L339.106 54.1724ZM336.356 54.0955L336.268 53.0993L336.356 54.0955ZM334.981 54.2169L335.069 55.2131L334.981 54.2169ZM333.606 54.3384L333.518 53.3423L333.606 54.3384ZM330.856 54.4719L330.848 53.472L330.856 54.4719ZM328.106 54.4959L328.098 53.496L328.106 54.4959ZM325.356 54.63L325.268 53.6339L325.356 54.63ZM322.606 54.874L322.695 55.87L322.606 54.874ZM319.856 54.8361L319.972 53.8428L319.856 54.8361ZM317.106 54.5164L316.991 55.5097L317.106 54.5164ZM314.356 54.5278L314.233 53.5355L314.356 54.5278ZM311.606 54.8705L311.73 55.8628L311.606 54.8705ZM308.856 54.8894L308.966 53.8955L308.856 54.8894ZM306.106 54.5845L305.996 55.5785L306.106 54.5845ZM303.356 54.4576L303.375 55.4574L303.356 54.4576ZM300.606 54.5086L300.588 53.5088L300.606 54.5086ZM297.856 54.4373L297.926 53.4398L297.856 54.4373ZM296.481 54.3405L296.551 53.343L296.481 54.3405ZM295.106 54.2437L295.036 55.2413L295.106 54.2437ZM292.356 54.2995L292.246 53.3056L292.356 54.2995ZM289.606 54.6046L289.717 55.5985L289.606 54.6046ZM286.856 54.5472L286.705 55.5358L286.856 54.5472ZM275.856 54.5472L275.85 55.5472L275.856 54.5472ZM273.106 54.5288L273.1 55.5288L273.106 54.5288ZM270.356 54.5897L270.407 55.5884L270.356 54.5897ZM267.606 54.7299L267.555 53.7312L267.606 54.7299ZM264.856 54.6165L264.724 55.6077L264.856 54.6165ZM263.481 54.4329L263.614 53.4417L263.481 54.4329ZM262.106 54.2494L262.239 53.2582L262.106 54.2494ZM259.356 54.1037L259.329 53.1041L259.356 54.1037ZM256.606 54.1793L256.634 55.1789L256.606 54.1793ZM253.856 54.3406L253.946 55.3366L253.856 54.3406ZM251.106 54.5875L251.017 53.5915L251.106 54.5875ZM245.606 54.8998L245.561 53.9009L245.606 54.8998ZM242.856 54.8799L242.916 53.8817L242.856 54.8799ZM240.106 54.7142L240.046 55.7124L240.106 54.7142ZM237.356 54.7294L237.285 53.7319L237.356 54.7294ZM234.606 54.9255L234.677 55.923L234.606 54.9255ZM231.856 54.9882L231.831 55.9879L231.856 54.9882ZM229.106 54.9175L229.132 53.9178L229.106 54.9175ZM226.356 54.7871L226.425 53.7895L226.356 54.7871ZM223.606 54.597L223.675 53.5994L223.606 54.597ZM220.856 54.5821L220.798 53.5838L220.856 54.5821ZM218.106 54.7423L218.048 53.744L218.106 54.7423ZM215.356 54.6737L215.249 55.6679L215.356 54.6737ZM212.606 54.3761L212.714 53.3819L212.606 54.3761ZM209.856 54.3562L209.95 55.3518L209.856 54.3562ZM207.106 54.6139L207.013 53.6183L207.106 54.6139ZM204.356 54.7308L204.365 53.7309L204.356 54.7308ZM202.981 54.7189L202.973 55.7188L202.981 54.7189ZM201.606 54.7069L201.615 53.707L201.606 54.7069ZM198.856 54.5294L198.737 55.5223L198.856 54.5294ZM196.106 54.1984L196.226 53.2056L196.106 54.1984ZM190.606 54.1131L190.587 53.1133L190.606 54.1131ZM187.856 54.2162L187.912 55.2147L187.856 54.2162ZM186.481 54.2927L186.426 53.2942L186.481 54.2927ZM185.106 54.3691L185.162 55.3675L185.106 54.3691ZM182.356 54.5724L182.448 55.5681L182.356 54.5724ZM179.606 54.8262L179.698 55.8219L179.606 54.8262ZM176.856 54.9311L176.872 53.9313L176.856 54.9311ZM174.106 54.8873L174.09 55.8872L174.106 54.8873ZM171.356 54.7996L171.308 55.7984L171.356 54.7996ZM168.606 54.6679L168.558 55.6667L168.606 54.6679ZM164.481 54.6214L164.488 55.6214L164.481 54.6214ZM163.106 54.6311L163.099 53.6311L163.106 54.6311ZM160.356 54.6034L160.383 53.6037L160.356 54.6034ZM157.606 54.5285L157.633 53.5289L157.606 54.5285ZM154.856 54.3964L154.925 53.3987L154.856 54.3964ZM152.106 54.2068L152.037 55.2044L152.106 54.2068ZM149.356 54.1219L149.363 55.1219L149.356 54.1219ZM146.606 54.1416L146.599 53.1417L146.606 54.1416ZM143.856 54.385L143.689 53.3991L143.856 54.385ZM138.356 54.9469L138.457 53.9519L138.356 54.9469ZM135.606 54.6696L135.506 55.6646L135.606 54.6696ZM132.856 54.4763L132.896 53.4771L132.856 54.4763ZM130.106 54.367L130.067 55.3662L130.106 54.367ZM127.356 54.3637L127.394 55.363L127.356 54.3637ZM124.606 54.4664L124.569 53.4671L124.606 54.4664ZM121.856 54.3864L121.761 55.3818L121.856 54.3864ZM119.106 54.1235L119.201 53.1281L119.106 54.1235ZM116.356 54.1475L116.469 55.1412L116.356 54.1475ZM113.606 54.4583L113.494 53.4647L113.606 54.4583ZM110.856 54.5165L110.786 55.514L110.856 54.5165ZM109.481 54.4192L109.552 53.4217L109.481 54.4192ZM108.106 54.3219L108.036 55.3194L108.106 54.3219ZM105.356 54.2872L105.311 53.2883L105.356 54.2872ZM102.606 54.4125L102.652 55.4115L102.606 54.4125ZM99.8563 54.5258L99.8195 53.5265L99.8563 54.5258ZM97.1063 54.627L97.1431 55.6264L97.1063 54.627ZM94.3563 54.5196L94.2421 55.5131L94.3563 54.5196ZM91.6063 54.2035L91.4921 55.197L91.6063 54.2035ZM88.8563 54.2832L89.0266 55.2686L88.8563 54.2832ZM86.1063 54.7588L85.9359 53.7734L86.1063 54.7588ZM83.3563 54.9653L83.379 53.9655L83.3563 54.9653ZM80.6063 54.9028L80.5835 55.9025L80.6063 54.9028ZM77.8563 54.9256L77.8956 55.9249L77.8563 54.9256ZM75.1063 55.0339L75.0669 54.0347L75.1063 55.0339ZM72.3563 54.9319L72.4691 53.9382L72.3563 54.9319ZM69.6063 54.6196L69.4934 55.6132L69.6063 54.6196ZM66.8563 54.5715L66.7779 53.5746L66.8563 54.5715ZM64.1063 54.7878L64.1847 55.7847L64.1063 54.7878ZM61.3563 54.7773L61.2703 55.7736L61.3563 54.7773ZM59.9813 54.6588L60.0672 53.6625L59.9813 54.6588ZM58.6063 54.5402L58.5203 55.5365L58.6063 54.5402ZM55.8563 54.3175L55.7808 55.3147L55.8563 54.3175ZM53.1063 54.1093L53.1818 53.1122L53.1063 54.1093ZM50.3563 54.2443L50.5276 55.2295L50.3563 54.2443ZM47.6063 54.7226L47.4349 53.7374L47.6063 54.7226ZM44.8563 54.9812L44.8705 55.9811L44.8563 54.9812ZM42.1063 55.0202L42.0921 54.0203L42.1063 55.0202ZM39.3563 54.8754L39.4749 53.8825L39.3563 54.8754ZM37.9813 54.7112L37.8626 55.7041L37.9813 54.7112ZM36.6063 54.5469L36.7249 53.5539L36.6063 54.5469ZM33.8563 54.3001L33.9161 53.3019L33.8563 54.3001ZM31.1063 54.1351L31.1661 53.1369L31.1063 54.1351ZM28.3563 54.2871L28.1882 53.3013L28.3563 54.2871ZM26.9813 54.5215L26.8132 53.5357L26.9813 54.5215ZM25.6063 54.7559L25.7743 55.7417L25.6063 54.7559ZM22.8563 54.8173L22.9812 53.8251L22.8563 54.8173ZM20.1063 54.4711L19.9814 55.4633L20.1063 54.4711ZM17.3563 54.4238L17.2652 53.428L17.3563 54.4238ZM14.6063 54.6754L14.6974 55.6712L14.6063 54.6754ZM11.8563 54.8735L11.9088 55.8721L11.8563 54.8735ZM9.10626 55.0182L9.05372 54.0195L9.10626 55.0182ZM6.35626 54.9488L6.4588 53.954L6.35626 54.9488ZM4.98126 54.807L4.87872 55.8017L4.98126 54.807ZM3.60626 54.6653L3.50372 55.66L3.60626 54.6653ZM2.00007 53.3621L1.01931 53.5573L2.00007 53.3621ZM1.53769 51.0392L2.51845 50.844L1.53769 51.0392ZM1.38884 48.5027L0.390623 48.443L1.38884 48.5027ZM1.78667 40.2527L0.787335 40.2162L1.78667 40.2527ZM4.12012 1.29984L4.1987 2.29675L5.5737 2.18837L5.49512 1.19146L5.41654 0.19455L4.04154 0.302931L4.12012 1.29984ZM5.49512 1.19146L5.5737 2.18837C6.43465 2.1205 7.29538 2.12488 8.15647 2.20151L8.24512 1.20545L8.33376 0.209385C7.36152 0.122858 6.38892 0.117904 5.41654 0.19455L5.49512 1.19146ZM8.24512 1.20545L8.15647 2.20151L9.53147 2.32388L9.62012 1.32782L9.70876 0.331756L8.33376 0.209385L8.24512 1.20545ZM9.62012 1.32782L9.53147 2.32388L10.9065 2.44625L10.9951 1.45019L11.0838 0.454128L9.70876 0.331756L9.62012 1.32782ZM10.9951 1.45019L10.9065 2.44625C11.8893 2.53372 12.8724 2.5232 13.8548 2.41477L13.7451 1.42081L13.6354 0.426841C12.7845 0.520756 11.9343 0.52982 11.0838 0.454128L10.9951 1.45019ZM13.7451 1.42081L13.8548 2.41477L15.2298 2.26301L15.1201 1.26905L15.0104 0.275085L13.6354 0.426841L13.7451 1.42081ZM15.1201 1.26905L15.2298 2.26301L16.6048 2.11126L16.4951 1.11729L16.3854 0.123328L15.0104 0.275085L15.1201 1.26905ZM16.4951 1.11729L16.6048 2.11126C17.453 2.01765 18.3005 2.0121 19.1483 2.09455L19.2451 1.09924L19.3419 0.103935C18.3564 0.00811017 17.3706 0.0145963 16.3854 0.123328L16.4951 1.11729ZM19.2451 1.09924L19.1483 2.09455L20.5233 2.22825L20.6201 1.23294L20.7169 0.237639L19.3419 0.103935L19.2451 1.09924ZM20.6201 1.23294L20.5233 2.22825L21.8983 2.36195L21.9951 1.36665L22.0919 0.371343L20.7169 0.237639L20.6201 1.23294ZM21.9951 1.36665L21.8983 2.36195C22.8711 2.45655 23.8444 2.46856 24.8175 2.39791L24.7451 1.40054L24.6727 0.403162C23.8125 0.465606 22.9524 0.455022 22.0919 0.371343L21.9951 1.36665ZM24.7451 1.40054L24.8175 2.39791L26.1925 2.2981L26.1201 1.30072L26.0477 0.303346L24.6727 0.403162L24.7451 1.40054ZM26.1201 1.30072L26.1925 2.2981L27.5675 2.19828L27.4951 1.20091L27.4227 0.20353L26.0477 0.303346L26.1201 1.30072ZM27.4951 1.20091L27.5675 2.19828C28.428 2.13582 29.2883 2.14607 30.1491 2.22911L30.2451 1.23373L30.3411 0.238354C29.3686 0.144535 28.3956 0.132905 27.4227 0.20353L27.4951 1.20091ZM30.2451 1.23373L30.1491 2.22911L31.5241 2.36176L31.6201 1.36638L31.7161 0.370999L30.3411 0.238354L30.2451 1.23373ZM31.6201 1.36638L31.5241 2.36176L32.8991 2.4944L32.9951 1.49902L33.0911 0.503643L31.7161 0.370999L31.6201 1.36638ZM32.9951 1.49902L32.8991 2.4944C33.8886 2.58986 34.8784 2.57666 35.8673 2.45496L35.7451 1.46245L35.623 0.469934C34.7785 0.573863 33.935 0.585047 33.0911 0.503643L32.9951 1.49902ZM35.7451 1.46245L35.8673 2.45496L37.2423 2.28574L37.1201 1.29323L36.998 0.300713L35.623 0.469934L35.7451 1.46245ZM37.1201 1.29323L37.2423 2.28574L38.6173 2.11652L38.4951 1.124L38.373 0.131493L36.998 0.300713L37.1201 1.29323ZM38.4951 1.124L38.6173 2.11652C39.4789 2.01047 40.3397 1.97687 41.2003 2.01551L41.2451 1.01652L41.29 0.0175234C40.3172 -0.0261512 39.3447 0.0119072 38.373 0.131493L38.4951 1.124ZM41.2451 1.01652L41.2003 2.01551L42.5753 2.07724L42.6201 1.07825L42.665 0.0792563L41.29 0.0175234L41.2451 1.01652ZM42.6201 1.07825L42.5753 2.07724L43.9503 2.13898L43.9951 1.13998L44.04 0.140989L42.665 0.0792563L42.6201 1.07825ZM43.9951 1.13998L43.9503 2.13898C44.8868 2.18102 45.8233 2.19514 46.7599 2.18133L46.7451 1.18144L46.7304 0.181546C45.8336 0.194772 44.9368 0.181254 44.04 0.140989L43.9951 1.13998ZM46.7451 1.18144L46.7599 2.18133L48.1349 2.16105L48.1201 1.16116L48.1054 0.161268L46.7304 0.181546L46.7451 1.18144ZM48.1201 1.16116L48.1349 2.16105L49.5099 2.14077L49.4951 1.14088L49.4804 0.140989L48.1054 0.161268L48.1201 1.16116ZM49.4951 1.14088L49.5099 2.14077C50.4061 2.12755 51.3024 2.14176 52.1987 2.18338L52.2451 1.18446L52.2915 0.185535C51.3545 0.142019 50.4174 0.127169 49.4804 0.140989L49.4951 1.14088ZM52.2451 1.18446L52.1987 2.18338L53.5737 2.24724L53.6201 1.24832L53.6665 0.249392L52.2915 0.185535L52.2451 1.18446ZM53.6201 1.24832L53.5737 2.24724L54.9487 2.3111L54.9951 1.31217L55.0415 0.313249L53.6665 0.249392L53.6201 1.24832ZM54.9951 1.31217L54.9487 2.3111C55.8939 2.35499 56.839 2.35845 57.7842 2.32149L57.7451 1.32225L57.706 0.323015C56.8179 0.357753 55.9297 0.354498 55.0415 0.313249L54.9951 1.31217ZM57.7451 1.32225L57.7842 2.32149L59.1592 2.26771L59.1201 1.26847L59.081 0.269238L57.706 0.323015L57.7451 1.32225ZM59.1201 1.26847L59.1592 2.26771L60.5342 2.21393L60.4951 1.2147L60.456 0.215461L59.081 0.269238L59.1201 1.26847ZM60.4951 1.2147L60.5342 2.21393C61.3809 2.18082 62.2285 2.23595 63.078 2.37998L63.2451 1.39405L63.4123 0.408119C62.4284 0.24131 61.4427 0.176873 60.456 0.215461L60.4951 1.2147ZM63.2451 1.39405L63.078 2.37998L64.453 2.61311L64.6201 1.62718L64.7873 0.641248L63.4123 0.408119L63.2451 1.39405ZM64.6201 1.62718L64.453 2.61311L65.8279 2.84623L65.9951 1.86031L66.1623 0.874376L64.7873 0.641248L64.6201 1.62718ZM65.9951 1.86031L65.8279 2.84623C66.8419 3.01814 67.8583 3.03842 68.8739 2.90648L68.7451 1.91481L68.6163 0.923144C67.7986 1.02937 66.9817 1.01331 66.1623 0.874376L65.9951 1.86031ZM68.7451 1.91481L68.8739 2.90648L70.2489 2.72786L70.1201 1.73619L69.9913 0.744521L68.6163 0.923144L68.7451 1.91481ZM70.1201 1.73619L70.2489 2.72786L71.6239 2.54923L71.4951 1.55757L71.3663 0.565898L69.9913 0.744521L70.1201 1.73619ZM71.4951 1.55757L71.6239 2.54923C72.4565 2.44107 73.288 2.43932 74.1204 2.54393L74.2451 1.55174L74.3698 0.55954C73.3689 0.433759 72.3671 0.435891 71.3663 0.565898L71.4951 1.55757ZM74.2451 1.55174L74.1204 2.54393L75.4954 2.71673L75.6201 1.72453L75.7448 0.732334L74.3698 0.55954L74.2451 1.55174ZM75.6201 1.72453L75.4954 2.71673L76.8704 2.88952L76.9951 1.89732L77.1198 0.905128L75.7448 0.732334L75.6201 1.72453ZM76.9951 1.89732L76.8704 2.88952C77.8289 3.00998 78.7881 3.06908 79.7476 3.06668L79.7451 2.06669L79.7426 1.06669C78.8688 1.06887 77.9946 1.01506 77.1198 0.905128L76.9951 1.89732ZM79.7451 2.06669L79.7476 3.06668L81.1226 3.06325L81.1201 2.06326L81.1176 1.06326L79.7426 1.06669L79.7451 2.06669ZM81.1201 2.06326L81.1226 3.06325L82.4976 3.05982L82.4951 2.05983L82.4926 1.05983L81.1176 1.06326L81.1201 2.06326ZM82.4951 2.05983L82.4976 3.05982C83.4243 3.05751 84.3511 3.04122 85.2778 3.01096L85.2451 2.01149L85.2125 1.01202C84.3058 1.04163 83.3992 1.05757 82.4926 1.05983L82.4951 2.05983ZM85.2451 2.01149L85.2778 3.01096L86.6528 2.96605L86.6201 1.96659L86.5875 0.967118L85.2125 1.01202L85.2451 2.01149ZM86.6201 1.96659L86.6528 2.96605L88.0278 2.92115L87.9951 1.92168L87.9625 0.922213L86.5875 0.967118L86.6201 1.96659ZM87.9951 1.92168L88.0278 2.92115C88.9625 2.89062 89.8971 2.83476 90.8317 2.75356L90.7451 1.75732L90.6586 0.76107C89.7598 0.839155 88.8611 0.892866 87.9625 0.922213L87.9951 1.92168ZM90.7451 1.75732L90.8317 2.75356L92.2067 2.63411L92.1201 1.63786L92.0336 0.641612L90.6586 0.76107L90.7451 1.75732ZM92.1201 1.63786L92.2067 2.63411L93.5817 2.51465L93.4951 1.5184L93.4086 0.522154L92.0336 0.641612L92.1201 1.63786ZM93.4951 1.5184L93.5817 2.51465C94.4354 2.44047 95.2889 2.4472 96.143 2.53489L96.2451 1.54012L96.3473 0.545346C95.368 0.444802 94.3881 0.437051 93.4086 0.522154L93.4951 1.5184ZM96.2451 1.54012L96.143 2.53489L97.518 2.67606L97.6201 1.68129L97.7223 0.686519L96.3473 0.545346L96.2451 1.54012ZM97.6201 1.68129L97.518 2.67606L98.893 2.81723L98.9951 1.82246L99.0973 0.827693L97.7223 0.686519L97.6201 1.68129ZM98.9951 1.82246L98.893 2.81723C99.8557 2.91608 100.819 2.94766 101.782 2.9119L101.745 1.91259L101.708 0.913276C100.838 0.945576 99.9679 0.917082 99.0973 0.827693L98.9951 1.82246ZM101.745 1.91259L101.782 2.9119L103.157 2.86085L103.12 1.86154L103.083 0.862226L101.708 0.913276L101.745 1.91259ZM103.12 1.86154L103.157 2.86085L104.532 2.8098L104.495 1.81049L104.458 0.811176L103.083 0.862226L103.12 1.86154ZM104.495 1.81049L104.532 2.8098C105.471 2.77495 106.41 2.70894 107.348 2.61181L107.245 1.61713L107.142 0.622441C106.247 0.715059 105.353 0.777963 104.458 0.811176L104.495 1.81049ZM107.245 1.61713L107.348 2.61181L108.723 2.4695L108.62 1.47482L108.517 0.480131L107.142 0.622441L107.245 1.61713ZM108.62 1.47482L108.723 2.4695L110.098 2.3272L109.995 1.33251L109.892 0.337822L108.517 0.480131L108.62 1.47482ZM109.995 1.33251L110.098 2.3272C110.942 2.23986 111.785 2.24538 112.629 2.34383L112.745 1.35056L112.861 0.35729C111.872 0.241922 110.882 0.235407 109.892 0.337822L109.995 1.33251ZM112.745 1.35056L112.629 2.34383L114.004 2.50419L114.12 1.51092L114.236 0.51765L112.861 0.35729L112.745 1.35056ZM114.12 1.51092L114.004 2.50419L115.379 2.66454L115.495 1.67128L115.611 0.678009L114.236 0.51765L114.12 1.51092ZM115.495 1.67128L115.379 2.66454C116.363 2.77928 117.348 2.79378 118.332 2.7079L118.245 1.71168L118.158 0.715467C117.309 0.789529 116.461 0.777089 115.611 0.678009L115.495 1.67128ZM118.245 1.71168L118.332 2.7079L119.707 2.58795L119.62 1.59173L119.533 0.595514L118.158 0.715467L118.245 1.71168ZM119.62 1.59173L119.707 2.58795L121.082 2.46799L120.995 1.47178L120.908 0.47556L119.533 0.595514L119.62 1.59173ZM120.995 1.47178L121.082 2.46799C121.929 2.39409 122.776 2.40874 123.624 2.51213L123.745 1.51948L123.866 0.526837C122.881 0.406679 121.894 0.389528 120.908 0.47556L120.995 1.47178ZM123.745 1.51948L123.624 2.51213L124.999 2.67979L125.12 1.68715L125.241 0.694499L123.866 0.526837L123.745 1.51948ZM125.12 1.68715L124.999 2.67979L126.374 2.84746L126.495 1.85481L126.616 0.86216L125.241 0.694499L125.12 1.68715ZM126.495 1.85481L126.374 2.84746C127.342 2.9655 128.311 3.00764 129.28 2.97369L129.245 1.9743L129.21 0.974916C128.346 1.00519 127.481 0.967666 126.616 0.86216L126.495 1.85481ZM129.245 1.9743L129.28 2.97369L130.655 2.92552L130.62 1.92614L130.585 0.92675L129.21 0.974916L129.245 1.9743ZM130.62 1.92614L130.655 2.92552L132.03 2.87736L131.995 1.87797L131.96 0.878584L130.585 0.92675L130.62 1.92614ZM131.995 1.87797L132.03 2.87736C132.957 2.84491 133.883 2.79893 134.809 2.73942L134.745 1.74148L134.681 0.743533C133.774 0.801797 132.867 0.846813 131.96 0.878584L131.995 1.87797ZM134.745 1.74148L134.809 2.73942L136.184 2.65109L136.12 1.65315L136.056 0.655205L134.681 0.743533L134.745 1.74148ZM136.12 1.65315L136.184 2.65109L137.559 2.56276L137.495 1.56482L137.431 0.566876L136.056 0.655205L136.12 1.65315ZM137.495 1.56482L137.559 2.56276C138.438 2.50634 139.316 2.50054 140.194 2.54537L140.245 1.54667L140.296 0.54797C139.341 0.499225 138.386 0.505531 137.431 0.566876L137.495 1.56482ZM140.245 1.54667L140.194 2.54537L141.569 2.61555L141.62 1.61685L141.671 0.618149L140.296 0.54797L140.245 1.54667ZM141.62 1.61685L141.569 2.61555L142.944 2.68573L142.995 1.68703L143.046 0.688328L141.671 0.618149L141.62 1.61685ZM142.995 1.68703L142.944 2.68573C143.924 2.73573 144.903 2.69339 145.881 2.55903L145.745 1.56833L145.609 0.577634C144.754 0.695108 143.9 0.731899 143.046 0.688328L142.995 1.68703ZM145.745 1.56833L145.881 2.55903L147.256 2.37015L147.12 1.37945L146.984 0.388758L145.609 0.577634L145.745 1.56833ZM147.12 1.37945L147.256 2.37015L148.631 2.18128L148.495 1.19058L148.359 0.199882L146.984 0.388758L147.12 1.37945ZM148.495 1.19058L148.631 2.18128C149.488 2.06361 150.343 2.02493 151.198 2.06494L151.245 1.06603L151.292 0.0671228C150.314 0.0213578 149.336 0.0657152 148.359 0.199882L148.495 1.19058ZM151.245 1.06603L151.198 2.06494L152.573 2.12926L152.62 1.13036L152.667 0.13145L151.292 0.0671228L151.245 1.06603ZM152.62 1.13036L152.573 2.12926L153.948 2.19359L153.995 1.19468L154.042 0.195777L152.667 0.13145L152.62 1.13036ZM153.995 1.19468L153.948 2.19359C154.887 2.2375 155.825 2.25062 156.764 2.23295L156.745 1.23313L156.726 0.233303C155.831 0.250148 154.937 0.237641 154.042 0.195777L153.995 1.19468ZM156.745 1.23313L156.764 2.23295L158.139 2.20706L158.12 1.20724L158.101 0.207417L156.726 0.233303L156.745 1.23313ZM158.12 1.20724L158.139 2.20706L159.514 2.18118L159.495 1.18135L159.476 0.181531L158.101 0.207417L158.12 1.20724ZM159.495 1.18135L159.514 2.18118C160.436 2.16383 161.357 2.13961 162.279 2.10853L162.245 1.1091L162.211 0.109667C161.3 0.140413 160.388 0.164368 159.476 0.181531L159.495 1.18135ZM162.245 1.1091L162.279 2.10853L163.654 2.06216L163.62 1.06273L163.586 0.0632981L162.211 0.109667L162.245 1.1091ZM163.62 1.06273L163.654 2.06216L165.029 2.01579L164.995 1.01636L164.961 0.016929L163.586 0.0632981L163.62 1.06273ZM164.995 1.01636L165.029 2.01579C165.874 1.9873 166.72 2.04904 167.568 2.2018L167.745 1.21764L167.922 0.233471C166.937 0.056038 165.95 -0.0164036 164.961 0.016929L164.995 1.01636ZM167.745 1.21764L167.568 2.2018L168.943 2.44945L169.12 1.46528L169.297 0.481116L167.922 0.233471L167.745 1.21764ZM169.12 1.46528L168.943 2.44945L170.318 2.69709L170.495 1.71293L170.672 0.728761L169.297 0.481116L169.12 1.46528ZM170.495 1.71293L170.318 2.69709C171.34 2.88123 172.366 2.89878 173.39 2.74912L173.245 1.75963L173.101 0.770141C172.291 0.888398 171.483 0.874819 170.672 0.728761L170.495 1.71293ZM173.245 1.75963L173.39 2.74912L174.765 2.54818L174.62 1.55869L174.476 0.569199L173.101 0.770141L173.245 1.75963ZM174.62 1.55869L174.765 2.54818L176.14 2.34724L175.995 1.35775L175.851 0.368258L174.476 0.569199L174.62 1.55869ZM175.995 1.35775L176.14 2.34724C176.99 2.22302 177.838 2.18602 178.686 2.23583L178.745 1.23755L178.804 0.239265C177.819 0.181419 176.834 0.224555 175.851 0.368258L175.995 1.35775ZM178.745 1.23755L178.686 2.23583L180.061 2.31656L180.12 1.31828L180.179 0.320004L178.804 0.239265L178.745 1.23755ZM180.12 1.31828L180.061 2.31656L181.436 2.3973L181.495 1.39902L181.554 0.400742L180.179 0.320004L180.12 1.31828ZM181.495 1.39902L181.436 2.3973C182.404 2.45411 183.371 2.4372 184.338 2.34666L184.245 1.35101L184.152 0.35537C183.286 0.436487 182.42 0.451589 181.554 0.400742L181.495 1.39902ZM184.245 1.35101L184.338 2.34666L185.713 2.21791L185.62 1.22227L185.527 0.226623L184.152 0.35537L184.245 1.35101ZM185.62 1.22227L185.713 2.21791L187.088 2.08917L186.995 1.09352L186.902 0.0978769L185.527 0.226623L185.62 1.22227ZM186.995 1.09352L187.088 2.08917C187.956 2.00793 188.823 1.99121 189.69 2.03892L189.745 1.04043L189.8 0.0419376C188.834 -0.0112222 187.868 0.00744772 186.902 0.0978769L186.995 1.09352ZM189.745 1.04043L189.69 2.03892L191.065 2.11457L191.12 1.11608L191.175 0.11759L189.8 0.0419376L189.745 1.04043ZM191.12 1.11608L191.065 2.11457L192.44 2.19022L192.495 1.19173L192.55 0.193242L191.175 0.11759L191.12 1.11608ZM192.495 1.19173L192.44 2.19022C193.386 2.24226 194.332 2.25272 195.278 2.22159L195.245 1.22213L195.212 0.222675C194.325 0.251877 193.438 0.242069 192.55 0.193242L192.495 1.19173ZM195.245 1.22213L195.278 2.22159L196.653 2.17634L196.62 1.17688L196.587 0.177426L195.212 0.222675L195.245 1.22213ZM196.62 1.17688L196.653 2.17634L198.028 2.13109L197.995 1.13164L197.962 0.132176L196.587 0.177426L196.62 1.17688ZM197.995 1.13164L198.028 2.13109C198.891 2.10268 199.755 2.143 200.62 2.25228L200.745 1.26017L200.87 0.268061C199.902 0.145622 198.932 0.100257 197.962 0.132176L197.995 1.13164ZM200.745 1.26017L200.62 2.25228L201.995 2.42606L202.12 1.43395L202.245 0.441845L200.87 0.268061L200.745 1.26017ZM202.12 1.43395L201.995 2.42606L203.37 2.59984L203.495 1.60774L203.62 0.615628L202.245 0.441845L202.12 1.43395ZM203.495 1.60774L203.37 2.59984C204.379 2.72743 205.389 2.71313 206.398 2.55731L206.245 1.56904L206.092 0.580769C205.267 0.708251 204.444 0.719756 203.62 0.615628L203.495 1.60774ZM206.245 1.56904L206.398 2.55731L207.773 2.34483L207.62 1.35656L207.467 0.368289L206.092 0.580769L206.245 1.56904ZM207.62 1.35656L207.773 2.34483L209.148 2.13235L208.995 1.14408L208.842 0.155809L207.467 0.368289L207.62 1.35656ZM208.995 1.14408L209.148 2.13235C209.99 2.00218 210.831 1.96856 211.671 2.03095L211.745 1.0337L211.819 0.0364412C210.826 -0.0372949 209.833 0.002671 208.842 0.155809L208.995 1.14408ZM211.745 1.0337L211.671 2.03095L213.046 2.13305L213.12 1.13579L213.194 0.138539L211.819 0.0364412L211.745 1.0337ZM213.12 1.13579L213.046 2.13305L214.421 2.23515L214.495 1.23789L214.569 0.240636L213.194 0.138539L213.12 1.13579ZM214.495 1.23789L214.421 2.23515C215.372 2.30574 216.323 2.32743 217.274 2.3002L217.245 1.30061L217.216 0.301015C216.334 0.326288 215.452 0.306171 214.569 0.240636L214.495 1.23789ZM217.245 1.30061L217.274 2.3002L218.649 2.26081L218.62 1.26122L218.591 0.261632L217.216 0.301015L217.245 1.30061ZM218.62 1.26122L218.649 2.26081L220.024 2.22143L219.995 1.22184L219.966 0.222249L218.591 0.261632L218.62 1.26122ZM219.995 1.22184L220.024 2.22143C220.925 2.19562 221.826 2.19099 222.727 2.20753L222.745 1.2077L222.763 0.207865C221.831 0.19075 220.899 0.195545 219.966 0.222249L219.995 1.22184ZM222.745 1.2077L222.727 2.20753L224.102 2.23277L224.12 1.23294L224.138 0.233106L222.763 0.207865L222.745 1.2077ZM224.12 1.23294L224.102 2.23277L225.477 2.25801L225.495 1.25818L225.513 0.258346L224.138 0.233106L224.12 1.23294ZM225.495 1.25818L225.477 2.25801C226.365 2.27431 227.253 2.32894 228.141 2.42195L228.245 1.42739L228.349 0.432829C227.404 0.333878 226.459 0.275702 225.513 0.258346L225.495 1.25818ZM228.245 1.42739L228.141 2.42195L229.516 2.56593L229.62 1.57136L229.724 0.576802L228.349 0.432829L228.245 1.42739ZM229.62 1.57136L229.516 2.56593L230.891 2.7099L230.995 1.71534L231.099 0.720775L229.724 0.576802L229.62 1.57136ZM230.995 1.71534L230.891 2.7099C231.848 2.81007 232.805 2.85216 233.762 2.8361L233.745 1.83624L233.728 0.836385C232.852 0.851082 231.976 0.812575 231.099 0.720775L230.995 1.71534ZM233.745 1.83624L233.762 2.8361L235.137 2.81304L235.12 1.81318L235.103 0.813317L233.728 0.836385L233.745 1.83624ZM235.12 1.81318L235.137 2.81304L236.512 2.78997L236.495 1.79011L236.478 0.79025L235.103 0.813317L235.12 1.81318ZM236.495 1.79011L236.512 2.78997C237.434 2.77451 238.355 2.75205 239.277 2.72259L239.245 1.7231L239.213 0.723611C238.302 0.752744 237.39 0.774957 236.478 0.79025L236.495 1.79011ZM239.245 1.7231L239.277 2.72259L240.652 2.67865L240.62 1.67916L240.588 0.67967L239.213 0.723611L239.245 1.7231ZM240.62 1.67916L240.652 2.67865L242.027 2.63471L241.995 1.63522L241.963 0.635729L240.588 0.67967L240.62 1.67916ZM241.995 1.63522L242.027 2.63471C242.909 2.60652 243.791 2.62391 244.674 2.68692L244.745 1.68946L244.816 0.692001C243.865 0.624099 242.914 0.605333 241.963 0.635729L241.995 1.63522ZM244.745 1.68946L244.674 2.68692L246.049 2.7851L246.12 1.78764L246.191 0.790184L244.816 0.692001L244.745 1.68946ZM246.12 1.78764L246.049 2.7851L247.424 2.88329L247.495 1.88583L247.566 0.888367L246.191 0.790184L246.12 1.78764ZM247.495 1.88583L247.424 2.88329C248.408 2.95356 249.392 2.92427 250.375 2.7957L250.245 1.80415L250.115 0.812598C249.265 0.923844 248.416 0.94901 247.566 0.888367L247.495 1.88583ZM250.245 1.80415L250.375 2.7957L251.75 2.61584L251.62 1.62429L251.49 0.632738L250.115 0.812598L250.245 1.80415ZM251.62 1.62429L251.75 2.61584L253.125 2.43598L252.995 1.44443L252.865 0.452879L251.49 0.632738L251.62 1.62429ZM252.995 1.44443L253.125 2.43598C254.009 2.32028 254.893 2.2483 255.777 2.21996L255.745 1.22048L255.713 0.220992C254.763 0.251443 253.814 0.328768 252.865 0.452879L252.995 1.44443ZM255.745 1.22048L255.777 2.21996L257.152 2.17587L257.12 1.17638L257.088 0.176899L255.713 0.220992L255.745 1.22048ZM257.12 1.17638L257.152 2.17587L258.527 2.13178L258.495 1.13229L258.463 0.132805L257.088 0.176899L257.12 1.17638ZM258.495 1.13229L258.527 2.13178C259.438 2.10258 260.348 2.08168 261.259 2.0691L261.245 1.06919L261.231 0.069288C260.309 0.0820422 259.386 0.103215 258.463 0.132805L258.495 1.13229ZM261.245 1.06919L261.259 2.0691L262.634 2.05009L262.62 1.05019L262.606 0.0502826L261.231 0.069288L261.245 1.06919ZM262.62 1.05019L262.634 2.05009L264.009 2.03109L263.995 1.03118L263.981 0.0312773L262.606 0.0502826L262.62 1.05019ZM263.995 1.03118L264.009 2.03109C264.921 2.01848 265.833 2.012 266.745 2.01166L266.745 1.01166L266.745 0.011658C265.824 0.0120053 264.902 0.018545 263.981 0.0312773L263.995 1.03118ZM266.745 1.01166L266.745 2.01166L268.12 2.01114L268.12 1.01114L268.12 0.0111394L266.745 0.011658L266.745 1.01166ZM268.12 1.01114L268.12 2.01114L269.495 2.01062L269.495 1.01062L269.495 0.0106208L268.12 0.0111394L268.12 1.01114ZM269.495 1.01062L269.495 2.01062C270.394 2.01028 271.293 2.03423 272.191 2.08248L272.245 1.08392L272.299 0.085356C271.364 0.0351816 270.429 0.0102683 269.495 0.0106208L269.495 1.01062ZM272.245 1.08392L272.191 2.08248L273.566 2.1563L273.62 1.15773L273.674 0.159172L272.299 0.085356L272.245 1.08392ZM273.62 1.15773L273.566 2.1563L274.941 2.23011L274.995 1.23155L275.049 0.232988L273.674 0.159172L273.62 1.15773ZM274.995 1.23155L274.941 2.23011C275.868 2.27986 276.795 2.31556 277.722 2.33719L277.745 1.33746L277.768 0.337734C276.862 0.316573 275.955 0.281658 275.049 0.232988L274.995 1.23155ZM277.745 1.33746L277.722 2.33719L279.097 2.36929L279.12 1.36956L279.143 0.369831L277.768 0.337734L277.745 1.33746ZM279.12 1.36956L279.097 2.36929L280.472 2.40138L280.495 1.40165L280.518 0.401927L279.143 0.369831L279.12 1.36956ZM280.495 1.40165L280.472 2.40138C281.368 2.4223 282.264 2.47082 283.16 2.54695L283.245 1.55054L283.33 0.554123C282.393 0.47454 281.456 0.423804 280.518 0.401927L280.495 1.40165ZM283.245 1.55054L283.16 2.54695L284.535 2.66373L284.62 1.66732L284.705 0.670907L283.33 0.554123L283.245 1.55054ZM284.62 1.66732L284.535 2.66373L285.91 2.78052L285.995 1.7841L286.08 0.787691L284.705 0.670907L284.62 1.66732ZM285.995 1.7841L285.91 2.78052C286.895 2.86418 287.881 2.84655 288.865 2.72781L288.745 1.735L288.625 0.742203C287.776 0.844639 286.928 0.859744 286.08 0.787691L285.995 1.7841ZM288.745 1.735L288.865 2.72781L290.24 2.56192L290.12 1.56912L290 0.576319L288.625 0.742203L288.745 1.735ZM290.12 1.56912L290.24 2.56192L291.615 2.39604L291.495 1.40324L291.375 0.410434L290 0.576319L290.12 1.56912ZM291.495 1.40324L291.615 2.39604C292.461 2.29395 293.306 2.28254 294.152 2.36165L294.245 1.366L294.338 0.37035C293.351 0.277933 292.362 0.291343 291.375 0.410434L291.495 1.40324ZM294.245 1.366L294.152 2.36165L295.527 2.4903L295.62 1.49465L295.713 0.499001L294.338 0.37035L294.245 1.366ZM295.62 1.49465L295.527 2.4903L296.902 2.61895L296.995 1.6233L297.088 0.627652L295.713 0.499001L295.62 1.49465ZM296.995 1.6233L296.902 2.61895C297.841 2.70679 298.78 2.76309 299.719 2.78784L299.745 1.78819L299.771 0.788533C298.877 0.764969 297.983 0.711348 297.088 0.627652L296.995 1.6233ZM299.745 1.78819L299.719 2.78784L301.094 2.82407L301.12 1.82442L301.146 0.824765L299.771 0.788533L299.745 1.78819ZM301.12 1.82442L301.094 2.82407L302.469 2.8603L302.495 1.86065L302.521 0.860997L301.146 0.824765L301.12 1.82442ZM302.495 1.86065L302.469 2.8603C303.396 2.88474 304.324 2.89403 305.251 2.88816L305.245 1.88818L305.239 0.888198C304.333 0.893931 303.427 0.884865 302.521 0.860997L302.495 1.86065ZM305.245 1.88818L305.251 2.88816L306.626 2.87945L306.62 1.87947L306.614 0.879493L305.239 0.888198L305.245 1.88818ZM306.62 1.87947L306.626 2.87945L308.001 2.87075L307.995 1.87077L307.989 0.870789L306.614 0.879493L306.62 1.87947ZM307.995 1.87077L308.001 2.87075C308.936 2.86484 309.87 2.83449 310.804 2.77971L310.745 1.78142L310.687 0.78314C309.787 0.835882 308.888 0.865097 307.989 0.870789L307.995 1.87077ZM310.745 1.78142L310.804 2.77971L312.179 2.69907L312.12 1.70078L312.062 0.702499L310.687 0.78314L310.745 1.78142ZM312.12 1.70078L312.179 2.69907L313.554 2.61843L313.495 1.62014L313.437 0.621858L312.062 0.702499L312.12 1.70078ZM313.495 1.62014L313.554 2.61843C314.463 2.56512 315.371 2.52249 316.28 2.49053L316.245 1.49114L316.21 0.491762C315.285 0.524275 314.361 0.567641 313.437 0.621858L313.495 1.62014ZM316.245 1.49114L316.28 2.49053L317.655 2.44217L317.62 1.44279L317.585 0.443404L316.21 0.491762L316.245 1.49114ZM317.62 1.44279L317.655 2.44217L319.03 2.39381L318.995 1.39443L318.96 0.395046L317.585 0.443404L317.62 1.44279ZM318.995 1.39443L319.03 2.39381C319.923 2.3624 320.816 2.36255 321.71 2.39427L321.745 1.3949L321.781 0.395534C320.84 0.362142 319.9 0.36198 318.96 0.395046L318.995 1.39443ZM321.745 1.3949L321.71 2.39427L323.085 2.44311L323.12 1.44374L323.156 0.444367L321.781 0.395534L321.745 1.3949ZM323.12 1.44374L323.085 2.44311L324.46 2.49194L324.495 1.49257L324.531 0.493201L323.156 0.444367L323.12 1.44374ZM324.495 1.49257L324.46 2.49194C325.421 2.52609 326.383 2.49565 327.343 2.4007L327.245 1.40555L327.147 0.410395C326.274 0.496591 325.402 0.524164 324.531 0.493201L324.495 1.49257ZM327.245 1.40555L327.343 2.4007L328.718 2.26485L328.62 1.2697L328.522 0.274541L327.147 0.410395L327.245 1.40555ZM328.62 1.2697L328.718 2.26485L330.093 2.12899L329.995 1.13384L329.897 0.138686L328.522 0.274541L328.62 1.2697ZM329.995 1.13384L330.093 2.12899C330.977 2.0417 331.86 1.99896 332.743 2.0007L332.745 1.0007L332.747 0.0007025C331.797 -0.00117385 330.847 0.044839 329.897 0.138686L329.995 1.13384ZM332.745 1.0007L332.743 2.0007L334.118 2.00341L334.12 1.00342L334.122 0.00341737L332.747 0.0007025L332.745 1.0007ZM334.12 1.00342L334.118 2.00341L335.493 2.00613L335.495 1.00613L335.497 0.00613225L334.122 0.00341737L334.12 1.00342ZM335.495 1.00613L335.493 2.00613C336.35 2.00782 337.207 2.08642 338.066 2.24252L338.245 1.25862L338.424 0.274719C337.45 0.097783 336.474 0.00806117 335.497 0.00613225L335.495 1.00613ZM338.245 1.25862L338.066 2.24252L339.441 2.49229L339.62 1.50839L339.799 0.524491L338.424 0.274719L338.245 1.25862ZM339.62 1.50839L339.441 2.49229L340.816 2.74206L340.995 1.75816L341.174 0.774263L339.799 0.524491L339.62 1.50839ZM340.995 1.75816L340.816 2.74206C341.734 2.90867 342.577 3.06105 343.345 3.19919L343.522 2.21496L343.699 1.23072C342.932 1.09284 342.09 0.940685 341.174 0.774263L340.995 1.75816ZM343.522 2.21496L343.345 3.19919L344.497 3.40622L344.674 2.42198L344.851 1.43775L343.699 1.23072L343.522 2.21496ZM344.674 2.42198L344.497 3.40622L345.65 3.61324L345.826 2.62901L346.003 1.64477L344.851 1.43775L344.674 2.42198ZM345.826 2.62901L345.65 3.61324C345.746 3.63065 345.795 3.654 345.814 3.66518C345.829 3.67415 345.831 3.67877 345.834 3.68276C345.843 3.69536 345.907 3.80698 345.884 4.14042L346.881 4.21103L347.879 4.28164C347.92 3.69841 347.841 3.08803 347.498 2.57329C347.138 2.03291 346.589 1.75 346.003 1.64477L345.826 2.62901ZM346.881 4.21103L345.884 4.14042L345.786 5.51542L346.784 5.58603L347.781 5.65664L347.879 4.28164L346.881 4.21103ZM346.784 5.58603L345.786 5.51542L345.689 6.89042L346.687 6.96103L347.684 7.03164L347.781 5.65664L346.784 5.58603ZM346.687 6.96103L345.689 6.89042C345.624 7.81663 345.571 8.74286 345.532 9.66911L346.532 9.71103L347.531 9.75295C347.569 8.84587 347.62 7.93876 347.684 7.03164L346.687 6.96103ZM346.532 9.71103L345.532 9.66911L345.475 11.0441L346.474 11.086L347.473 11.1279L347.531 9.75295L346.532 9.71103ZM346.474 11.086L345.475 11.0441L345.417 12.4191L346.416 12.461L347.415 12.5029L347.473 11.1279L346.474 11.086ZM346.416 12.461L345.417 12.4191C345.378 13.3424 345.349 14.2658 345.329 15.1891L346.328 15.211L347.328 15.233C347.348 14.323 347.377 13.413 347.415 12.5029L346.416 12.461ZM346.328 15.211L345.329 15.1891L345.298 16.5641L346.298 16.586L347.298 16.608L347.328 15.233L346.328 15.211ZM346.298 16.586L345.298 16.5641L345.268 17.9391L346.268 17.961L347.268 17.983L347.298 16.608L346.298 16.586ZM346.268 17.961L345.268 17.9391C345.247 18.8943 345.281 19.8494 345.371 20.8041L346.366 20.711L347.362 20.6179C347.28 19.7393 347.249 18.8611 347.268 17.983L346.268 17.961ZM346.366 20.711L345.371 20.8041L345.499 22.1791L346.495 22.086L347.491 21.9929L347.362 20.6179L346.366 20.711ZM346.495 22.086L345.499 22.1791L345.628 23.5541L346.623 23.461L347.619 23.3679L347.491 21.9929L346.495 22.086ZM346.623 23.461L345.628 23.5541C345.708 24.4104 345.71 25.2664 345.634 26.1226L346.63 26.211L347.626 26.2994C347.713 25.3224 347.71 24.3449 347.619 23.3679L346.623 23.461ZM346.63 26.211L345.634 26.1226L345.512 27.4976L346.508 27.586L347.504 27.6744L347.626 26.2994L346.63 26.211ZM346.508 27.586L345.512 27.4976L345.39 28.8726L346.386 28.961L347.382 29.0494L347.504 27.6744L346.508 27.586ZM346.386 28.961L345.39 28.8726C345.307 29.8034 345.244 30.7343 345.202 31.6652L346.201 31.711L347.2 31.7569C347.241 30.8545 347.302 29.952 347.382 29.0494L346.386 28.961ZM346.201 31.711L345.202 31.6652L345.139 33.0402L346.138 33.086L347.137 33.1319L347.2 31.7569L346.201 31.711ZM346.138 33.086L345.139 33.0402L345.076 34.4152L346.074 34.461L347.073 34.5069L347.137 33.1319L346.138 33.086ZM346.074 34.461L345.076 34.4152C345.032 35.3706 345.043 36.3261 345.111 37.2814L346.108 37.211L347.106 37.1407C347.044 36.2626 347.033 35.3848 347.073 34.5069L346.074 34.461ZM346.108 37.211L345.111 37.2814L345.208 38.6563L346.205 38.586L347.203 38.5157L347.106 37.1407L346.108 37.211ZM346.205 38.586L345.208 38.6563L345.305 40.0313L346.302 39.961L347.3 39.8907L347.203 38.5157L346.205 38.586ZM346.302 39.961L345.305 40.0313C345.369 40.948 345.434 41.8646 345.498 42.7812L346.496 42.711L347.493 42.6409C347.429 41.7241 347.364 40.8074 347.3 39.8907L346.302 39.961ZM346.496 42.711L345.498 42.7812L345.595 44.1562L346.593 44.086L347.59 44.0159L347.493 42.6409L346.496 42.711ZM346.593 44.086L345.595 44.1562L345.692 45.5312L346.689 45.461L347.687 45.3909L347.59 44.0159L346.593 44.086ZM346.689 45.461L345.692 45.5312C345.752 46.3832 345.729 47.2352 345.623 48.0882L346.616 48.211L347.608 48.3338C347.73 47.3535 347.756 46.3722 347.687 45.3909L346.689 45.461ZM346.616 48.211L345.623 48.0882L345.453 49.4632L346.446 49.586L347.438 49.7088L347.608 48.3338L346.616 48.211ZM346.446 49.586L345.453 49.4632L345.283 50.8382L346.275 50.961L347.268 51.0838L347.438 49.7088L346.446 49.586ZM346.275 50.961L345.283 50.8382C345.186 51.6213 344.954 51.9999 344.741 52.1805L345.387 52.944L346.033 53.7074C346.777 53.0774 347.138 52.1341 347.268 51.0838L346.275 50.961ZM345.387 52.944L344.741 52.1805L344.022 52.7885L344.668 53.5519L345.314 54.3153L346.033 53.7074L345.387 52.944ZM344.668 53.5519L344.022 52.7885L343.304 53.3964L343.95 54.1598L344.596 54.9232L345.314 54.3153L344.668 53.5519ZM343.95 54.1598L343.304 53.3964C343.13 53.5433 342.769 53.6907 341.999 53.5796L341.856 54.5693L341.713 55.559C342.777 55.7125 343.811 55.5869 344.596 54.9232L343.95 54.1598ZM341.856 54.5693L341.999 53.5796L340.624 53.3811L340.481 54.3709L340.338 55.3606L341.713 55.559L341.856 54.5693ZM340.481 54.3709L340.624 53.3811L339.249 53.1827L339.106 54.1724L338.963 55.1622L340.338 55.3606L340.481 54.3709ZM339.106 54.1724L339.249 53.1827C338.257 53.0394 337.262 53.0115 336.268 53.0993L336.356 54.0955L336.444 55.0916C337.284 55.0174 338.123 55.0408 338.963 55.1622L339.106 54.1724ZM336.356 54.0955L336.268 53.0993L334.893 53.2208L334.981 54.2169L335.069 55.2131L336.444 55.0916L336.356 54.0955ZM334.981 54.2169L334.893 53.2208L333.518 53.3423L333.606 54.3384L333.694 55.3345L335.069 55.2131L334.981 54.2169ZM333.606 54.3384L333.518 53.3423C332.628 53.421 331.738 53.4642 330.848 53.472L330.856 54.4719L330.865 55.4719C331.808 55.4636 332.751 55.4178 333.694 55.3345L333.606 54.3384ZM330.856 54.4719L330.848 53.472L329.473 53.484L329.481 54.4839L329.49 55.4839L330.865 55.4719L330.856 54.4719ZM329.481 54.4839L329.473 53.484L328.098 53.496L328.106 54.4959L328.115 55.4959L329.49 55.4839L329.481 54.4839ZM328.106 54.4959L328.098 53.496C327.154 53.5042 326.211 53.5502 325.268 53.6339L325.356 54.63L325.445 55.626C326.335 55.5471 327.225 55.5037 328.115 55.4959L328.106 54.4959ZM325.356 54.63L325.268 53.6339L323.893 53.7559L323.981 54.752L324.07 55.748L325.445 55.626L325.356 54.63ZM323.981 54.752L323.893 53.7559L322.518 53.8779L322.606 54.874L322.695 55.87L324.07 55.748L323.981 54.752ZM322.606 54.874L322.518 53.8779C321.669 53.9532 320.821 53.9415 319.972 53.8428L319.856 54.8361L319.741 55.8294C320.725 55.9438 321.71 55.9574 322.695 55.87L322.606 54.874ZM319.856 54.8361L319.972 53.8428L318.597 53.6829L318.481 54.6762L318.366 55.6695L319.741 55.8294L319.856 54.8361ZM318.481 54.6762L318.597 53.6829L317.222 53.523L317.106 54.5164L316.991 55.5097L318.366 55.6695L318.481 54.6762ZM317.106 54.5164L317.222 53.523C316.226 53.4072 315.229 53.4114 314.233 53.5355L314.356 54.5278L314.48 55.5202C315.317 55.4158 316.154 55.4123 316.991 55.5097L317.106 54.5164ZM314.356 54.5278L314.233 53.5355L312.858 53.7069L312.981 54.6992L313.105 55.6915L314.48 55.5202L314.356 54.5278ZM312.981 54.6992L312.858 53.7069L311.483 53.8782L311.606 54.8705L311.73 55.8628L313.105 55.6915L312.981 54.6992ZM311.606 54.8705L311.483 53.8782C310.643 53.9828 309.805 53.9885 308.966 53.8955L308.856 54.8894L308.746 55.8833C309.741 55.9936 310.736 55.9867 311.73 55.8628L311.606 54.8705ZM308.856 54.8894L308.966 53.8955L307.591 53.7431L307.481 54.737L307.371 55.7309L308.746 55.8833L308.856 54.8894ZM307.481 54.737L307.591 53.7431L306.216 53.5906L306.106 54.5845L305.996 55.5785L307.371 55.7309L307.481 54.737ZM306.106 54.5845L306.216 53.5906C305.257 53.4843 304.298 53.44 303.338 53.4578L303.356 54.4576L303.375 55.4574C304.248 55.4412 305.122 55.4815 305.996 55.5785L306.106 54.5845ZM303.356 54.4576L303.338 53.4578L301.963 53.4833L301.981 54.4831L302 55.483L303.375 55.4574L303.356 54.4576ZM301.981 54.4831L301.963 53.4833L300.588 53.5088L300.606 54.5086L300.625 55.5085L302 55.483L301.981 54.4831ZM300.606 54.5086L300.588 53.5088C299.701 53.5253 298.814 53.5023 297.926 53.4398L297.856 54.4373L297.786 55.4349C298.732 55.5015 299.678 55.526 300.625 55.5085L300.606 54.5086ZM297.856 54.4373L297.926 53.4398L296.551 53.343L296.481 54.3405L296.411 55.3381L297.786 55.4349L297.856 54.4373ZM296.481 54.3405L296.551 53.343L295.176 53.2462L295.106 54.2437L295.036 55.2413L296.411 55.3381L296.481 54.3405ZM295.106 54.2437L295.176 53.2462C294.199 53.1774 293.222 53.1973 292.246 53.3056L292.356 54.2995L292.467 55.2934C293.323 55.1983 294.18 55.181 295.036 55.2413L295.106 54.2437ZM292.356 54.2995L292.246 53.3056L290.871 53.4581L290.981 54.452L291.092 55.4459L292.467 55.2934L292.356 54.2995ZM290.981 54.452L290.871 53.4581L289.496 53.6107L289.606 54.6046L289.717 55.5985L291.092 55.4459L290.981 54.452ZM289.606 54.6046L289.496 53.6107C288.667 53.7027 287.838 53.6855 287.007 53.5587L286.856 54.5472L286.705 55.5358C287.708 55.6888 288.712 55.7099 289.717 55.5985L289.606 54.6046ZM286.856 54.5472L287.007 53.5587L285.632 53.3488L285.481 54.3373L285.33 55.3259L286.705 55.5358L286.856 54.5472ZM285.481 54.3373L285.632 53.3488L284.257 53.1389L284.106 54.1274L283.955 55.116L285.33 55.3259L285.481 54.3373ZM284.106 54.1274L284.257 53.1389C283.253 52.9855 282.247 52.9671 281.241 53.0839L281.356 54.0772L281.472 55.0705C282.299 54.9744 283.126 54.9894 283.955 55.116L284.106 54.1274ZM281.356 54.0772L281.241 53.0839L279.866 53.2436L279.981 54.2369L280.097 55.2303L281.472 55.0705L281.356 54.0772ZM279.981 54.2369L279.866 53.2436L278.491 53.4033L278.606 54.3967L278.722 55.39L280.097 55.2303L279.981 54.2369ZM278.606 54.3967L278.491 53.4033C277.614 53.5052 276.739 53.5531 275.863 53.5472L275.856 54.5472L275.85 55.5472C276.807 55.5536 277.765 55.5011 278.722 55.39L278.606 54.3967ZM275.856 54.5472L275.863 53.5472L274.488 53.538L274.481 54.538L274.475 55.538L275.85 55.5472L275.856 54.5472ZM274.481 54.538L274.488 53.538L273.113 53.5288L273.106 54.5288L273.1 55.5288L274.475 55.538L274.481 54.538ZM273.106 54.5288L273.113 53.5288C272.177 53.5226 271.241 53.5433 270.305 53.591L270.356 54.5897L270.407 55.5884C271.305 55.5427 272.202 55.5228 273.1 55.5288L273.106 54.5288ZM270.356 54.5897L270.305 53.591L268.93 53.6611L268.981 54.6598L269.032 55.6585L270.407 55.5884L270.356 54.5897ZM268.981 54.6598L268.93 53.6611L267.555 53.7312L267.606 54.7299L267.657 55.7286L269.032 55.6585L268.981 54.6598ZM267.606 54.7299L267.555 53.7312C266.7 53.7748 265.845 53.7396 264.989 53.6253L264.856 54.6165L264.724 55.6077C265.701 55.7381 266.679 55.7785 267.657 55.7286L267.606 54.7299ZM264.856 54.6165L264.989 53.6253L263.614 53.4417L263.481 54.4329L263.349 55.4241L264.724 55.6077L264.856 54.6165ZM263.481 54.4329L263.614 53.4417L262.239 53.2582L262.106 54.2494L261.974 55.2406L263.349 55.4241L263.481 54.4329ZM262.106 54.2494L262.239 53.2582C261.269 53.1288 260.299 53.0774 259.329 53.1041L259.356 54.1037L259.384 55.1033C260.247 55.0796 261.11 55.1253 261.974 55.2406L262.106 54.2494ZM259.356 54.1037L259.329 53.1041L257.954 53.1419L257.981 54.1415L258.009 55.1411L259.384 55.1033L259.356 54.1037ZM257.981 54.1415L257.954 53.1419L256.579 53.1797L256.606 54.1793L256.634 55.1789L258.009 55.1411L257.981 54.1415ZM256.606 54.1793L256.579 53.1797C255.641 53.2055 254.704 53.2604 253.767 53.3446L253.856 54.3406L253.946 55.3366C254.842 55.2561 255.738 55.2036 256.634 55.1789L256.606 54.1793ZM253.856 54.3406L253.767 53.3446L252.392 53.468L252.481 54.464L252.571 55.46L253.946 55.3366L253.856 54.3406ZM252.481 54.464L252.392 53.468L251.017 53.5915L251.106 54.5875L251.196 55.5835L252.571 55.46L252.481 54.464ZM251.106 54.5875L251.017 53.5915C250.115 53.6725 249.213 53.7336 248.311 53.7749L248.356 54.7739L248.402 55.7729C249.333 55.7302 250.265 55.6671 251.196 55.5835L251.106 54.5875ZM248.356 54.7739L248.311 53.7749L246.936 53.8379L246.981 54.8369L247.027 55.8358L248.402 55.7729L248.356 54.7739ZM246.981 54.8369L246.936 53.8379L245.561 53.9009L245.606 54.8998L245.652 55.8988L247.027 55.8358L246.981 54.8369ZM245.606 54.8998L245.561 53.9009C244.679 53.9412 243.798 53.9348 242.916 53.8817L242.856 54.8799L242.796 55.8781C243.748 55.9355 244.7 55.9423 245.652 55.8988L245.606 54.8998ZM242.856 54.8799L242.916 53.8817L241.541 53.7989L241.481 54.7971L241.421 55.7952L242.796 55.8781L242.856 54.8799ZM241.481 54.7971L241.541 53.7989L240.166 53.716L240.106 54.7142L240.046 55.7124L241.421 55.7952L241.481 54.7971ZM240.106 54.7142L240.166 53.716C239.206 53.6581 238.245 53.6634 237.285 53.7319L237.356 54.7294L237.427 55.7269C238.3 55.6646 239.173 55.6598 240.046 55.7124L240.106 54.7142ZM237.356 54.7294L237.285 53.7319L235.91 53.83L235.981 54.8275L236.052 55.8249L237.427 55.7269L237.356 54.7294ZM235.981 54.8275L235.91 53.83L234.535 53.9281L234.606 54.9255L234.677 55.923L236.052 55.8249L235.981 54.8275ZM234.606 54.9255L234.535 53.9281C233.651 53.9912 232.766 54.0113 231.882 53.9886L231.856 54.9882L231.831 55.9879C232.78 56.0123 233.729 55.9907 234.677 55.923L234.606 54.9255ZM231.856 54.9882L231.882 53.9886L230.507 53.9532L230.481 54.9529L230.456 55.9525L231.831 55.9879L231.856 54.9882ZM230.481 54.9529L230.507 53.9532L229.132 53.9178L229.106 54.9175L229.081 55.9172L230.456 55.9525L230.481 54.9529ZM229.106 54.9175L229.132 53.9178C228.23 53.8946 227.328 53.8518 226.425 53.7895L226.356 54.7871L226.287 55.7847C227.218 55.8491 228.149 55.8932 229.081 55.9172L229.106 54.9175ZM226.356 54.7871L226.425 53.7895L225.05 53.6944L224.981 54.692L224.912 55.6897L226.287 55.7847L226.356 54.7871ZM224.981 54.692L225.05 53.6944L223.675 53.5994L223.606 54.597L223.537 55.5946L224.912 55.6897L224.981 54.692ZM223.606 54.597L223.675 53.5994C222.716 53.5331 221.757 53.5279 220.798 53.5838L220.856 54.5821L220.914 55.5804C221.789 55.5294 222.663 55.5341 223.537 55.5946L223.606 54.597ZM220.856 54.5821L220.798 53.5838L219.423 53.6639L219.481 54.6622L219.539 55.6605L220.914 55.5804L220.856 54.5821ZM219.481 54.6622L219.423 53.6639L218.048 53.744L218.106 54.7423L218.164 55.7406L219.539 55.6605L219.481 54.6622ZM218.106 54.7423L218.048 53.744C217.187 53.7942 216.326 53.7728 215.464 53.6795L215.356 54.6737L215.249 55.6679C216.22 55.773 217.192 55.7973 218.164 55.7406L218.106 54.7423ZM215.356 54.6737L215.464 53.6795L214.089 53.5307L213.981 54.5249L213.874 55.5191L215.249 55.6679L215.356 54.6737ZM213.981 54.5249L214.089 53.5307L212.714 53.3819L212.606 54.3761L212.499 55.3703L213.874 55.5191L213.981 54.5249ZM212.606 54.3761L212.714 53.3819C211.731 53.2755 210.747 53.2684 209.763 53.3605L209.856 54.3562L209.95 55.3518C210.799 55.2722 211.649 55.2783 212.499 55.3703L212.606 54.3761ZM209.856 54.3562L209.763 53.3605L208.388 53.4894L208.481 54.4851L208.575 55.4807L209.95 55.3518L209.856 54.3562ZM208.481 54.4851L208.388 53.4894L207.013 53.6183L207.106 54.6139L207.2 55.6096L208.575 55.4807L208.481 54.4851ZM207.106 54.6139L207.013 53.6183C206.13 53.701 205.247 53.7385 204.365 53.7309L204.356 54.7308L204.348 55.7308C205.298 55.7391 206.249 55.6986 207.2 55.6096L207.106 54.6139ZM204.356 54.7308L204.365 53.7309L202.99 53.7189L202.981 54.7189L202.973 55.7188L204.348 55.7308L204.356 54.7308ZM202.981 54.7189L202.99 53.7189L201.615 53.707L201.606 54.7069L201.598 55.7069L202.973 55.7188L202.981 54.7189ZM201.606 54.7069L201.615 53.707C200.736 53.6993 199.856 53.6426 198.976 53.5366L198.856 54.5294L198.737 55.5223C199.69 55.637 200.644 55.6986 201.598 55.7069L201.606 54.7069ZM198.856 54.5294L198.976 53.5366L197.601 53.3711L197.481 54.3639L197.362 55.3568L198.737 55.5223L198.856 54.5294ZM197.481 54.3639L197.601 53.3711L196.226 53.2056L196.106 54.1984L195.987 55.1912L197.362 55.3568L197.481 54.3639ZM196.106 54.1984L196.226 53.2056C195.263 53.0897 194.3 53.0411 193.337 53.0598L193.356 54.0596L193.376 55.0594C194.246 55.0425 195.116 55.0864 195.987 55.1912L196.106 54.1984ZM193.356 54.0596L193.337 53.0598L191.962 53.0866L191.981 54.0864L192.001 55.0862L193.376 55.0594L193.356 54.0596ZM191.981 54.0864L191.962 53.0866L190.587 53.1133L190.606 54.1131L190.626 55.1129L192.001 55.0862L191.981 54.0864ZM190.606 54.1131L190.587 53.1133C189.658 53.1313 188.729 53.1662 187.801 53.2178L187.856 54.2162L187.912 55.2147C188.816 55.1644 189.721 55.1305 190.626 55.1129L190.606 54.1131ZM187.856 54.2162L187.801 53.2178L186.426 53.2942L186.481 54.2927L186.537 55.2911L187.912 55.2147L187.856 54.2162ZM186.481 54.2927L186.426 53.2942L185.051 53.3706L185.106 54.3691L185.162 55.3675L186.537 55.2911L186.481 54.2927ZM185.106 54.3691L185.051 53.3706C184.122 53.4222 183.193 53.4909 182.264 53.5766L182.356 54.5724L182.448 55.5681C183.353 55.4847 184.257 55.4178 185.162 55.3675L185.106 54.3691ZM182.356 54.5724L182.264 53.5766L180.889 53.7035L180.981 54.6993L181.073 55.695L182.448 55.5681L182.356 54.5724ZM180.981 54.6993L180.889 53.7035L179.514 53.8304L179.606 54.8262L179.698 55.8219L181.073 55.695L180.981 54.6993ZM179.606 54.8262L179.514 53.8304C178.633 53.9117 177.753 53.9453 176.872 53.9313L176.856 54.9311L176.84 55.931C177.793 55.9462 178.746 55.9098 179.698 55.8219L179.606 54.8262ZM176.856 54.9311L176.872 53.9313L175.497 53.9094L175.481 54.9092L175.465 55.9091L176.84 55.931L176.856 54.9311ZM175.481 54.9092L175.497 53.9094L174.122 53.8875L174.106 54.8873L174.09 55.8872L175.465 55.9091L175.481 54.9092ZM174.106 54.8873L174.122 53.8875C173.216 53.873 172.31 53.8441 171.404 53.8007L171.356 54.7996L171.308 55.7984C172.236 55.8429 173.163 55.8724 174.09 55.8872L174.106 54.8873ZM171.356 54.7996L171.404 53.8007L170.029 53.7349L169.981 54.7337L169.933 55.7326L171.308 55.7984L171.356 54.7996ZM169.981 54.7337L170.029 53.7349L168.654 53.669L168.606 54.6679L168.558 55.6667L169.933 55.7326L169.981 54.7337ZM168.606 54.6679L168.654 53.669C167.719 53.6242 166.784 53.6051 165.849 53.6117L165.856 54.6117L165.863 55.6117C166.762 55.6053 167.66 55.6237 168.558 55.6667L168.606 54.6679ZM165.856 54.6117L165.849 53.6117L164.474 53.6214L164.481 54.6214L164.488 55.6214L165.863 55.6117L165.856 54.6117ZM164.481 54.6214L164.474 53.6214L163.099 53.6311L163.106 54.6311L163.113 55.631L164.488 55.6214L164.481 54.6214ZM163.106 54.6311L163.099 53.6311C162.194 53.6375 161.289 53.6283 160.383 53.6037L160.356 54.6034L160.329 55.603C161.257 55.6282 162.185 55.6376 163.113 55.631L163.106 54.6311ZM160.356 54.6034L160.383 53.6037L159.008 53.5663L158.981 54.5659L158.954 55.5656L160.329 55.603L160.356 54.6034ZM158.981 54.5659L159.008 53.5663L157.633 53.5289L157.606 54.5285L157.579 55.5282L158.954 55.5656L158.981 54.5659ZM157.606 54.5285L157.633 53.5289C156.731 53.5044 155.828 53.461 154.925 53.3987L154.856 54.3964L154.787 55.394C155.718 55.4581 156.649 55.5029 157.579 55.5282L157.606 54.5285ZM154.856 54.3964L154.925 53.3987L153.55 53.3039L153.481 54.3016L153.412 55.2992L154.787 55.394L154.856 54.3964ZM153.481 54.3016L153.55 53.3039L152.175 53.2092L152.106 54.2068L152.037 55.2044L153.412 55.2992L153.481 54.3016ZM152.106 54.2068L152.175 53.2092C151.233 53.1442 150.291 53.1151 149.349 53.1219L149.356 54.1219L149.363 55.1219C150.255 55.1154 151.146 55.143 152.037 55.2044L152.106 54.2068ZM149.356 54.1219L149.349 53.1219L147.974 53.1318L147.981 54.1318L147.988 55.1317L149.363 55.1219L149.356 54.1219ZM147.981 54.1318L147.974 53.1318L146.599 53.1417L146.606 54.1416L146.613 55.1416L147.988 55.1317L147.981 54.1318ZM146.606 54.1416L146.599 53.1417C145.628 53.1486 144.658 53.2346 143.689 53.3991L143.856 54.385L144.024 55.3709C144.888 55.2241 145.751 55.1478 146.613 55.1416L146.606 54.1416ZM143.856 54.385L143.689 53.3991L142.314 53.6326L142.481 54.6185L142.649 55.6044L144.024 55.3709L143.856 54.385ZM142.481 54.6185L142.314 53.6326L140.939 53.8661L141.106 54.852L141.274 55.8379L142.649 55.6044L142.481 54.6185ZM141.106 54.852L140.939 53.8661C140.11 54.0069 139.283 54.0353 138.457 53.9519L138.356 54.9469L138.256 55.9418C139.263 56.0433 140.269 56.0084 141.274 55.8379L141.106 54.852ZM138.356 54.9469L138.457 53.9519L137.082 53.8133L136.981 54.8082L136.881 55.8032L138.256 55.9418L138.356 54.9469ZM136.981 54.8082L137.082 53.8133L135.707 53.6746L135.606 54.6696L135.506 55.6646L136.881 55.8032L136.981 54.8082ZM135.606 54.6696L135.707 53.6746C134.77 53.5802 133.833 53.5143 132.896 53.4771L132.856 54.4763L132.817 55.4755C133.713 55.5112 134.609 55.5742 135.506 55.6646L135.606 54.6696ZM132.856 54.4763L132.896 53.4771L131.521 53.4225L131.481 54.4217L131.442 55.4209L132.817 55.4755L132.856 54.4763ZM131.481 54.4217L131.521 53.4225L130.146 53.3678L130.106 54.367L130.067 55.3662L131.442 55.4209L131.481 54.4217ZM130.106 54.367L130.146 53.3678C129.204 53.3304 128.261 53.3292 127.319 53.3644L127.356 54.3637L127.394 55.363C128.285 55.3298 129.176 55.3308 130.067 55.3662L130.106 54.367ZM127.356 54.3637L127.319 53.3644L125.944 53.4158L125.981 54.4151L126.019 55.4144L127.394 55.363L127.356 54.3637ZM125.981 54.4151L125.944 53.4158L124.569 53.4671L124.606 54.4664L124.644 55.4658L126.019 55.4144L125.981 54.4151ZM124.606 54.4664L124.569 53.4671C123.697 53.4997 122.824 53.4743 121.951 53.3909L121.856 54.3864L121.761 55.3818C122.722 55.4736 123.683 55.5016 124.644 55.4658L124.606 54.4664ZM121.856 54.3864L121.951 53.3909L120.576 53.2595L120.481 54.2549L120.386 55.2504L121.761 55.3818L121.856 54.3864ZM120.481 54.2549L120.576 53.2595L119.201 53.1281L119.106 54.1235L119.011 55.119L120.386 55.2504L120.481 54.2549ZM119.106 54.1235L119.201 53.1281C118.216 53.0338 117.229 53.0424 116.244 53.1538L116.356 54.1475L116.469 55.1412C117.316 55.0453 118.164 55.038 119.011 55.119L119.106 54.1235ZM116.356 54.1475L116.244 53.1538L114.869 53.3092L114.981 54.3029L115.094 55.2966L116.469 55.1412L116.356 54.1475ZM114.981 54.3029L114.869 53.3092L113.494 53.4647L113.606 54.4583L113.719 55.452L115.094 55.2966L114.981 54.3029ZM113.606 54.4583L113.494 53.4647C112.638 53.5614 111.782 53.5795 110.927 53.5189L110.856 54.5165L110.786 55.514C111.764 55.5831 112.741 55.5624 113.719 55.452L113.606 54.4583ZM110.856 54.5165L110.927 53.5189L109.552 53.4217L109.481 54.4192L109.411 55.4167L110.786 55.514L110.856 54.5165ZM109.481 54.4192L109.552 53.4217L108.177 53.3244L108.106 54.3219L108.036 55.3194L109.411 55.4167L109.481 54.4192ZM108.106 54.3219L108.177 53.3244C107.222 53.2568 106.266 53.2447 105.311 53.2883L105.356 54.2872L105.402 55.2862C106.28 55.2462 107.158 55.2572 108.036 55.3194L108.106 54.3219ZM105.356 54.2872L105.311 53.2883L103.936 53.3509L103.981 54.3499L104.027 55.3488L105.402 55.2862L105.356 54.2872ZM103.981 54.3499L103.936 53.3509L102.561 53.4136L102.606 54.4125L102.652 55.4115L104.027 55.3488L103.981 54.3499ZM102.606 54.4125L102.561 53.4136C101.647 53.4552 100.733 53.4928 99.8195 53.5265L99.8563 54.5258L99.8931 55.5251C100.813 55.4913 101.732 55.4534 102.652 55.4115L102.606 54.4125ZM99.8563 54.5258L99.8195 53.5265L98.4445 53.5771L98.4813 54.5764L98.5181 55.5757L99.8931 55.5251L99.8563 54.5258ZM98.4813 54.5764L98.4445 53.5771L97.0695 53.6277L97.1063 54.627L97.1431 55.6264L98.5181 55.5757L98.4813 54.5764ZM97.1063 54.627L97.0695 53.6277C96.2035 53.6596 95.3373 53.6258 94.4705 53.5262L94.3563 54.5196L94.2421 55.5131C95.2085 55.6242 96.1757 55.662 97.1431 55.6264L97.1063 54.627ZM94.3563 54.5196L94.4705 53.5262L93.0955 53.3681L92.9813 54.3616L92.8671 55.355L94.2421 55.5131L94.3563 54.5196ZM92.9813 54.3616L93.0955 53.3681L91.7205 53.2101L91.6063 54.2035L91.4921 55.197L92.8671 55.355L92.9813 54.3616ZM91.6063 54.2035L91.7205 53.2101C90.7082 53.0937 89.6957 53.1232 88.6859 53.2978L88.8563 54.2832L89.0266 55.2686C89.8501 55.1262 90.6709 55.1026 91.4921 55.197L91.6063 54.2035ZM88.8563 54.2832L88.6859 53.2978L87.3109 53.5356L87.4813 54.521L87.6516 55.5064L89.0266 55.2686L88.8563 54.2832ZM87.4813 54.521L87.3109 53.5356L85.9359 53.7734L86.1063 54.7588L86.2766 55.7441L87.6516 55.5064L87.4813 54.521ZM86.1063 54.7588L85.9359 53.7734C85.082 53.921 84.23 53.9849 83.379 53.9655L83.3563 54.9653L83.3335 55.965C84.3158 55.9873 85.2972 55.9135 86.2766 55.7441L86.1063 54.7588ZM83.3563 54.9653L83.379 53.9655L82.004 53.9343L81.9813 54.934L81.9585 55.9338L83.3335 55.965L83.3563 54.9653ZM81.9813 54.934L82.004 53.9343L80.629 53.903L80.6063 54.9028L80.5835 55.9025L81.9585 55.9338L81.9813 54.934ZM80.6063 54.9028L80.629 53.903C79.6916 53.8817 78.7543 53.8895 77.8169 53.9264L77.8563 54.9256L77.8956 55.9249C78.7916 55.8896 79.6876 55.8821 80.5835 55.9025L80.6063 54.9028ZM77.8563 54.9256L77.8169 53.9264L76.4419 53.9805L76.4813 54.9798L76.5206 55.979L77.8956 55.9249L77.8563 54.9256ZM76.4813 54.9798L76.4419 53.9805L75.0669 54.0347L75.1063 55.0339L75.1456 56.0331L76.5206 55.979L76.4813 54.9798ZM75.1063 55.0339L75.0669 54.0347C74.2013 54.0687 73.3356 54.0366 72.4691 53.9382L72.3563 54.9319L72.2434 55.9255C73.2103 56.0353 74.1779 56.0712 75.1456 56.0331L75.1063 55.0339ZM72.3563 54.9319L72.4691 53.9382L71.0941 53.7821L70.9813 54.7757L70.8684 55.7693L72.2434 55.9255L72.3563 54.9319ZM70.9813 54.7757L71.0941 53.7821L69.7191 53.6259L69.6063 54.6196L69.4934 55.6132L70.8684 55.7693L70.9813 54.7757ZM69.6063 54.6196L69.7191 53.6259C68.7392 53.5147 67.7585 53.4975 66.7779 53.5746L66.8563 54.5715L66.9347 55.5685C67.7874 55.5014 68.64 55.5163 69.4934 55.6132L69.6063 54.6196ZM66.8563 54.5715L66.7779 53.5746L65.4029 53.6827L65.4813 54.6797L65.5597 55.6766L66.9347 55.5685L66.8563 54.5715ZM65.4813 54.6797L65.4029 53.6827L64.0279 53.7909L64.1063 54.7878L64.1847 55.7847L65.5597 55.6766L65.4813 54.6797ZM64.1063 54.7878L64.0279 53.7909C63.1659 53.8587 62.3042 53.8554 61.4422 53.781L61.3563 54.7773L61.2703 55.7736C62.2416 55.8574 63.2133 55.8611 64.1847 55.7847L64.1063 54.7878ZM61.3563 54.7773L61.4422 53.781L60.0672 53.6625L59.9813 54.6588L59.8953 55.6551L61.2703 55.7736L61.3563 54.7773ZM59.9813 54.6588L60.0672 53.6625L58.6922 53.5439L58.6063 54.5402L58.5203 55.5365L59.8953 55.6551L59.9813 54.6588ZM58.6063 54.5402L58.6922 53.5439C57.772 53.4645 56.8519 53.39 55.9318 53.3204L55.8563 54.3175L55.7808 55.3147C56.694 55.3838 57.6072 55.4577 58.5203 55.5365L58.6063 54.5402ZM55.8563 54.3175L55.9318 53.3204L54.5568 53.2163L54.4813 54.2134L54.4058 55.2106L55.7808 55.3147L55.8563 54.3175ZM54.4813 54.2134L54.5568 53.2163L53.1818 53.1122L53.1063 54.1093L53.0308 55.1065L54.4058 55.2106L54.4813 54.2134ZM53.1063 54.1093L53.1818 53.1122C52.1816 53.0364 51.1821 53.0857 50.1849 53.2591L50.3563 54.2443L50.5276 55.2295C51.3638 55.0841 52.1976 55.0434 53.0308 55.1065L53.1063 54.1093ZM50.3563 54.2443L50.1849 53.2591L48.8099 53.4982L48.9813 54.4835L49.1526 55.4687L50.5276 55.2295L50.3563 54.2443ZM48.9813 54.4835L48.8099 53.4982L47.4349 53.7374L47.6063 54.7226L47.7776 55.7078L49.1526 55.4687L48.9813 54.4835ZM47.6063 54.7226L47.4349 53.7374C46.5694 53.8879 45.7053 53.9691 44.8421 53.9813L44.8563 54.9812L44.8705 55.9811C45.8406 55.9673 46.8098 55.8761 47.7776 55.7078L47.6063 54.7226ZM44.8563 54.9812L44.8421 53.9813L43.4671 54.0008L43.4813 55.0007L43.4954 56.0006L44.8705 55.9811L44.8563 54.9812ZM43.4813 55.0007L43.4671 54.0008L42.0921 54.0203L42.1063 55.0202L42.1204 56.0201L43.4954 56.0006L43.4813 55.0007ZM42.1063 55.0202L42.0921 54.0203C41.2201 54.0327 40.3478 53.9868 39.4749 53.8825L39.3563 54.8754L39.2376 55.8684C40.1981 55.9831 41.1591 56.0338 42.1204 56.0201L42.1063 55.0202ZM39.3563 54.8754L39.4749 53.8825L38.0999 53.7182L37.9813 54.7112L37.8626 55.7041L39.2376 55.8684L39.3563 54.8754ZM37.9813 54.7112L38.0999 53.7182L36.7249 53.5539L36.6063 54.5469L36.4876 55.5398L37.8626 55.7041L37.9813 54.7112ZM36.6063 54.5469L36.7249 53.5539C35.7888 53.4421 34.8526 53.3581 33.9161 53.3019L33.8563 54.3001L33.7964 55.2983C34.6933 55.3521 35.5904 55.4326 36.4876 55.5398L36.6063 54.5469ZM33.8563 54.3001L33.9161 53.3019L32.5411 53.2194L32.4813 54.2176L32.4214 55.2158L33.7964 55.2983L33.8563 54.3001ZM32.4813 54.2176L32.5411 53.2194L31.1661 53.1369L31.1063 54.1351L31.0464 55.1333L32.4214 55.2158L32.4813 54.2176ZM31.1063 54.1351L31.1661 53.1369C30.1723 53.0773 29.1792 53.1323 28.1882 53.3013L28.3563 54.2871L28.5243 55.2728C29.3667 55.1292 30.2069 55.083 31.0464 55.1333L31.1063 54.1351ZM28.3563 54.2871L28.1882 53.3013L26.8132 53.5357L26.9813 54.5215L27.1493 55.5073L28.5243 55.2728L28.3563 54.2871ZM26.9813 54.5215L26.8132 53.5357L25.4382 53.7702L25.6063 54.7559L25.7743 55.7417L27.1493 55.5073L26.9813 54.5215ZM25.6063 54.7559L25.4382 53.7702C24.6177 53.91 23.7997 53.9282 22.9812 53.8251L22.8563 54.8173L22.7314 55.8094C23.7461 55.9372 24.7615 55.9144 25.7743 55.7417L25.6063 54.7559ZM22.8563 54.8173L22.9812 53.8251L21.6062 53.652L21.4813 54.6442L21.3564 55.6364L22.7314 55.8094L22.8563 54.8173ZM21.4813 54.6442L21.6062 53.652L20.2312 53.4789L20.1063 54.4711L19.9814 55.4633L21.3564 55.6364L21.4813 54.6442ZM20.1063 54.4711L20.2312 53.4789C19.2431 53.3546 18.254 53.3375 17.2652 53.428L17.3563 54.4238L17.4474 55.4197C18.2918 55.3424 19.1361 55.3569 19.9814 55.4633L20.1063 54.4711ZM17.3563 54.4238L17.2652 53.428L15.8902 53.5538L15.9813 54.5496L16.0724 55.5454L17.4474 55.4197L17.3563 54.4238ZM15.9813 54.5496L15.8902 53.5538L14.5152 53.6795L14.6063 54.6754L14.6974 55.6712L16.0724 55.5454L15.9813 54.5496ZM14.6063 54.6754L14.5152 53.6795C13.6113 53.7622 12.7075 53.8273 11.8037 53.8749L11.8563 54.8735L11.9088 55.8721C12.8384 55.8232 13.7679 55.7562 14.6974 55.6712L14.6063 54.6754ZM11.8563 54.8735L11.8037 53.8749L10.4287 53.9472L10.4813 54.9458L10.5338 55.9445L11.9088 55.8721L11.8563 54.8735ZM10.4813 54.9458L10.4287 53.9472L9.05372 54.0195L9.10626 55.0182L9.15879 56.0168L10.5338 55.9445L10.4813 54.9458ZM9.10626 55.0182L9.05372 54.0195C8.18897 54.065 7.32416 54.0432 6.4588 53.954L6.35626 54.9488L6.25372 55.9435C7.22169 56.0433 8.19021 56.0677 9.15879 56.0168L9.10626 55.0182ZM6.35626 54.9488L6.4588 53.954L5.0838 53.8123L4.98126 54.807L4.87872 55.8017L6.25372 55.9435L6.35626 54.9488ZM4.98126 54.807L5.0838 53.8123L3.7088 53.6705L3.60626 54.6653L3.50372 55.66L4.87872 55.8017L4.98126 54.807ZM3.60626 54.6653L3.7088 53.6705C3.38018 53.6367 3.22109 53.552 3.14727 53.4921C3.08664 53.4429 3.01934 53.3603 2.98083 53.1669L2.00007 53.3621L1.01931 53.5573C1.13492 54.1381 1.41239 54.66 1.88715 55.0452C2.34873 55.4197 2.91567 55.5994 3.50372 55.66L3.60626 54.6653ZM2.00007 53.3621L2.98083 53.1669L2.74964 52.0054L1.76888 52.2006L0.788118 52.3959L1.01931 53.5573L2.00007 53.3621ZM1.76888 52.2006L2.74964 52.0054L2.51845 50.844L1.53769 51.0392L0.556928 51.2344L0.788118 52.3959L1.76888 52.2006ZM1.53769 51.0392L2.51845 50.844C2.38347 50.1659 2.33646 49.4073 2.38705 48.5625L1.38884 48.5027L0.390623 48.443C0.331427 49.4315 0.383645 50.3639 0.556928 51.2344L1.53769 51.0392ZM1.38884 48.5027L2.38705 48.5625L2.46939 47.1875L1.47117 47.1277L0.472962 47.068L0.390623 48.443L1.38884 48.5027ZM1.47117 47.1277L2.46939 47.1875L2.55172 45.8125L1.55351 45.7527L0.555301 45.693L0.472962 47.068L1.47117 47.1277ZM1.55351 45.7527L2.55172 45.8125C2.60708 44.8881 2.65166 43.9637 2.68546 43.0393L1.68612 43.0027L0.686791 42.9662C0.653561 43.8751 0.609731 44.784 0.555301 45.693L1.55351 45.7527ZM1.68612 43.0027L2.68546 43.0393L2.73573 41.6643L1.7364 41.6277L0.737063 41.5912L0.686791 42.9662L1.68612 43.0027ZM1.7364 41.6277L2.73573 41.6643L2.786 40.2893L1.78667 40.2527L0.787335 40.2162L0.737063 41.5912L1.7364 41.6277ZM1.78667 40.2527L2.786 40.2893C2.82001 39.3592 2.83522 38.429 2.83163 37.4989L1.83164 37.5027L0.831649 37.5066C0.835129 38.4098 0.820358 39.313 0.787335 40.2162L1.78667 40.2527ZM1.83164 37.5027L2.83163 37.4989L2.82634 36.1239L1.82634 36.1277L0.82635 36.1316L0.831649 37.5066L1.83164 37.5027ZM1.82634 36.1277L2.82634 36.1239L2.82104 34.7489L1.82104 34.7527L0.821052 34.7566L0.82635 36.1316L1.82634 36.1277ZM1.82104 34.7527L2.82104 34.7489C2.81737 33.7976 2.76438 32.8465 2.66214 31.8958L1.66787 32.0027L0.673603 32.1097C0.768527 32.9923 0.817653 33.8746 0.821052 34.7566L1.82104 34.7527ZM1.66787 32.0027L2.66214 31.8958L2.51426 30.5208L1.51999 30.6277L0.525726 30.7347L0.673603 32.1097L1.66787 32.0027ZM1.51999 30.6277L2.51426 30.5208L2.36638 29.1458L1.37212 29.2527L0.377849 29.3597L0.525726 30.7347L1.51999 30.6277ZM1.37212 29.2527L2.36638 29.1458C2.27115 28.2603 2.21795 27.3751 2.20675 26.4901L1.20683 26.5027L0.206908 26.5154C0.218916 27.4637 0.275915 28.4119 0.377849 29.3597L1.37212 29.2527ZM1.20683 26.5027L2.20675 26.4901L2.18934 25.1151L1.18942 25.1277L0.189497 25.1404L0.206908 26.5154L1.20683 26.5027ZM1.18942 25.1277L2.18934 25.1151L2.17193 23.7401L1.17201 23.7527L0.172087 23.7654L0.189497 25.1404L1.18942 25.1277ZM1.17201 23.7527L2.17193 23.7401C2.16027 22.8197 2.14349 21.8993 2.12158 20.9789L1.12187 21.0027L0.12215 21.0265C0.143881 21.9395 0.160527 22.8525 0.172087 23.7654L1.17201 23.7527ZM1.12187 21.0027L2.12158 20.9789L2.08885 19.604L1.08914 19.6277L0.0894195 19.6515L0.12215 21.0265L1.12187 21.0027ZM1.08914 19.6277L2.08885 19.604L2.05612 18.229L1.05641 18.2527L0.0566894 18.2765L0.0894195 19.6515L1.08914 19.6277ZM1.05641 18.2527L2.05612 18.229C2.03565 17.3688 2.08767 16.508 2.21252 15.6461L1.22285 15.5027L0.233182 15.3594C0.0924628 16.3308 0.0335252 17.3034 0.0566894 18.2765L1.05641 18.2527ZM1.22285 15.5027L2.21252 15.6461L2.4117 14.2711L1.42203 14.1277L0.432358 13.9844L0.233182 15.3594L1.22285 15.5027ZM1.42203 14.1277L2.4117 14.2711L2.61088 12.8961L1.6212 12.7527L0.631534 12.6094L0.432358 13.9844L1.42203 14.1277ZM1.6212 12.7527L2.61088 12.8961C2.75395 11.9084 2.78951 10.9192 2.71715 9.9298L1.71982 10.0027L0.72248 10.0757C0.784204 10.9196 0.754026 11.7638 0.631534 12.6094L1.6212 12.7527ZM1.71982 10.0027L2.71715 9.9298L2.61659 8.5548L1.61925 8.62775L0.621915 8.70069L0.72248 10.0757L1.71982 10.0027ZM1.61925 8.62775L2.61659 8.5548L2.51602 7.1798L1.51869 7.25275L0.52135 7.32569L0.621915 8.70069L1.61925 8.62775ZM1.51869 7.25275L2.51602 7.1798C2.44833 6.25424 2.37431 5.42047 2.29378 4.67942L1.29963 4.78746L0.305486 4.8955C0.382937 5.60817 0.454958 6.41792 0.52135 7.32569L1.51869 7.25275ZM1.29963 4.78746L2.29378 4.67942L2.17529 3.58913L1.18114 3.69717L0.186997 3.80521L0.305486 4.8955L1.29963 4.78746ZM1.18114 3.69717L2.17529 3.58913L2.0568 2.49885L1.06266 2.60689L0.0685085 2.71493L0.186997 3.80521L1.18114 3.69717ZM1.06266 2.60689L2.0568 2.49885C2.01806 2.14232 2.00179 1.90931 2.00035 1.77817C1.99952 1.70259 2.00464 1.71321 1.9949 1.76602C1.99172 1.78329 1.97196 1.89731 1.89445 2.03211C1.85265 2.10481 1.7722 2.22212 1.63164 2.32575C1.47786 2.43913 1.27685 2.5166 1.05065 2.5166V1.5166V0.516602C0.52986 0.516602 0.252514 0.87539 0.160645 1.03516C0.0700709 1.19268 0.039597 1.34077 0.0280392 1.40347C0.00155663 1.54713 -0.000697374 1.69404 0.000470996 1.80018C0.0030278 2.03247 0.0282625 2.3446 0.0685085 2.71493L1.06266 2.60689ZM1.05065 1.5166V2.5166H1.15714V1.5166V0.516602H1.05065V1.5166ZM1.15714 1.5166V2.5166H1.26363V1.5166V0.516602H1.15714V1.5166ZM1.26363 1.5166V2.5166C1.38655 2.5166 1.94489 2.4744 2.8237 2.40513L2.74512 1.40822L2.66654 0.411312C2.20879 0.447394 1.85837 0.474315 1.61428 0.492172C1.34161 0.51212 1.25195 0.516602 1.26363 0.516602V1.5166ZM2.74512 1.40822L2.8237 2.40513L4.1987 2.29675L4.12012 1.29984L4.04154 0.302931L2.66654 0.411312L2.74512 1.40822Z" fill="#FE613E"/>
</svg>
