<svg width="86" height="98" viewBox="0 0 86 98" fill="none" xmlns="http://www.w3.org/2000/svg">
<path d="M62.1825 4H64.154C64.1693 4.01938 64.2941 4.17742 64.2941 4.17742C68.4815 4.67172 69.3469 8.32054 68.9218 11.9091C68.7233 13.5802 67.8499 15.6248 67.2627 17.2155C66.988 17.897 66.5458 18.6413 66.2267 19.4655L63.6851 26.0494C63.4433 26.6866 63.2532 27.3435 63.0041 27.9791C62.8257 28.4334 62.473 28.6877 62.3098 29.1485C62.0692 29.8247 61.8938 30.4583 61.6873 31.1539C61.5661 31.5607 61.3024 32.1783 61.2427 32.5971C61.1855 32.9971 62.7508 33.5613 62.9572 33.8738C62.9658 33.881 62.9743 33.8881 62.9828 33.8951C64.3222 33.9948 65.5835 34.424 66.8881 34.7177C67.8456 34.9332 68.8 34.9896 69.7672 35.273C71.5146 35.7854 73.1359 36.5538 74.8565 37.1604C75.3261 37.326 76.2751 37.5243 76.5552 37.6899C76.6594 37.8443 76.766 38.1379 76.9651 38.1322C79.7376 38.0526 82.8883 38.0216 84.9061 40.2649C85.1083 40.4893 85.302 40.7413 85.492 40.974L85.5073 41.0586C85.6017 41.5898 85.461 42.5162 85.7186 42.7604L86 42.7814V43.7683C85.8063 43.7869 85.7436 43.7607 85.6047 43.8655C85.313 46.6674 85.2533 46.0793 83.4474 48.3393C82.3791 49.6762 81.4661 50.4069 80.1585 51.5151C79.634 52.0107 79.2644 52.6677 78.7698 53.1752C77.6802 54.2222 76.5796 55.8744 75.4437 56.7861C74.6397 57.4317 73.2413 58.5165 72.3673 59.0415C71.0024 59.6374 70.1089 60.7532 68.9468 61.5257C67.8578 62.2491 67.0952 62.7537 66.0287 63.5812C64.2868 64.9325 62.3604 68.2201 60.704 69.289C58.0627 70.9939 55.5751 72.9378 52.59 73.8573C51.4119 74.475 50.1895 75.45 49.052 76.114C47.3245 77.1226 46.1295 78.5061 44.6872 79.7653C42.6466 81.547 40.4371 83.1457 38.1479 84.5768C36.7678 85.4396 35.4935 86.5262 34.0761 87.3537C32.6154 88.1555 31.2608 88.9616 29.9348 89.9738C29.468 90.3305 28.6259 90.6659 28.1177 91.0073C26.4252 92.1451 24.709 93.0823 22.7343 93.6323C22.4645 93.7073 21.8626 93.8299 21.6763 94H16.6447C15.8246 93.4616 15.0985 93.2421 14.3565 92.3012C13.6252 91.3738 13.925 88.7488 14.0948 87.6323C14.3367 86.5018 15.1756 85.4793 15.6553 84.4805C16.8944 81.8994 18.167 79.45 18.8936 76.664C18.9649 76.3909 19.0477 74.9811 19.1299 74.8561C19.9395 73.6232 19.9519 72.1707 20.5884 70.8524C21.1985 69.6665 22.051 68.5902 22.795 67.4976C23.4524 66.5323 24.2088 65.7878 24.3024 64.5387C24.327 64.228 24.4428 63.4216 24.2496 63.1677C23.8534 63.1168 23.1901 62.7426 22.7779 62.5632C21.6283 62.063 20.5023 61.7061 19.2582 61.5232C18.7211 61.4442 17.8268 61.5165 17.3361 61.398C16.0378 61.0843 14.7355 60.9439 13.4459 60.6228C12.839 60.4465 12.1586 59.9452 11.5781 59.7648C9.85699 59.2302 8.30734 58.3832 6.66756 57.706C5.24758 57.1196 3.35648 57.0298 1.97733 56.3152C1.13551 55.879 0.543329 54.9077 0 54.1701V53.1233C0.585667 52.8856 0.287946 52.3405 0.62942 51.7812C1.40221 50.5155 2.0388 49.6216 3.09537 48.594C3.13437 48.3865 3.12152 48.0208 3.18338 47.7165C3.34013 46.9456 3.50389 46.1309 3.72428 45.3781C4.27554 45.2287 5.03015 44.6651 5.60856 44.4005C6.2554 44.1045 7.25451 43.8089 7.7805 43.3924C8.94711 42.4685 9.80242 41.1851 10.9393 40.203C11.5886 39.6421 12.2118 39.2191 12.9162 38.732C13.3185 38.4681 13.805 37.8211 14.1835 37.5878C15.2565 36.9267 16.1043 36.028 17.0571 35.2803C18.4542 34.1887 19.8951 33.1544 21.3761 32.1801C22.0811 31.7072 22.8845 31.2392 23.5552 30.7414C24.3616 30.1429 24.8705 29.2859 25.7402 28.6896C26.3981 28.2387 27.4822 28.2729 27.9728 27.8715C28.6779 27.2946 29.4069 26.4334 30.0499 25.7826C31.0715 24.6959 32.1549 23.6566 33.2521 22.6471C33.5877 22.3384 34.0174 22.0755 34.3712 21.7849C35.1354 21.1572 35.9311 20.5893 36.735 20.0157C37.3341 19.5882 37.8828 19.065 38.4993 18.652C39.0011 18.3157 39.5406 18.0752 40.0564 17.7641C40.4312 17.5227 40.9376 17.016 41.3072 16.712C41.711 16.3799 42.1428 16.033 42.5411 15.6922C42.8865 15.3512 43.0632 14.7812 43.3827 14.4322C43.6431 14.1479 44.3615 14.2164 44.7319 14.209C45.2143 14.1995 45.7184 14.1941 46.2103 14.1824C47.1078 13.4882 48.0004 13.1143 48.8009 12.2468C49.2182 11.7945 49.686 11.3605 50.0957 10.8818C50.4682 10.4467 50.918 9.55393 51.3145 9.2322C51.7196 8.90165 53.233 9.22422 53.586 8.96504C54.5364 8.30305 55.7236 7.71257 56.7901 7.26345C58.2815 6.63541 59.232 5.89704 60.4582 4.87554C60.806 4.58585 61.7202 4.23907 62.1825 4Z" fill="#FDC31C"/>
</svg>
