<svg width="587" height="423" viewBox="0 0 587 423" fill="none" xmlns="http://www.w3.org/2000/svg">
<g clip-path="url(#clip0_104_63)">
<path d="M256.498 0H273.622C275.606 1.70325 292.27 4.18045 295.354 3.6662C304.521 2.13639 313.991 3.55647 323.099 2.91033C331.016 2.02086 338.841 1.77229 346.84 1.94767C353.997 2.10463 362.986 1.36682 369.959 3.01069C377.721 4.83934 396.214 11.8313 402.353 16.2461C412.092 23.2498 409.195 46.6008 418.266 54.3948C421.324 57.3019 436.32 60.401 440.625 59.886C446.794 59.2292 452.494 56.8826 458.794 57.0053C467.809 57.3391 477.548 60.0757 486.519 59.9284C496.327 59.7671 508.606 56.3157 518.435 58.1714C534.995 61.298 551.104 66.2912 563.97 77.558C577.289 89.2206 583.231 102.683 583.93 120.29C584.117 125.874 584.326 131.737 583.97 137.309C583.649 142.317 582.953 146.868 583.022 151.946C582.815 159 584.787 166.208 584.988 173.152C585.547 192.361 584.157 211.821 585.704 230.968C585.859 232.889 585.888 238.211 587 239.463V257.586C586.111 258.888 585.937 261.262 585.521 262.857C582.887 272.981 584.552 281.266 586.381 291.24C586.481 291.781 586.665 292.005 587 292.432V307.503C586.96 307.558 586.914 307.609 586.877 307.664C585.315 309.81 586.306 332.657 586.037 337.168C585.722 342.461 585.254 348.651 584.498 353.847C583.755 358.945 582.635 364.012 581.686 369.076C580.944 373.045 580.448 377.112 579.207 380.961C578.172 384.171 576.621 387.36 574.813 390.203C570.138 397.554 563.6 402.558 556.343 407.172C549.837 411.304 542.141 415.494 534.465 416.815C526.884 418.122 518.618 416.79 510.914 417.263C505.167 417.615 499.626 419.289 493.917 419.908C487.095 420.65 480.03 420.048 473.168 420.148C470.07 420.194 466.98 420.942 463.896 420.939C461.434 420.934 458.969 420.232 456.496 420.148C450.325 419.936 444.111 420.432 437.946 420.117C431.537 419.787 425.162 418.598 418.751 418.223C412.737 417.87 406.947 418.624 400.974 418.968C397.463 419.168 393.82 418.999 390.341 419.501C387.251 419.948 384.267 420.822 381.229 421.507C379.211 421.963 376.279 421.854 374.579 423H369.506C367.574 421.355 360.558 422.163 357.709 422.028C353.106 421.696 347.118 422.587 342.676 421.968C334.16 420.785 326.181 420.361 317.656 419.968C311.895 419.635 302.233 418.165 296.598 419.552C286.347 422.074 277.416 422.464 266.873 422.08C263.804 421.971 259.292 422.384 256.306 422.026C241.628 420.266 226.752 421.487 211.993 421.074C203.182 420.659 193.676 419.994 184.804 419.561C178.689 419.266 172.367 417.755 166.34 417.346C159.256 416.867 152.152 417.581 145.058 416.437C144.068 416.429 142.504 416.131 141.559 416.219C129.714 417.326 118.624 418.251 106.718 418.188C95.9521 418.131 85.8774 417.853 75.1546 416.815C65.6147 415.893 58.696 411.729 49.9962 408.41C43.1164 406.074 34.8818 405.429 28.269 401.111C22.7854 397.809 19.7053 392.115 16.4697 387.025C9.20951 375.602 5.16758 364.382 2.90316 351.104C2.58978 349.267 1.9326 346.883 1.59949 344.963C1.27567 343.097 1.10166 337.546 0 336.397V329.393C1.01365 328.063 2.30516 317.783 2.71459 315.665C3.5165 311.518 2.3348 293.323 0 290.469V266.393C0.308479 266.112 0.734057 265.653 0.755934 265.224C0.990855 260.611 0.861572 255.772 0.921857 251.152C0.974965 247.082 1.87878 242.781 1.91167 238.847C1.96337 232.663 2.02962 226.307 1.84612 220.136C1.74035 216.579 1.06277 212.751 0.954488 209.066C0.813614 204.271 1.09255 199.316 0.707435 194.568C0.677016 194.193 0.256356 193.735 0 193.371V148.49C1.49151 146.857 0.666471 142.358 1.10953 140.079C2.25884 134.168 1.60449 128.194 2.25834 122.264C4.11949 105.386 6.39764 89.9041 18.5259 77.0554C29.5931 65.3309 46.4002 62.0305 61.8414 60.6939C64.4479 60.4684 66.859 59.9654 69.4976 59.8353C70.3939 59.1744 71.1783 58.3525 71.9786 57.5716C71.753 48.8109 71.6848 41.8627 78.8013 35.5168C80.6125 33.7795 82.3348 32.5541 84.8659 32.0463C93.2072 30.3726 102.494 30.9389 110.991 30.9312C121.195 31.0306 130.983 30.5242 141.134 31.6751C156.494 33.4167 160.762 42.3679 160.047 56.6628C161.943 57.5177 166.429 59.3951 168.429 59.6155C172.765 60.0938 188.312 59.0435 191.465 57.0285C195.68 53.2034 195.609 43.2824 196.309 38.1368C198.546 21.2611 219.467 6.81801 235.303 3.85678C239.012 3.16307 253.853 1.95822 256.498 0ZM286.586 375.96C289.565 375.94 292.503 375.954 295.466 376.287C301.03 376.908 306.791 378.181 312.394 377.874C339.99 376.364 368.431 364.992 391.287 349.78C395.758 346.806 400.602 343.828 404.379 339.973C409.358 334.892 412.989 328.381 417.22 322.698C419.596 319.508 422.156 316.476 424.434 313.209C432.741 301.284 439.178 287.422 441.417 272.96C442.42 266.477 442.463 259.832 443.517 253.399C444.638 246.548 447.98 239.641 447.857 232.666C447.728 225.354 444.062 218.498 442.064 211.611C440.015 204.543 439.161 197.194 436.96 190.151C432.497 175.876 417.899 153.841 407.051 143.586C402.356 139.147 396.79 135.987 391.418 132.458C388.111 130.287 384.941 127.904 381.602 125.783C374.511 121.238 367.013 117.365 359.202 114.217C356.643 113.161 353.097 111.714 350.42 111.04C340.007 108.413 331.363 100.881 320.488 100.147C314.34 100.454 309.052 101.804 302.996 102.117C295.61 102.499 287.157 101.835 279.86 102.201C269.15 102.738 255.578 105.514 245.853 110.159C239.982 112.962 234.579 116.581 228.879 119.668C225.712 121.383 222.433 122.809 219.28 124.573C211.168 129.184 203.853 135.073 197.615 142.011C194.153 145.843 190.614 150.07 188.063 154.509C185.945 158.194 184.133 164.03 181.721 167.167C172.129 179.644 164.586 185.359 162.178 202.063C160.944 210.621 157.342 221.166 157.286 230.273C156.488 239.999 157.687 249.198 158.91 258.797C159.819 265.927 159.903 273.355 161.697 280.333C163.384 286.78 169.39 293.122 172.99 298.96C177.348 306.027 179.463 314.86 183.429 321.546C185.053 324.309 187.105 326.799 189.509 328.917C193.345 332.344 197.742 334.735 201.734 338.24C207.347 343.163 214.82 352.265 220.557 356.455C226.178 360.559 239.003 363.691 245.414 366.388C251.673 369.022 258.625 372.825 265.24 374.495C271.944 376.189 279.683 376.003 286.586 375.96ZM299.167 66.2568C301.646 66.8644 304.222 67.5814 306.776 67.7345C311.225 68.001 328.537 66.28 331.904 64.2266C334.719 62.51 336.06 59.7264 336.797 56.6149C338.345 50.0753 338.376 44.5296 335.771 38.2743C325.186 36.4794 314.441 35.7977 303.709 36.2396C296.759 36.6889 289.871 37.7576 282.913 38.213C279.075 38.4643 274.971 37.5888 271.175 37.8468C265.052 38.2629 263.906 40.3317 264.012 46.33C264.114 52.0769 264.149 58.7586 267.039 64.0209C272.681 63.9902 277.636 63.3056 283.108 63.0173C287.429 62.7894 294.755 65.1414 299.167 66.2568ZM83.6117 136.98C90.9649 136.959 99.3165 134.775 104.66 129.455C112.717 121.434 109.92 108.168 102.501 100.787C98.7977 97.1175 94.5036 95.9456 89.4115 96.1279C80.4694 96.6887 73.8058 98.6493 67.3726 105.316C59.9614 112.995 62.416 126.121 70.0826 132.616C73.8379 135.798 78.754 137.045 83.6117 136.98Z" fill="#E1B3EC"/>
<path d="M302.557 125.066C303.454 125.011 304.351 124.975 305.249 124.958C321.033 124.725 331.325 124.32 345.719 132.441C350.629 135.065 355.513 138.984 360.254 141.747C374.863 150.262 387.414 160.12 397.724 173.556C399.963 176.47 403.087 179.532 405.537 182.545C414.738 193.856 419.464 207.535 421.929 221.745C422.462 224.814 424.039 235.869 423.953 239.039C423.635 250.542 419.117 263.044 415.655 273.853C412.631 283.292 410.891 291.05 406.274 300.032C403.284 305.815 399.444 311.12 394.881 315.765C387.879 322.858 371.596 334.852 362.862 339.093C347.161 346.72 324.3 353.102 306.925 353.185C291.892 353.202 276.859 353.259 262.279 348.986C257.238 347.508 252.324 345.473 247.465 343.487C239.575 340.26 231.453 336.17 224.734 330.871C217.439 325.117 212.254 317.66 207.214 309.965C196.127 293.036 187.772 276.645 185.368 256.244C183.933 244.068 184.969 211.769 188.951 200.607C192.643 190.259 199.514 180.37 206.279 171.827C209.038 168.342 212.001 164.651 215.14 161.508C223.172 153.467 243.156 138.061 253.015 132.944C256.274 131.287 259.725 130.037 263.289 129.224C275.052 126.415 290.066 126.505 302.557 125.066ZM360.968 212.888C371.349 211.182 381.292 199.042 379.724 188.292C378.681 181.135 371.862 173.384 366.032 169.207C355.714 162.402 346.588 161.438 334.561 162.311C329.19 163.015 322.133 165.586 318.769 170.071C306.28 186.722 328.723 203.532 342.151 210.081C349.016 213.428 353.622 213.076 360.968 212.888Z" fill="#E1B3EC"/>
</g>
<defs>
<clipPath id="clip0_104_63">
<rect width="587" height="423" fill="white"/>
</clipPath>
</defs>
</svg>
