<svg width="188" height="116" viewBox="0 0 188 116" fill="none" xmlns="http://www.w3.org/2000/svg">
<g clip-path="url(#clip0_100_55)">
<path d="M77.5126 0H81.1941C84.1604 1.51586 88.5428 0.383416 91.7725 0.188463C93.0984 0.108435 98.9512 0.43968 99.7045 0H118.923C119.63 0.438191 120.205 0.521237 120.882 0.781289C123.866 1.99065 126.503 0.494316 129.504 0.74726C131.056 0.878083 132.663 1.48842 134.162 1.68066C137.057 2.05172 139.556 3.21014 142.35 3.83207C144.26 4.18136 146.313 4.03574 148.214 4.38437C149.422 4.60625 150.905 5.05521 152.055 5.49073C154.372 6.36817 157.063 6.70781 159.366 7.44524C163.523 8.77607 167.973 10.5161 171.63 12.9101C172.798 13.7024 174.587 16.0261 175.722 17.0838C176.897 18.1789 179.242 19.7408 179.99 21.0454C181.675 23.9794 183.024 27.6342 184.131 30.82C184.955 33.1913 186.36 35.2784 186.868 37.7675C187.136 39.086 187.471 40.2595 187.594 41.608V55.195C187.213 56.0594 186.882 56.9439 186.506 57.812C184.691 61.9946 183.849 66.589 181.88 70.7252C180.619 73.3768 177.759 74.8962 176.087 77.245C174.885 78.9412 173.361 80.4091 171.876 81.8501C171.11 82.5807 170.403 83.45 169.6 84.1481C167.44 85.876 164.803 87.0523 162.243 88.0631C160.94 88.5248 159.618 88.8221 158.309 89.2822C155.508 90.2668 152.856 91.4493 149.958 92.1545C148.871 92.4583 147.747 92.4902 146.649 92.7598C144.105 93.3851 141.587 94.6361 139.027 95.1075C135.26 95.801 131.418 96.3795 127.614 96.8347C125.326 97.1088 123.066 96.3755 120.8 96.5392C118.432 96.8676 116.264 98.0539 113.854 98.194C112.754 98.2581 111.577 97.7956 110.516 97.8008C105.323 97.8265 100.119 97.1833 94.9369 97.5996C93.4047 97.7227 91.9088 98.1418 90.372 98.1269C89.4158 98.0736 88.4792 97.8109 87.5239 97.7553C84.9509 97.5996 82.3145 97.8889 79.7557 97.6497C78.1023 97.4952 76.3331 97.0906 74.7001 96.762C72.5198 96.3234 71.5256 95.9377 69.3089 96.4009C65.5137 100.1 59.7661 103.47 55.3457 106.428C53.9982 107.33 51.3941 107.476 49.8718 108.036C47.7572 108.801 45.6867 110.505 43.5631 111.402C41.7909 112.15 39.7037 112.219 37.8989 112.798C34.4312 113.91 31.0801 115.583 27.359 115.721C23.4269 115.867 24.2002 111.858 25.2558 109.461C26.0626 107.628 27.9137 106.473 28.8677 104.744C29.4821 103.727 29.6887 101.796 30.2089 100.953C32.0601 97.9521 33.5606 94.1227 35.4701 91.2434C31.3448 89.4914 27.2164 88.2827 23.0319 86.6938C21.6238 86.1591 20.0447 86.047 18.664 85.4094C17.3594 84.8573 14.0171 83.0711 13.0865 82.0817C11.7221 80.6314 10.4368 78.293 9.03296 76.5419C7.0043 74.0114 3.65851 69.6736 2.49659 66.7888C1.48408 64.2748 1.26473 61.4706 0 58.7786V53.2678C1.26407 50.6428 1.18876 44.0976 1.82938 41.0213C2.49816 37.8098 3.47131 36.1093 4.73542 33.143C5.48824 31.3764 5.61823 28.9221 6.64095 27.1642C9.63233 22.1493 14.7015 16.9848 19.7662 14.0683C21.2067 13.2388 23.3952 12.8893 24.7602 12.3025C26.9537 11.3106 29.2446 10.3737 31.4464 9.42809C33.907 8.37136 35.791 6.44936 38.6325 6.16154C39.98 5.83158 42.7416 6.33605 43.9306 5.8974C47.7266 4.49695 51.4384 3.33509 55.4775 2.81652C56.9305 2.62997 58.429 2.77207 59.8605 2.62293C64.2694 2.16357 68.644 1.96081 72.9878 0.973898C74.5281 0.6271 75.9491 0.50093 77.5126 0ZM85.3188 47.3914C86.6483 51.8966 86.4055 53.5249 91.7859 54.5506C92.9083 54.6817 95.3186 54.8791 96.2843 55.2602C98.6623 54.5161 99.835 54.3611 101.143 51.9299C102.303 49.7513 102.941 46.6997 102.36 44.2607C102.034 42.8871 99.7998 40.7758 98.5209 40.1596C98.0058 39.9114 97.3734 39.5516 96.8012 39.6645C93.2546 40.6561 88.561 40.2146 86.4735 43.9481C85.8015 45.1501 85.7452 46.1892 85.3188 47.3914ZM128.547 54.9897C133.661 53.5001 137.035 51.8775 135.416 45.6184C134.915 43.6801 132.53 41.1231 130.474 40.7159C129.539 40.531 126.912 40.6092 125.913 40.7127C123.999 40.9072 121.343 41.3017 120.011 42.9441C118.898 44.8844 119.048 48.1689 119.207 50.265C119.349 52.1269 120.632 53.4198 121.947 54.4237C124.364 56.2678 125.874 55.9117 128.547 54.9897ZM62.7768 55.2175C64.2514 55.0801 66.3244 54.7392 67.1852 53.4404C68.1787 51.9272 69.4698 49.9933 70.1025 48.3318C70.6609 46.8651 70.1914 44.0863 68.8071 43.211C66.5169 41.7628 63.2704 40.0006 60.5178 40.2638C59.4614 40.3252 58.0129 40.8761 57.074 41.3913C52.6572 43.8149 51.6318 49.4723 55.604 52.9005C57.2924 54.3577 60.5811 55.4289 62.7768 55.2175Z" fill="#E1B3EC"/>
</g>
<defs>
<clipPath id="clip0_100_55">
<rect width="187.594" height="116" fill="white"/>
</clipPath>
</defs>
</svg>
