<svg width="328" height="305" viewBox="0 0 328 305" fill="none" xmlns="http://www.w3.org/2000/svg">
<path d="M23.733 85.1134C24.3902 85.1764 25.5211 85.2544 26.1181 85.5236C29.8025 87.1837 33.3553 89.1466 37.0508 90.8114C37.2475 90.9001 37.644 90.5317 37.756 90.4333C38.9085 90.7225 40.3272 91.9025 41.5479 92.2531C43.3393 92.7678 45.1618 92.8433 46.996 93.1761C47.8452 93.3302 48.8577 94.1985 49.312 94.3463C50.4332 94.5689 51.5703 94.7192 52.698 94.9136C53.8555 95.1133 55.2737 95.792 56.3745 95.9544C59.0837 96.3545 61.2188 97.1128 63.7922 97.9325C66.661 98.846 69.5529 99.7406 72.3898 100.778C76.5274 102.434 80.5618 104.586 84.7727 106.293L113.493 117.824C115.833 118.761 118.025 119.911 120.355 120.911C122.753 121.94 125.427 122.253 127.815 123.139C130.61 124.175 133.454 125.891 136.247 127.052C137.923 127.748 139.581 129.301 141.419 129.702C141.96 129.846 142.696 130.027 143.154 130.307L143.525 131.112L143.779 131.181C144.432 130.547 144.491 130.241 145.385 130.256C147.25 130.287 147.572 130.582 149.075 131.394C150.346 131.941 152.121 131.983 153.391 132.408C156.019 133.287 158.628 133.996 161.276 134.749C163.386 135.35 167.15 135.627 168.68 137.063C170.922 137.321 173.822 137.473 175.49 139.028C178.859 139.319 180.895 139.866 184.129 140.785C184.963 141.022 187.819 141.324 188.788 141.429C188.12 145.759 187.767 150.042 187.346 154.399L185.673 171.755L184.968 179.099C184.863 180.212 184.807 181.493 184.628 182.583C184.462 183.599 183.537 183.693 183.32 184.97C182.959 187.087 182.728 189.171 182.519 191.306L181.631 200.454C180.943 207.575 179.833 216.49 179.639 223.532C179.823 223.727 180.233 224.151 180.26 224.429C180.523 227.099 180.394 229.937 180.536 232.626C180.582 233.48 179.79 235.019 179.744 235.892C179.653 237.59 180.025 239.434 179.862 241.091C178.729 252.626 177.583 264.16 176.507 275.7C176.36 277.27 176.196 279.352 176.314 280.914C176.359 281.519 177.091 281.68 177.052 282.526C176.9 285.847 176.456 289.381 176.102 292.695L174.854 292.575L174.888 291.839C174.386 291.051 171.319 291.036 170.122 290.675C167.126 289.768 163.998 288.936 161.114 287.712C157.777 286.296 154.598 285.186 151.057 284.403C149.913 284.138 148.416 283.333 147.303 283.161C143.455 282.615 139.917 282.355 136.248 280.896C134.348 280.141 134.097 279.515 132.055 279.345C131.158 279.148 129.026 279.12 128.281 278.785C124.787 277.215 122.247 276.461 118.511 275.759C117.053 275.479 115.621 275.079 114.227 274.566C111.725 273.672 109.775 272.528 108.605 270.06C105.886 269.844 102.18 269.51 99.4399 269.01C99.1922 268.965 98.6594 268.313 98.6 268.281C97.3484 267.642 95.6701 267.393 94.313 266.906C90.3189 265.478 86.2459 264.391 82.1961 263.167C80.1408 262.545 78.97 261.474 76.6377 261.094L75.72 259.53C75.6008 260.42 75.523 261.402 75.4341 262.304C74.2448 262.301 72.9831 262.23 71.7892 262.183C71.8062 261.052 71.966 259.743 72.0769 258.602C67.1828 258.234 62.9622 256.82 58.3989 255.047C56.7404 254.403 54.9896 253.033 53.2562 252.35L21.3501 239.594C18.1224 238.271 14.8234 236.82 11.6098 235.464C10.9732 235.196 9.28848 235.166 8.54066 235.138C8.68535 232.147 9.18447 229.16 9.26874 226.096C9.32557 224.032 8.50243 224.103 8.5127 222.411C8.52888 219.709 9.38975 215.864 8.96317 213.204C8.67598 212.537 8.41976 211.671 8.40372 210.934C8.37443 209.598 8.59728 208.168 8.71056 206.837C8.99943 203.442 9.43575 200.045 9.65776 196.647C9.76677 194.978 9.35253 193.159 9.49357 191.476C9.63997 189.932 10.4937 188.213 10.6554 186.593C11.3108 180.023 11.9573 173.44 12.561 166.866C12.7334 164.99 12.427 162.365 12.4621 160.413C12.4876 159.003 12.6001 157.75 12.7314 156.356L14.0206 143.117C14.1466 141.852 14.6369 137.77 14.525 136.691C14.1451 136.312 14.1324 136.436 13.4307 136.372L13.7589 132.966C14.8832 132.709 15.1508 132.237 15.8525 131.349L15.8782 131.121C16.0574 129.387 15.6168 127.823 15.6976 126.127C15.7665 124.679 16.49 123.143 16.7759 121.757C17.8287 116.652 17.5474 111.504 17.5675 106.339C17.5752 104.35 18.7711 101.824 19.0076 99.8106C19.8617 95.1287 18.7216 87.7614 23.733 85.1134Z" fill="#E1B3EC"/>
<path d="M149.254 11.824L153.342 12.218C153.28 12.872 153.195 12.755 153.434 13.2709C154.807 13.6318 157.159 13.9532 158.323 14.4005C161.541 15.4492 165.179 17.6735 168.325 18.6656C177.664 21.6105 186.664 25.82 195.992 28.6858C205.683 31.6632 214.512 35.9593 224.058 39.2883C226.704 40.2111 229.463 41.6699 232.151 42.5471C241.71 45.3059 251.214 48.5095 260.534 52.0132C261.943 52.543 263.59 52.5738 265.134 53.1503C267.249 53.94 269.301 54.7464 271.37 55.6608C272.378 56.0833 275.014 56.1244 276.108 56.5955C278.272 57.5264 280.305 59.5339 282.454 60.5589C283.577 61.0946 285.077 61.6456 286.258 62.1258C287.533 62.6439 289.295 63.6424 290.476 64.0592C294.64 65.5288 298.656 67.2437 302.807 68.7367C305.329 69.6433 306.619 70.6468 309.313 71.1309C309.161 72.4588 309.018 76.5062 307.932 77.1097C299.51 81.7869 289.911 84.8523 281.37 89.2644C271.652 94.2833 261.613 98.5109 252.183 104.038C250.377 105.009 248.256 105.765 246.486 106.768C238.883 111.075 230.877 114.505 223.177 118.634C220.459 120.091 217.206 120.768 214.36 121.863C211.6 122.924 209.071 124.725 206.331 125.861C203.445 126.94 200.582 127.884 197.707 129.021C194.902 130.129 190.234 134.821 187.808 131.059C186.335 130.874 184.85 130.717 183.405 130.365C182.207 130.073 181.058 129.547 179.842 129.319C178.16 129.004 176.438 128.934 174.773 128.519C173.953 128.315 173.287 127.75 172.472 127.54C167.46 126.413 162.406 125.602 157.964 122.869C156.28 122.205 154.51 121.685 152.776 121.149C150.066 120.311 147.066 120.732 144.343 119.886C142.789 119.402 141.636 118.246 140.154 117.615C137.709 116.572 135.103 115.984 132.642 114.98C130.863 114.489 128.727 113.13 127.041 112.671C124.802 112.06 121.997 111.305 119.749 110.815C117.681 110.364 115.455 110.492 113.406 109.881C112.396 109.58 111.488 109.227 110.485 108.926C108.059 108.224 105.878 107.666 103.621 106.479C100.627 104.904 97.4072 103.641 94.1568 102.714C93.3218 102.476 92.3767 102.38 91.5313 102.15C85.7141 100.235 79.8994 98.2438 74.025 96.5842C73.8039 96.4211 73.6144 96.1131 73.3294 96.0442C71.6767 95.6438 70.0187 95.2636 68.386 94.7846C66.8669 94.2894 64.9587 94.0811 63.4958 93.4944C58.8443 91.6287 54.0925 90.1197 49.3851 88.4192C48.2007 87.9911 46.7993 87.0357 45.5803 86.5027L31.6776 80.524C30.5373 80.0409 29.6443 79.2724 28.5297 78.928C27.3864 78.5746 25.8927 78.5385 24.7001 78.4939C24.7816 77.2934 24.9151 73.6946 25.5964 72.8593C28.1519 69.727 35.1136 68.5548 38.8379 66.5996C41.1837 65.3681 42.1643 63.9638 43.9842 62.8958C49.5729 59.6484 55.0057 55.8721 60.7318 52.9363C61.2471 52.6722 63.3249 52.9319 63.9941 53.0005C64.0495 51.9601 64.1596 50.8618 64.2467 49.8187C67.9615 49.4806 71.5049 47.1223 74.8354 45.5841C77.1662 44.5076 79.8392 43.8571 82.1853 42.8692C85.4467 41.4961 89.8994 38.2442 93.5351 38.4796C96.68 34.0848 98.4649 34.2214 102.92 31.8907C108.59 28.9238 114.169 26.4977 120.165 24.237C122.096 23.5089 124.137 22.2485 126.078 21.5048C129.97 20.0144 133.668 18.1773 137.483 16.52C139.429 15.6165 148.3 12.7395 149.254 11.824Z" fill="#E1B3EC"/>
<path d="M193.945 164.395C192.42 162.901 193.641 158.465 193.453 156.377C193.413 155.928 193.003 154.743 193.002 154.689C192.876 150.98 193.463 146.778 193.893 143.072C193.973 142.395 194.418 141.28 194.69 140.78C195.07 140.081 196.327 139.374 197.026 139.018C198.99 138.019 201.425 137.468 203.402 136.533C206.886 134.886 210.129 133.218 213.652 131.602C219.394 128.969 225.083 125.862 230.788 123.105C232.89 122.089 235.334 121.525 237.407 120.434C239.02 119.585 240.592 118.474 242.205 117.62C245.471 115.893 249.087 114.211 252.297 112.403C259.12 108.558 266.021 104.953 272.914 101.244C274.442 100.422 277.469 99.918 279.143 99.0159C280.271 98.4076 281.192 97.2541 282.256 96.6799C283.298 96.1168 284.809 95.831 285.895 95.2951C287.904 94.3037 289.887 93.2414 291.918 92.2919C295.04 90.8315 298.247 89.5487 301.429 88.2251C304.117 87.107 306.862 85.8736 309.701 85.2356C310.633 85.0254 311.415 84.7639 312.228 85.2694C312.912 86.1618 312.616 88.2795 312.582 89.5198C313.937 91.5584 313.303 94.0514 312.117 96.0374C311.58 96.9356 311.633 97.568 311.585 98.5807C311.734 98.7323 312.275 99.304 312.288 99.4539C312.658 103.905 311.352 109.47 311.277 113.908C311.212 117.691 311.629 120.252 311.178 124.006C311.087 124.758 310.585 125.546 310.273 126.206L310.366 126.395C310.406 126.481 310.441 126.57 310.487 126.654C310.979 127.557 310.403 133.031 310.429 134.574C310.489 134.647 311.018 135.284 311.018 135.284C311.144 136.136 311.057 137.855 310.977 138.699C310.73 141.314 311.217 143.355 311.309 145.926C311.345 146.92 310.943 149.727 311.043 150.644C311.597 151.434 311.856 151.773 311.824 152.764C311.746 155.16 311.553 157.542 311.466 159.942L312.117 160.862C312.256 164.656 311.967 168.789 312.111 172.661C312.187 174.706 311.514 177.45 311.51 179.72C311.909 180.071 311.979 179.97 312.619 180.062L308.309 224.788C308.074 224.755 307.753 224.678 307.52 224.707C306.601 224.82 306.866 231.852 305.335 233.083C304.36 233.869 302.699 234.29 301.594 234.986C300.582 235.622 299.64 236.362 298.624 236.992C297.49 237.697 296.231 238.198 295.056 238.832C293.588 239.624 292.2 240.571 290.71 241.323C289.074 242.147 287.321 242.766 285.656 243.536C281.779 245.33 277.918 247.163 274.02 248.912C271.574 250.011 269.031 250.846 266.628 252.049C264.467 253.132 262.54 254.79 260.458 256.033C254.766 259.508 248.987 262.835 243.123 266.007C235.811 269.888 228.303 273.386 220.627 276.485C217.052 277.936 213.739 278.266 210.329 280.539C208.168 281.98 205.408 283.655 203.045 284.624C199.765 286.121 195.953 287.674 192.778 289.274C188.001 291.682 187.338 292.566 181.824 292.155C181.991 290.237 181.903 286.772 183.138 285.219C184.395 283.635 184.923 272.812 185.236 270.12C185.503 267.846 186.405 265.712 186.676 263.462C187.281 258.403 187.67 253.292 188.156 248.218C188.558 244.021 189.086 239.794 189.334 235.587C189.486 233.02 189.118 230.438 189.303 227.874C189.778 221.245 190.805 214.631 191.174 207.999C191.326 205.269 190.546 202.648 190.736 199.921C191.011 195.977 191.469 192.029 191.847 188.093C192.095 185.525 192.214 182.852 192.62 180.308C192.764 179.401 193.726 178.722 193.834 177.932C193.953 177.078 193.163 175.87 193.175 174.909C193.217 171.427 193.8 167.895 193.945 164.395Z" fill="#E1B3EC"/>
</svg>
