<svg width="112" height="98" viewBox="0 0 112 98" fill="none" xmlns="http://www.w3.org/2000/svg">
<path d="M92.998 6H101.45C101.771 6.3158 102.479 6.46863 102.98 6.79221C103.675 7.24157 104.39 8.13018 105 8.53844V17.0406C104.728 17.0844 104.76 17.0352 104.598 17.1929C104.465 17.5458 104.575 18.0515 104.492 18.4415C104.252 19.5597 104.169 20.8588 103.848 21.9481C102.814 25.4616 102.318 29.1256 101.034 32.5583C100.722 33.3916 100.219 34.1649 99.8447 34.9698C99.241 36.4283 98.477 37.5678 97.3542 38.6705C97.0989 38.9211 96.7783 39.846 96.4825 40.0264C95.3174 40.7367 94.4094 41.5841 93.4191 42.5051C92.7609 43.1168 91.8281 43.5313 91.1645 44.157C90.5402 44.6266 89.8505 45.4066 89.2383 45.8138C88.0908 46.5763 87.1773 47.4386 86.1181 48.2813C84.518 49.5666 82.7661 50.6494 80.9029 51.5054C79.2683 52.2435 78.1655 52.4747 76.3828 52.6456C75.8256 52.699 74.9993 52.9593 74.4397 52.9847C72.9165 53.0538 71.3933 53.0084 69.8561 53.0168C68.9542 53.0217 67.6584 53.1193 66.801 52.8776C66.6821 52.8441 66.4016 52.6182 66.2922 52.5303C65.2574 52.7814 65.1867 52.858 65.1109 53.9537C65.0386 54.9997 64.8117 56.0191 64.6862 57.0561C64.6109 57.8155 64.6043 58.62 64.5388 59.3768C64.4988 59.8385 64.0666 60.5741 64.278 60.9971C64.7332 61.8853 64.5694 62.9547 64.7155 63.9209C64.8064 64.5221 64.9675 65.0829 65.0404 65.6913C65.1664 66.7424 64.4902 67.0904 63.5961 67.3424C64.0583 68.7976 64.1826 69.7439 64.3355 71.2489C64.4757 72.0736 64.8622 73.0089 64.9691 73.827C65.1009 74.8352 65.4128 75.8817 65.5597 76.8607C65.6917 77.7402 66.14 78.2825 66.2656 78.8589C67.0468 82.4447 69.2385 85.6745 68.5458 89.4619C68.5107 89.6526 67.3965 90.1871 67.1725 90.2745C66.3542 90.5952 65.9325 90.6566 65.2245 90.0936C64.6749 90.7185 64.1069 91.3489 63.5909 92H58.1953C57.6091 91.4601 57.0626 91.8445 56.5403 91.6192C55.6829 91.2493 54.3014 90.5934 53.6198 89.9696C53.0039 87.9782 54.1691 85.8172 54.3687 83.816C54.4746 82.755 54.3421 81.6023 54.4942 80.5801C54.8634 80.3183 55.1275 80.1489 55.436 79.8094C55.6153 77.8155 55.3397 75.0448 55.4863 72.9761C55.528 72.3882 55.8387 71.6716 55.8938 71.0436C55.9657 70.2231 55.9353 69.411 56.0069 68.5942C56.0433 68.0348 56.3662 67.3989 56.3958 66.8529C56.4865 65.1803 56.4221 63.4145 56.4237 61.7488C56.4255 59.9447 55.7336 58.9526 54.3838 57.8449C53.3144 56.9674 54.349 56.5828 54.335 56.1823L54.2159 56.1085C53.6096 56.1128 53.0993 56.824 52.6796 56.9444C50.0671 57.6938 47.4988 58.51 44.774 58.7473C44.4636 58.7744 44.0084 59.1187 43.6637 59.1374C43.0134 59.2012 42.3152 59.2281 41.6633 59.2457C39.8892 59.2938 38.9582 60.5778 37.1424 60.031C35.9809 59.6812 34.8575 59.3945 33.7506 58.8684C32.6294 58.3356 31.5704 57.4704 30.2936 57.6256C29.0923 57.7351 28.2384 57.6497 27.1248 57.1317C26.1071 56.6582 25.289 55.9954 24.3476 55.3946C23.4868 54.9085 22.515 54.5738 21.6894 53.9977C21.2493 53.6905 20.8081 53.2939 20.3601 53.0101C17.7534 51.3592 15.1054 49.5338 13.0335 47.2213C12.5494 46.6811 12.1348 46.0769 11.6921 45.5027C10.1534 43.6778 9.03708 41.6014 7.92243 39.501C7.59148 38.8774 7.68982 37.6088 7 37.2899V34.3842C7.68631 33.8848 8.46497 32.902 9.24335 32.4035C10.3712 31.6811 11.7961 31.124 13.0258 30.5829C13.6048 30.3282 14.2019 30.1639 14.772 29.87L18.405 28.0238C19.9028 27.2593 21.2187 26.5364 22.8637 26.1372C25.0577 25.605 27.3929 24.9852 29.6628 25.1892C30.3822 25.3309 30.8717 25.5467 31.6304 25.6116C32.6078 25.6951 33.6297 25.5406 34.558 25.8693C35.0285 26.0359 35.803 26.1415 36.295 26.1218C37.6281 26.0685 38.8162 26.4109 40.1163 26.623C42.4147 27.0315 44.7953 27.6409 46.8035 28.8756C47.6477 29.3947 48.4397 30.1059 49.2602 30.6711C51.4777 32.1824 53.2264 34.0182 54.5387 36.3693C54.8621 36.8533 55.2519 37.2977 55.5605 37.7924C56.0495 38.5764 56.2594 39.5451 56.7893 40.3099L56.8633 40.2789C56.8348 39.7482 56.51 39.0447 56.4705 38.534C56.3731 37.2735 56.401 35.7441 56.4979 34.4771C56.5111 34.3037 56.7943 33.751 56.8285 33.5139C56.9137 32.9233 56.8871 32.1895 56.999 31.6272C57.0752 31.2441 57.3594 30.6131 57.4806 30.1984C57.6791 29.5191 57.8682 28.8691 58.098 28.1978C58.3822 27.3671 58.7971 26.6557 59.1356 25.8758C59.9074 24.0978 60.8319 22.4938 61.9414 20.9083C62.2849 20.4174 63.2981 19.6189 63.7796 19.0944C64.9703 17.7969 66.2185 16.5121 67.6094 15.4288C68.4018 14.8115 69.547 14.3583 70.4096 13.8207C71.3195 13.254 72.2341 12.6485 73.1851 12.1508C74.0822 11.6812 75.032 11.2458 75.946 10.7996C76.8704 10.3482 77.9024 9.7863 78.8582 9.42493C79.7765 9.07784 80.8164 8.79214 81.7583 8.48405C82.9016 8.11033 84.1841 7.79034 85.3571 7.52631C85.7841 7.43024 86.6982 7.43155 87.2469 7.35311C87.331 7.22688 87.3419 7.16887 87.3872 7.02759C87.7302 6.71879 89.2329 6.92149 89.4682 6.77801C90.5638 6.1106 91.5032 6.43301 92.7167 6.29019C92.8607 6.27322 92.9212 6.11593 92.998 6Z" fill="#E1B3EC"/>
</svg>
