<svg width="108" height="143" viewBox="0 0 108 143" fill="none" xmlns="http://www.w3.org/2000/svg">
<path d="M53.0101 1.98376H69.3753C69.3225 2.21236 69.2564 2.36878 69.3333 2.5826C70.1916 2.68144 71.2989 2.63495 72.1789 3.01053C73.5485 3.69836 75.2534 5.50264 76.2325 6.67288C76.7855 7.3337 78.3709 9.54732 78.575 10.1761C79.4053 12.7296 80.5851 14.9223 81.6925 17.3473C82.0011 18.0232 82.0823 19.3314 82.3479 20.0649C82.6224 21.3513 83.0976 22.5407 83.4076 23.7338C83.5257 24.2013 83.6083 24.6768 83.6541 25.1565C83.7681 26.3797 83.581 25.8895 84.2945 26.4522C84.4105 26.5437 84.4467 28.3179 84.541 28.5817C84.9103 30.2695 85.6334 31.8282 85.6136 33.5398C85.8641 33.6785 86.2356 33.8532 86.2356 34.1429C86.2403 37.3512 88.0333 41.026 88.0735 44.1475C88.2504 44.2654 88.4477 44.3901 88.6163 44.5161C88.7263 45.0336 88.7727 45.8824 88.9011 46.318C89.3831 47.9504 89.3005 49.3757 89.4397 51.0409C89.9573 51.5247 89.9914 52.1732 90.0693 52.849C90.8244 53.6262 90.623 54.4561 90.8892 55.4046C91.3959 57.2051 91.77 58.8642 92.0151 60.7112C92.1619 61.8211 92.4309 62.2365 92.4364 63.483C92.719 63.6279 92.9382 63.72 93.0345 64.0499C93.1963 64.6034 93.1635 66.0365 93.1123 66.6284C93.638 66.9621 93.8702 67.1534 94.275 67.6293C94.3126 68.2318 94.2375 70.4386 94.4341 71.0591C94.4478 71.102 94.6663 71.1728 94.7393 71.1973C94.9578 71.466 95.9669 74.9411 96.1397 75.5671C96.3807 76.4401 96.0768 78.3549 96.7186 79.328C96.776 79.4151 96.8013 81.1394 96.8054 81.4251C97.3775 81.8082 97.4915 82.2369 97.6192 82.8929C97.8124 83.8843 98.2289 84.8662 98.2378 85.876C98.9424 86.9382 99.4108 87.869 99.4224 89.1898C99.4408 91.3216 100.629 93.3569 101.065 95.437C101.187 96.0215 101.107 96.5965 101.231 97.1735C101.251 97.2497 101.696 97.2769 101.761 97.4933C101.951 98.1125 101.863 98.678 102.009 99.3115C102.353 100.809 102.879 102.446 103.207 103.963C103.225 104.047 103.623 104.111 103.682 104.36C103.838 105.025 103.751 106.137 103.839 106.758C103.998 107.872 104.571 110.959 105.46 111.577V120.964C105.246 120.988 105.124 120.959 105.008 121.087C105 121.83 105.003 122.554 104.723 123.265C103.899 125.359 102.629 127.134 101.277 128.915C100.838 129.492 100.416 130.145 99.9208 130.652C99.2018 131.389 98.1688 131.506 97.2771 131.906C96.352 132.323 95.463 133.176 94.4846 133.472C92.4207 134.089 90.3376 134.489 88.2859 135.171C87.7014 135.365 86.622 135.45 85.9468 135.599C83.9545 136.042 81.954 136.644 79.9774 137.117C78.5033 137.469 76.7971 137.611 75.2944 137.855C74.6867 137.986 74.0743 138.12 73.47 138.268C72.8146 138.427 71.9802 138.371 71.3555 138.52C69.7504 138.904 68.2307 138.935 66.5989 139.038C66.094 139.07 65.8559 139.396 65.3927 139.53C64.7742 139.608 64.0452 139.658 63.409 139.725C62.73 139.796 61.9299 140.057 61.2938 140.109C60.0187 140.215 58.6393 140.149 57.3548 140.171C56.8784 140.179 56.8741 140.048 56.8573 140.66C56.8561 140.705 56.8555 140.75 56.8556 140.796H37.5458C36.9787 139.85 35.2401 139.73 34.2666 139.242C33.5 138.858 31.9578 138.364 31.4821 137.615C30.6607 136.322 29.6394 134.88 29.0869 133.44C28.8604 132.85 28.7771 131.73 28.539 131.087C27.3559 129.57 27.0739 127.841 26.62 125.951C26.5596 125.909 26.2856 125.713 26.2721 125.661C25.8424 123.993 25.6544 122.293 25.05 120.659C24.6662 119.62 23.5348 117.858 23.7565 116.803C23.8921 116.578 24.0102 116.559 24.2564 116.455C24.2702 116.04 24.28 115.798 24.2329 115.39C24.0793 115.286 23.7541 115.069 23.7124 114.895C23.5385 114.17 23.4495 113.36 23.2962 112.628C23.1504 111.93 22.7701 111.378 22.6137 110.711C22.4458 109.995 22.4616 109.266 22.2845 108.543C22.1377 108.434 21.8587 108.232 21.8096 108.055C21.6071 107.32 21.5422 106.413 21.3648 105.68C21.1695 104.873 20.9299 104.128 20.7411 103.315L20.0457 100.274C19.9721 99.964 19.9075 99.6293 19.822 99.3251C19.725 99.1346 19.5113 99.0652 19.4385 98.8488C18.9878 97.509 18.5322 96.1052 18.1718 94.7429C17.9982 94.087 18.1401 92.0987 17.8931 91.7558C17.7294 91.6918 17.6673 91.6795 17.5356 91.5584C17.2688 90.6493 17.2127 89.6484 16.9852 88.7298C16.619 87.2512 15.5433 83.7523 15.5855 82.3417C15.1406 82.3451 14.7273 82.307 14.2851 82.2716C14.2501 81.2332 14.3097 80.12 14.1448 79.0994C14.0536 78.5353 13.7545 78.1474 13.6888 77.52C13.6075 76.7436 13.7913 75.0827 13.5741 74.4131C13.0135 73.9837 12.718 72.7174 12.619 72.0281C12.1767 71.5974 11.9745 71.0394 11.7157 70.4787C11.9708 69.9224 12.3428 69.3072 12.2288 68.7046C12.0571 67.7975 11.6277 66.9032 11.4148 65.9939C11.259 65.3282 11.2445 64.5531 11.111 63.8988C11.0668 63.6822 10.5406 63.0895 10.4587 62.718C10.1364 61.2558 9.70522 59.8039 9.34254 58.3503C9.2568 58.0068 9.30947 57.4929 9.23984 57.1348C9.16605 56.7553 8.77074 56.8859 8.65245 56.3923C8.4446 55.5086 8.64518 54.3182 8.45199 53.4575C8.16734 52.1893 7.47389 50.8404 7.14005 49.5615C6.9111 48.6844 6.8918 47.8502 6.75212 46.9677C6.73138 46.8366 6.49577 46.7652 6.38303 46.7109C6.06011 46.2225 6.09599 44.6594 5.93678 44.0358C5.63058 42.8365 5.53429 41.6485 5.38936 40.4269C5.33847 39.9979 5.04419 39.5259 4.96444 39.1012C4.90449 38.9053 4.9092 37.8412 4.83473 37.7483C4.16314 36.9107 4.07882 36.1627 3.83958 35.1617C3.61462 34.2206 3.30135 33.2926 3.1064 32.351C2.87765 31.2461 3.13242 29.9546 2.99298 28.8606C2.81097 28.7775 2.72676 28.8312 2.5 28.8673V18.1919C3.22727 17.9919 2.87111 17.5205 3.03179 16.9783C3.73514 14.6051 5.20705 12.6759 7.28127 11.3222C8.0107 10.8462 8.89214 10.5289 9.61318 10.0919C11.7223 8.81373 14.1342 8.39353 16.5484 8.11871C16.5658 8.11674 17.1183 7.67501 17.2539 7.63394C18.7617 7.17755 20.3064 6.86141 21.8151 6.4062C22.5645 6.18645 24.052 6.48071 24.746 6.18968C24.9073 5.76543 25.1057 5.74063 25.4866 5.54765C26.9896 4.78606 28.6106 5.2025 30.209 5.0365C30.6982 4.98569 31.1561 4.58932 31.6485 4.51634C32.6542 4.36852 33.7349 4.45753 34.7487 4.34139C35.2452 4.28451 35.8982 3.94611 36.421 3.90997C37.9059 3.80732 39.4922 3.94971 40.97 3.82467L41.2207 3.22014C42.5954 3.12926 43.9767 3.24708 45.3488 3.12005C45.9255 3.06664 46.6569 2.64763 47.2183 2.64025C48.5774 2.62239 49.9484 2.6354 51.3074 2.63126C51.6992 2.63007 52.601 2.66649 52.9378 2.58811C53.0696 2.4058 53.0234 2.22223 53.0101 1.98376ZM62.4905 119.871C62.2793 120.087 61.9978 120.316 61.9277 120.59C62.0097 120.891 62.113 120.912 62.4049 121.082C62.5019 121.586 62.6168 122.143 62.6952 122.647C63.7758 123.816 64.8042 124.283 66.2189 124.92C66.9729 125.261 67.7243 125.412 68.4791 125.712C68.6409 125.726 69.2989 125.786 69.4292 125.75C70.6608 125.405 71.6423 125.271 72.8951 125.207C74.1876 125.14 75.7566 123.197 76.7821 122.427C76.7739 122.059 76.7937 119.262 76.595 119.087C75.9355 118.509 76.1813 117.917 75.8399 117.377C74.8813 115.86 72.0144 114.659 70.2424 114.904C69.2981 115.148 68.367 115.276 67.403 115.412C66.8666 115.488 66.1632 115.797 65.672 115.87C63.3787 116.211 62.9133 117.961 62.4905 119.871ZM40.9878 17.2332C42.0067 16.7569 45.3088 16.96 46.7004 16.9025C46.7158 16.7136 46.711 16.4151 46.8183 16.279C47.3807 16.2028 49.5281 16.209 50.1639 16.2328C50.7303 15.7226 51.2964 15.2207 51.6602 14.5402C51.4175 13.7693 51.1748 12.8633 50.4208 12.519C49.6463 12.1654 48.562 11.8592 47.7139 12.0144C46.636 12.1018 46.1077 12.4534 45.2068 12.5728C43.0075 12.8667 39.607 12.0019 37.9184 13.7542C37.5896 14.0955 36.8436 15.4346 36.9493 15.8228C37.3506 17.296 39.9234 17.5863 40.9878 17.2332Z" fill="#FE613E"/>
</svg>
