<svg width="848" height="807" viewBox="0 0 848 807" fill="none" xmlns="http://www.w3.org/2000/svg">
<g clip-path="url(#clip0_93_23)">
<path d="M425.366 0H430.613C431.9 0.6786 435.022 1.73003 436.393 2.02864C442.935 3.45458 445.863 7.37289 450.877 10.7391C456.595 13.892 462.218 16.4785 467.675 20.1483C478.619 27.5054 489.033 35.7092 499.455 43.7039C507.661 50 522.862 64.7956 532.323 66.6216C532.754 67.759 533.441 69.8777 534.327 70.6404C539.449 75.0435 546.057 77.5565 551.519 81.2594C556.968 84.9528 562.28 89.6739 567.597 93.6C575.617 99.5252 582.702 104.448 590.151 111.128C588.375 104.381 589.36 103.836 589.497 97.0847C589.157 94.5871 588.279 92.4609 588.06 89.8962C586.909 76.5834 586.805 64.218 586.88 50.7967C586.942 39.3714 585.269 14.9945 599.832 11.2886C606.61 9.56343 618.084 9.94171 625.396 9.94519L654.426 9.93306C659.436 9.89177 664.541 9.0165 669.527 9.23512C676.098 9.52339 682.574 11.2434 689.132 11.7381C693.869 12.0951 698.635 11.8311 703.376 12.0472C717.305 12.6823 744.058 14.3674 755.594 21.6318C758.119 23.2236 758.902 25.0128 759.494 27.8879C761.37 37.0141 754.364 64.3012 752.832 75.3164C751.105 87.7361 750.376 100.459 748.174 112.782C746.77 120.646 743.921 128.127 742.72 136.052C741.971 141.011 742.153 145.938 741.896 150.919C741.549 157.767 740.021 169.853 737.872 176.188C739.582 177.968 740.224 178.829 739.963 181.452C738.932 191.712 737.42 208.652 731.143 216.758C740.514 225.51 749.78 232.426 758.728 242.17C771.585 256.162 782.524 272.253 796.975 284.553C799.099 286.363 801.31 292.775 803.546 294.904C806.055 298.19 810.842 301.143 813.078 303.722C818.436 309.909 823.819 317.006 828.891 323.467C832.224 327.717 833.541 331.41 836.178 335.794C837.909 338.672 842.41 340.004 844.638 343.489C846.82 346.899 846.629 354.206 848 356.575V367.537C846.7 369.849 844.22 374.563 842.837 376.416C838.431 382.325 829.293 387.837 822.179 389.726C817.281 391.027 806.892 392.538 801.853 391.267C799.277 390.619 795.244 388.723 792.652 388.362C790.093 388.006 787.597 389.34 784.793 389.036C780.777 388.602 777.821 386.138 773.99 387.089C773.572 387.193 772.343 387.194 771.879 387.198C772.409 389.962 775.344 401.49 775.104 403.554C773.85 414.278 771.858 429.288 776.723 439.258C776.694 439.453 776.69 439.651 776.645 439.846C776.616 439.974 776.541 440.09 776.504 440.219C774.202 448.69 779.373 493.682 780.375 505.151C780.938 511.586 781.742 518.629 781.663 525.034C781.626 527.833 780.504 530.612 780.541 533.411C780.628 540.143 782.586 547.116 782.98 553.911C783.15 556.847 782.239 559.646 782.313 562.565C782.408 566.179 782.934 569.786 782.959 573.405C783.009 580.804 783.133 588.298 783.038 595.698C782.996 598.89 782.682 602.103 782.702 605.283C782.719 607.544 783.539 609.722 783.551 611.983C783.58 618.256 782.74 624.632 782.603 630.922C782.524 634.35 783.688 637.778 783.555 641.136C783.468 643.31 782.686 645.728 782.185 647.852C784.127 653.475 782.86 658.821 783.108 664.742C783.294 669.205 783.82 673.59 783.841 678.029C782.636 684.314 781.473 690.592 780.45 696.91C780.326 697.689 780.288 698.355 780.901 698.802C784.069 701.117 782.499 703.709 781.257 706.897C783.982 717.87 785.038 725 783.344 736.449C782.926 739.256 784.831 740.014 783.038 743.628C781.427 746.879 783.613 755.002 783.025 759.164C782.247 764.654 780.425 769.213 780.851 774.472C780.967 775.341 782.056 777.03 782.007 778.161C781.667 786.082 781.303 792.91 776.5 799.568C764.5 803.932 759.084 804.644 746.861 803.522C734.998 802.433 720.266 805.174 708.279 805.762C697.989 806.275 687.083 806.039 676.727 806.035C675.522 805.07 674.872 804.843 674.338 803.555C674.864 802.52 675.054 802.536 675.998 801.965C678.847 800.247 680.86 791.531 680.847 788.587C680.802 779.672 681.617 771.163 682.098 762.307C683.642 743.736 682.557 725.161 682.913 706.554C682.975 703.316 684.375 699.423 684.603 696.128C685.021 692.119 684.975 688.364 686.048 684.455L683.493 682.782C680.445 665.094 683.36 648.416 683.907 630.694C683.919 622.048 684.172 613.274 684.694 604.67C685.124 597.569 682.425 585.553 683.054 578.916C684.814 560.349 683.489 542.205 677.493 524.417C676.292 520.857 673.953 516.749 672.495 513.197C669.804 503.118 665.962 500.398 659.949 492.899C653.246 484.54 651.192 481.223 642.054 474.822C637.143 471.439 631.975 468.445 626.593 465.874C621.338 463.323 616.473 461.837 612.742 457.187C607.889 457.104 600.324 457.423 596.08 456.851C583.493 455.154 576.876 452.003 564.446 457.435C560.81 459.021 549.184 458.942 544.807 461.091C530.7 467.132 517.276 476.093 504.361 484.444C503.947 487.04 495.169 494.199 495.186 494.158C493.384 498.99 482.958 509.027 481.331 512.497C477.749 520.12 470.139 535.502 469.961 543.274C468.777 544.628 466.421 547.253 466.065 548.917C462.694 564.614 462.189 580.887 461.825 596.882C461.791 598.286 460.438 603.59 459.99 605.217C457.982 612.492 460.276 619.502 459.879 626.872C457.634 668.663 460.495 710.856 458.359 752.659C458.119 757.35 459.485 761.892 458.45 766.426C457.046 771.279 459.92 773.2 459.99 776.393C460.251 787.862 459.34 792.537 463.208 803.63C454.761 807.555 447.949 804.019 443.428 807H265.435C261.166 804.039 255.085 806.569 251.167 806.238C245.894 805.791 239.414 804.238 234.086 803.783C230.299 803.53 226.361 804.209 222.59 804.035C215.901 803.725 209.315 802.979 202.601 803.153C201.64 803.178 200.664 801.452 200.168 800.681L199.602 800.574C195.674 805.609 194.054 802.383 188.55 802.644C170.224 803.526 151.759 801.468 133.497 800.143C128.521 799.783 122.731 800.657 117.763 801.29C116.909 800.358 115.933 799.104 115.111 798.11C100.139 798.872 82.4477 798.284 74.9648 782.666C70.9099 774.202 69.502 759.309 69.0404 749.769C68.218 732.788 69.8573 715.452 68.3075 698.417C67.898 693.656 70.1356 685.437 69.8581 680.389C69.7948 671.578 70.0507 662.655 69.9757 653.831C70.2705 645.592 71.3173 638.039 70.2117 629.717C69.9927 627.046 70.6536 623.688 70.4502 621.1C69.618 610.496 71.126 600.054 71.1123 589.433C71.1078 586.145 72.1496 581.346 71.9107 578.204C71.2606 569.645 71.2043 561.968 72.5889 553.46C73.2535 543.667 72.5682 540.529 75.5478 530.786C72.191 520.24 75.578 519.403 75.8811 510.07C76.2289 499.346 75.0082 487.521 75.2691 476.701C75.4016 471.194 77.7804 465.153 77.8003 459.555C77.8115 454.611 76.2877 442.91 77.9166 438.774C80.5211 432.157 77.691 428.199 78.2508 422.671C79.3116 412.19 80.9206 402.052 81.0474 391.376C75.4144 391.122 71.5902 390.221 66.4806 387.988C62.771 388.945 59.0768 389.962 55.3995 391.038C47.2205 388.394 46.729 388.444 38.4023 388.591C33.6869 388.659 28.9942 387.924 24.5253 386.418C15.8028 383.507 8.43893 377.826 3.81824 369.694C2.33039 367.075 1.57787 363.537 0.312398 361.093L0 360.504V345.36C2.5283 340.241 4.49341 333.811 9.48555 330.607C11.5181 329.303 14.9587 327.539 16.3129 325.769C19.0492 322.193 20.4043 317.707 23.3844 314.203C25.7792 311.387 28.7895 311.66 31.309 309.137C33.2586 307.185 34.8349 302.543 36.7553 300.796C39.733 298.087 42.7524 295.65 45.6549 292.792C53.8256 284.75 61.4071 276.647 69.9778 269.032C77.2417 262.578 85.0774 256.538 92.2332 250.146C96.5366 246.301 101.808 238.482 106.286 234.379C107.811 232.982 111.32 232.047 111.766 231.598C113.838 229.512 121.559 223.632 122.866 221.884C122.893 221.438 123.011 219.279 123.463 219.237C129.91 218.636 131.956 211.331 136.889 207.72C139.679 205.677 143.373 203.879 146.163 201.774C149.287 199.68 152.928 194.852 155.894 192.951C164.362 187.522 170.106 181.149 177.254 174.368C182.142 169.731 190.649 166.002 195.922 161.657C203.1 155.743 209.998 149.474 217.38 143.773C220.219 141.616 223.94 138.536 226.447 136.053C229.988 132.547 232.924 127.636 237.023 124.541C248.325 117.143 258.026 114.609 265.334 102.162C266.698 99.8374 273.422 98.7567 275.811 96.664C277.807 95.3477 281.302 89.3228 283.21 88.575C291.014 85.5147 295.382 82.9442 301.295 76.783C303.094 75.3156 307.59 74.1649 309.175 72.794C319.802 63.6044 331.157 55.4706 342.659 47.4188C345.029 45.7597 348.415 44.2227 350.117 41.964C350.995 40.7979 350.556 40.9696 351.925 40.0469C357.673 39.312 355.332 35.6554 358.21 34.4588C367.744 30.4942 375.771 25.123 383.256 17.8012C388.95 12.2304 391.023 9.51473 398.077 5.05926C400.897 4.97433 423.408 1.1609 425.366 0ZM243.554 545.808C262.555 543.696 255.758 529.68 256.996 515.08C257.471 509.474 257.616 493.396 252.251 488.958C244.785 485.301 223.089 485.542 214.392 486.266C203.338 487.612 200.052 493.446 200.138 504.058C200.226 514.952 198.102 533.365 203.991 542.512C215.428 547.514 231.074 546.408 243.554 545.808ZM331.356 546.661C333.859 546.18 339.182 545.464 340.531 542.698C345.596 532.322 344.208 510.368 343.309 498.617C343.115 496.088 340.309 490.887 338.46 490.017C330.552 486.299 321.895 488.121 313.669 488.001C308.949 487.935 304.164 486.925 299.997 487.471C293.725 489.144 290.501 490.572 289.656 497.429C289.499 498.704 286.395 502.659 286.344 504.418C286.047 514.596 285.482 534.823 289.397 543.795C296.754 546.305 302.816 547.352 310.581 547.021C317.227 546.735 324.791 547.456 331.356 546.661ZM328.499 635.087C331.739 634.379 334.934 634.168 336.836 631.133C341.703 623.361 343.069 593.905 340.815 585.164C340.063 582.245 338.695 579.802 336.036 578.245C327.341 573.152 308.471 577.169 298.11 575.637C297.851 575.599 297.27 575.483 296.975 575.525C293.478 576.978 288.684 579.235 287.275 583.259C285.219 589.131 285.214 595.52 284.626 601.702C284.04 607.854 283.722 614.33 284.291 620.52C284.894 625.353 286.576 632.594 291.844 634.16C297.145 635.741 302.752 634.677 308.164 635.021C314.851 635.447 321.927 636.975 328.499 635.087ZM236.199 634.615C244.106 633.315 248.853 633.435 254.193 627.133C253.047 619.659 253.695 611.196 254.03 602.873C254.381 594.161 259.404 578.452 245.95 575.421C237.791 574.618 226.78 573.773 218.377 574.055C214.959 574.299 204.67 574.485 202.855 577.185C196.191 587.089 198.209 606.604 198.153 618.392C198.136 621.858 200.238 627.406 202.726 629.29C209.055 634.081 218.392 633.729 225.942 634.325C229.251 634.586 233.04 634.963 236.199 634.615Z" fill="#0F52A1"/>
</g>
<defs>
<clipPath id="clip0_93_23">
<rect width="848" height="807" fill="white"/>
</clipPath>
</defs>
</svg>
