<svg width="150" height="156" viewBox="0 0 150 156" fill="none" xmlns="http://www.w3.org/2000/svg">
<path d="M83.2827 1.03388L91.3017 -2.91818e-05L91.6082 0.303691C92.2647 0.294753 93.9465 0.254388 94.5102 0.355444C95.9287 0.609381 100.116 3.03204 101.09 3.97281C104.6 7.30804 106.583 11.9243 106.582 16.7528C106.597 20.1758 104.919 24.2596 102.434 26.6344C101.177 27.8366 99.6428 29.084 98.3141 30.252C98.7153 35.2856 99.9879 39.903 99.426 44.9312C99.1762 47.1687 99.0896 48.2449 97.9901 50.3062C97.1017 52.4842 96.2691 54.8739 94.9865 56.883C94.8595 57.2181 94.3022 57.4993 94.6543 57.8045C95.2902 58.3545 96.2708 57.9693 97.0537 58.0563C99.3204 58.3086 101.525 58.1873 103.803 58.3335C109.739 58.7141 115.594 58.6106 121.328 60.4345C123.522 61.4445 125.378 62.2606 127.718 62.9595C130.177 63.6938 132.735 65.1206 134.813 66.5093C137.756 68.4755 138.865 68.1297 139.475 72.0241C139.755 73.8115 140.874 76.6087 140.275 78.6203C139.316 81.0102 138.496 83.5812 137.08 85.7398C136.487 86.6446 135.005 86.94 134.782 87.1998C133.135 89.1174 131.354 89.4939 128.904 89.8362C127.634 90.0142 125.73 89.6234 124.416 89.5522C122.187 89.5342 120.438 89.7766 118.295 88.9228C117.998 88.8045 116.13 88.2444 115.854 88.2792C115.791 88.99 116.954 90.6956 117.256 91.4531C117.655 92.4565 118.122 93.6812 118.425 94.7465C118.828 96.1608 118.624 98.4959 119.443 99.7345C119.546 99.8903 119.853 100.024 120.033 100.005C121.271 99.8775 122.241 98.5977 123.182 97.9578C123.482 97.7545 124.76 97.5455 125.149 97.3591C125.818 97.0393 126.327 96.5417 127.02 96.2861C127.972 95.9341 128.401 96.2956 129.218 96.3123C129.438 96.3167 130.099 95.8492 130.69 95.8642C133.797 95.9423 137.266 96.7074 139.943 98.3125C140.479 98.6337 141.422 99.7112 141.992 100.131C142.63 100.601 143.732 101.119 144.218 101.632C145.414 102.897 146.086 105.116 146.993 106.606C146.865 107.098 146.665 107.781 146.609 108.267C147.17 108.317 147.871 108.511 148.389 108.723L149.363 116.277C148.059 118.879 148.054 120.941 147.546 123.687C147.221 125.44 146.274 125.559 146.452 127.786C143.611 128.674 144.642 129.994 143.03 131.248C141.076 132.769 137.565 135.182 135.271 135.84C129.311 137.549 123.116 136.897 117.075 136.104C115.569 135.911 113.793 135.348 112.354 135.232C108.918 134.954 105.567 134.473 102.147 134.867L101.121 133.882C99.2638 133.976 97.1234 133.624 95.1867 133.871C94.5018 133.958 93.4021 133.705 92.6761 133.838C90.6881 134.059 90.4695 135.08 88.397 134.478C86.4057 135.083 84.8263 135.958 82.9743 136.714C81.4727 137.327 78.657 137.228 77.0019 137.605C74.9555 137.969 73.3794 137.462 71.3561 137.297C69.2952 137.13 67.8142 136.189 65.7521 136.976C63.7477 139.631 59.3515 140.757 56.6759 142.735C55.2736 143.638 54.2296 144.859 53.0027 145.948C52.3273 146.546 50.9638 146.896 50.2497 147.43C48.245 148.931 46.9758 150.73 44.5074 151.599C44.2258 151.698 43.5207 152.818 43.1624 152.958C42.2712 153.525 39.3686 153.836 38.8806 154.717L29.8508 155.881C29.2354 155.459 28.2997 155.522 27.5693 155.385C26.5634 155.197 25.5936 154.925 24.6282 154.618C22.1764 153.839 20.3705 152.38 18.7275 150.471C18.1815 149.915 17.5599 149.418 17.0247 148.854C14.7746 146.482 12.7365 143.43 11.9673 140.23C11.8753 139.847 11.6094 139.372 11.4794 138.955C11.0001 137.419 10.482 135.773 10.5846 134.15C10.6344 133.679 11.363 132.398 11.516 131.553C11.7094 130.483 12.0805 128.502 12.3646 127.571C12.5403 126.994 14.2867 123.878 14.6054 123.563C16.8982 121.297 20.0525 119.218 22.8624 117.656C23.66 117.212 27.23 116.821 28.2241 116.959C28.595 117.01 29.075 117.171 29.4385 117.302C30.0168 115.455 29.6873 114.693 29.0265 112.94C28.8363 112.435 28.7009 112.093 28.4218 111.62C28.5241 110.357 28.9077 109.413 29.1111 108.219C29.2943 107.145 29.2679 105.839 29.479 104.724C29.5346 104.43 29.5439 104.285 29.3886 104.093L29.1944 104.086C28.4787 104.396 27.6127 105.603 27.0242 106.201C24.3725 108.894 17.5631 111.162 13.8473 111.326C9.50079 111.417 4.60804 108.796 2.30385 105.134C1.65827 104.107 1.53138 102.562 0.629272 101.762L-0.000220394 96.8796C0.550625 96.7621 0.842128 96.5213 1.26456 96.1847C1.52716 95.2955 1.71725 92.7711 1.94522 92.3355C2.82615 90.6526 4.68072 88.6452 6.06112 87.2778C7.31269 86.038 8.19381 84.5693 9.35163 83.2598C11.2317 81.5349 13.6671 80.0883 15.5749 78.339C16.0841 77.8721 16.9412 77.4282 17.4966 76.9871C20.6585 74.4753 24.0997 72.3606 27.5019 70.1931C29.9057 68.7177 32.9436 68.1769 35.4204 66.8713C34.7242 66.2288 33.3998 65.3105 32.8381 64.6488C31.8289 63.46 30.7344 62.2385 29.7087 61.0739C28.4908 59.6912 28.3539 58.462 26.4933 57.5697C26.0225 55.1356 25.4824 54.6494 24.6223 52.4131C24.0493 50.9233 23.6053 48.7966 23.117 47.2197C22.8168 46.2504 23.3592 44.781 23.0086 43.7166C22.333 41.6657 18.4564 40.8282 16.7504 39.842C13.8028 38.1382 11.7273 35.6596 10.6543 32.4891C9.2333 28.2903 9.37981 22.4706 11.3667 18.4943C12.4452 16.3357 15.6086 12.7616 17.8036 11.627C18.8104 11.1065 20.3439 10.6306 21.4982 10.2401C24.0097 9.47189 27.5433 9.47234 30.1475 10.0668C31.6846 10.4177 34.5209 11.509 36.1014 12.0213C36.7691 12.2378 37.2859 13.025 37.4816 13.6921C38.0538 13.5553 38.6737 13.4042 39.2165 13.1823C40.3358 12.7247 41.4212 11.9438 42.5585 11.5438C44.6017 10.8252 46.7218 10.2931 48.7868 9.63374C49.837 9.29837 50.8376 8.70538 51.9176 8.45433C53.3187 8.21964 54.8001 8.0237 56.2093 7.8896C57.0895 7.80584 56.8013 8.61545 57.8692 7.71524C57.9978 7.60679 59.1899 7.4582 59.4895 7.42961C61.7578 7.21312 64.1031 7.53054 66.3817 7.51641C67.6328 7.50989 69.18 7.13375 70.3472 7.21462C71.167 7.27143 72.8186 8.30862 73.73 8.53419C74.3642 8.69112 74.6102 8.71079 75.2556 8.77087C75.6812 7.39716 75.4526 7.22256 76.6201 6.14451C77.9634 4.90418 79.0385 3.52501 80.6128 2.51274C81.3205 2.0576 82.7386 1.53496 83.2827 1.03388Z" fill="#E1B3EC"/>
</svg>
