<svg width="421" height="247" viewBox="0 0 421 247" fill="none" xmlns="http://www.w3.org/2000/svg">
<path d="M97.141 0H104.651C104.673 0.806451 104.53 0.947831 104.953 1.46869C107.252 1.64503 110.207 1.55417 112.552 1.54529L127.721 1.49404C130.345 1.48763 133.013 1.45349 135.638 1.50992C137.279 1.5452 138.215 2.54439 139.744 2.77425C142.624 3.20705 145.604 2.91633 148.512 3.0704C149.838 3.14068 151.344 4.15792 152.536 4.28243C158.333 4.88799 162.974 3.83508 167.365 8.955C167.512 9.12681 167.657 9.29986 167.8 9.47407C173.523 7.35854 174.169 7.13657 179.852 10.2292C186.3 13.7378 197.969 15.9962 203.081 21.2999C204.368 21.4498 205.7 21.5852 206.977 21.7876L206.997 24.634C215.654 24.1838 225.749 30.6087 232.163 35.8542C234.087 37.4281 236.806 38.4751 238.772 40.2209C238.883 40.32 238.992 40.4227 239.098 40.5292C239.417 47.5438 238.963 47.7392 236.471 53.9576L230.87 67.6983C229.468 71.1284 228.816 71.414 228.22 75.1778C226.176 77.3792 224.536 78.9264 222.332 80.9554C222.341 84.5299 222.119 86.7784 221 90.1581C220.723 90.9973 220.756 93.583 220.745 94.5743L217.592 94.4606C217.676 96.3884 217.863 99.0351 217.288 100.856C215.514 106.466 210.886 110.604 211.433 116.922C211.46 117.226 211.312 119.278 211.203 119.472C210.095 121.422 208.44 128.828 207.351 130.065C207.287 130.138 207.219 130.209 207.151 130.279C206.781 133.614 204.178 139.759 203.118 143.372C201.851 147.692 199.881 152.369 198.79 156.8C198.705 157.144 198.232 157.677 197.976 157.945C197.744 160.167 197.892 162.681 196.476 164.111C196.203 165.64 196.268 167.363 195.962 168.807C195.383 171.542 194.528 174.205 194.169 177.013C193.967 177.244 193.764 177.475 193.561 177.706C193.041 178.408 193.198 179.88 193.049 180.698C192.742 182.392 193.292 184.577 192.013 185.854C191.975 185.893 191.563 188.492 191.461 188.728C189.919 194.176 189.663 196.876 190.153 202.579L190.243 203.585C191.21 204.825 191.512 205.735 192.076 207.192C193.542 204.02 193.986 201.606 194.767 198.271C194.985 197.343 196.656 196.162 196.939 195.175C198.723 190.442 198.079 187.032 201.299 182.937C202.364 181.583 203.597 175.021 204.545 173.23C204.963 171.967 204.834 169.34 205.296 167.715C206.019 165.171 207.671 163.031 208.578 160.798C209.737 157.939 211.106 153.942 211.947 150.987C212.942 147.483 213.725 143.657 214.661 140.109C215.432 137.183 216.178 134.205 216.967 131.282C217.354 129.845 217.045 126.579 217.59 124.841C218.869 120.829 221.36 117.537 222.507 113.42C222.953 111.823 223.27 109.609 223.806 108.151C225.295 104.111 226.109 99.7031 227.367 95.6763C229.848 87.7362 232.607 79.8357 235.328 71.9773C235.807 70.6338 235.704 68.4562 236.383 66.8501C237.723 63.6767 239.304 60.6673 240.757 57.5339C241.96 55.0498 241.935 51.2564 243.317 48.9672C244.455 47.0802 247.86 45.2692 249.331 43.8125C253.11 40.0742 256.245 37.0169 261.098 34.6493C262.599 33.9167 264.652 31.7987 266.194 30.9615C269.125 29.1442 272.225 27.4579 275.258 25.8195C277.517 24.5981 280.738 23.8986 282.913 22.7008C291.491 17.9742 300.396 14.5037 310.033 12.6487C312.062 12.2582 314.391 12.2978 316.455 11.9705C318.517 11.6768 321.286 10.8972 323.27 10.8267C329.502 10.6049 335.608 10.763 341.89 10.7365C344.794 10.7242 349.71 10.4343 352.407 11.1972C352.563 11.2413 353.173 11.592 353.346 11.6673C355.739 12.6159 359.079 11.9314 361.528 12.4202C366.786 13.4702 372.104 15.0288 377.132 16.7986C382.804 18.7948 387.478 21.5186 392.361 24.916C393.462 25.6831 396.367 25.8625 397.621 26.6807C399.307 27.5154 400.789 29.0352 402.468 29.4758C402.729 29.5444 402.98 29.619 403.241 29.6856C402.92 38.6045 397.452 48.0807 394.013 56.2077C392.992 58.6243 392.434 61.2443 391.54 63.7126C390.605 66.2893 389.347 68.7334 388.555 71.3629C386.167 79.3922 383.982 87.4814 382.006 95.6223C381.326 98.4455 380.941 101.253 380.29 104.074C379.346 108.162 376.372 111.953 375.377 115.937C373.422 123.77 371.541 131.565 369.203 139.3C368.476 141.711 368.287 144.969 367.555 147.476C367.341 149.228 367.109 150.96 366.86 152.707C366.669 154.043 366.138 155.599 366.019 156.883C365.707 160.229 365.072 163.319 364.358 166.589C363.82 169.053 363.485 171.613 362.849 174.076C362.588 175.262 362.498 176.825 362.257 177.979C362.113 178.671 361.727 178.78 361.437 180.171C360.773 183.27 361.351 187.186 360.89 190.184C359.953 196.278 358.921 203.118 354.828 207.996C353.027 210.145 347.549 206.362 345.627 205.6C343.578 204.791 341.507 203.956 339.464 203.123C334.775 200.813 330.224 199.097 325.262 197.53C321.052 196.201 317.185 195.519 312.954 194.541C307.856 193.362 303.854 193.11 298.616 193.08C297.461 193.073 295.463 191.966 294.225 191.875C289.279 191.478 284.263 191.669 279.309 191.761C276.604 191.812 273.599 193.082 271.041 193.138C266.899 193.227 263.347 193.732 259.297 194.533C257.005 194.987 254.271 194.745 251.961 195.608C246.118 197.459 240.632 200.375 234.96 202.625C230.158 204.53 225.747 206.763 221.173 209.14C220.408 209.537 217.765 210.326 217.635 211.051C218.733 211.923 223.035 210.367 224.631 210.153C230.894 209.299 237.146 208.207 243.372 207.108C244.379 206.929 248.489 206.816 248.922 206.627C254.362 204.247 257.219 206.868 262.175 206.833C266.25 206.072 268.153 203.882 272.552 203.745C275.872 203.641 277.714 205.153 280.298 205.25C286.43 205.48 290.12 205.106 296.166 206.5C303.225 208.127 310.722 209.169 317.828 210.743C321.843 211.545 325.58 212.893 329.496 213.992C332.761 214.908 335.525 215.492 338.755 216.672C344.264 218.622 351.348 223.65 356.678 225.276C362.428 227.028 363.906 213.31 364.354 210.188C365.035 205.451 366.13 200.453 366.881 195.699C367.16 193.923 367.105 191.706 367.39 189.891C368.722 186.063 368.554 182.982 368.833 179.047C368.912 177.972 369.656 176.311 369.775 175.18C371.432 165.628 373.956 156.143 377.327 147.055C378.3 144.436 377.282 138.54 378.176 136.56C380.039 132.437 380.771 131.616 381.042 126.735C381.278 122.44 383.131 117.142 384.822 113.196C385.807 111.086 386.354 108.408 387.277 106.338C389.733 100.822 390.899 93.4831 392.819 88.031C394.412 83.5113 399.099 68.5236 402.139 66.3949C409.992 69.3349 414.473 67.9293 421 74.2572V87.858C418.981 90.7787 419.076 93.4581 415.592 96.39C415.454 100.997 414.718 102.084 412.664 106.083C411.941 107.493 412.981 108.295 411.225 110.162C410.51 112.656 411.209 117.931 410.222 118.9L410.08 119.042C409.949 119.174 409.83 119.282 409.69 119.405C409.071 121.063 409.659 124.105 408.6 125.089C407.402 126.202 406.027 134.98 405.772 135.261C403.644 137.617 401.798 147.108 400.657 148.38L400.542 148.511C400.456 148.603 400.367 148.694 400.281 148.786C400.166 150.933 400.445 153.31 398.717 154.785C398.643 156.022 398.651 159.949 397.827 160.465C396.803 161.108 397.165 162.426 397.066 163.77C396.971 165.094 397.163 166.633 396.877 168.071C395.907 168.76 395.874 167.948 395.152 168.725C394.788 172.134 394.55 175.026 393.719 178.394C393.24 180.331 393.353 182.743 392.8 184.831C388.712 200.281 384.148 215.679 380.386 231.192C379.632 234.299 376.795 237.644 376.52 241.168C376.281 244.546 374.994 245.416 371.954 245.603C370.817 245.673 370.289 245.802 370.052 247H350.291C350.25 246.531 350.149 246.133 349.999 245.689C348.924 245.272 346.731 245.654 345.481 245.582C344.387 245.523 343.372 245.356 342.305 245.116C339.635 244.514 337.078 244.199 334.385 243.784C332.917 243.56 331.476 243.166 330.012 242.913C328.384 242.633 326.74 242.492 325.109 242.237C323.323 241.957 321.58 241.421 319.783 241.197C317.674 240.936 315.538 240.934 313.429 240.652C312.037 240.467 310.839 239.705 309.441 239.549C305.737 239.138 301.981 239.648 298.273 239.167C295.103 238.758 291.904 236.993 288.749 236.853C287.404 236.791 286.037 237.619 284.675 237.751C281.046 238.1 273.802 238.08 270.051 237.792C268.326 237.66 266.642 237.099 264.955 236.742C263.368 236.405 261.721 236.364 260.12 236.084C258.228 235.756 256.356 235.088 254.436 234.938C251.743 234.728 249.206 236.343 246.606 236.072C245.331 235.94 244.24 235.03 242.924 234.907C239.427 234.578 235.742 235.182 232.288 234.619C230.752 234.368 229.27 233.89 227.745 233.61C226.16 233.32 224.538 233.279 222.957 232.963C220.815 232.538 218.62 231.781 216.426 231.767C211.076 231.734 208.691 238.552 203.295 239.255C200.944 239.561 198.226 237.262 195.938 236.666C194.199 236.214 192.102 236.282 190.315 236.282C189.151 236.282 182.964 236.257 182.344 236.625C182.055 236.797 181.671 237.348 181.41 237.611C180.71 237.451 180.733 236.804 180.093 236.623C177.845 235.986 175.47 236.933 173.641 234.995C171.839 233.088 170.965 229.755 171.054 227.197C168.455 226.981 166.129 225.859 163.537 225.678C158.416 225.323 153.206 225.51 148.075 225.512L122.739 225.497C121.14 225.497 119.542 225.539 117.966 225.834C116.234 226.161 114.178 226.993 112.412 226.878C111.427 226.815 110.465 225.995 109.447 225.826C107.062 225.434 104.575 225.707 102.177 225.304C98.0418 224.606 93.3896 222.974 89.3159 222.621C83.7011 222.129 77.8681 222.436 72.2295 222.438L41.1735 222.431C37.1654 222.425 33.0025 222.187 29.0264 222.74C25.6592 223.206 22.401 224.299 19.0744 224.988C14.9 225.851 10.565 225.676 6.33597 225.397L4.36876 223.831C3.34621 217.146 4.20537 215.182 6.49894 209.093C7.16697 207.32 7.73423 205.423 8.63305 203.755C9.99526 201.228 12.2896 200.183 14.9538 199.415C18.0687 198.517 21.3135 197.929 24.4793 197.221L39.1859 193.915C44.8406 192.696 50.4382 191.106 56.17 190.232C58.5073 189.876 60.9297 190.139 63.2709 189.819C65.3707 189.533 67.4153 188.683 69.5345 188.557C73.2462 188.336 77.717 188.099 81.3874 188.646C82.5738 188.823 83.4032 189.76 84.7098 189.854C89.9546 190.231 95.6772 189.548 100.72 190.075C101.891 190.197 102.92 191.014 104.081 191.242C106.149 191.647 108.373 191.391 110.46 191.703C111.446 191.85 112.242 192.557 113.213 192.717C115.098 193.026 117.046 193.007 118.94 193.309C120.596 193.572 122.2 194.121 123.864 194.351C125.825 194.623 127.827 194.659 129.774 195.044C132.017 195.487 134.154 196.538 136.384 197.111C139.851 198.002 143.231 199.093 146.678 200.021C152.514 201.594 158.239 202.885 163.822 205.31C166.455 206.453 168.802 207.944 171.307 209.282C171.713 209.498 171.89 209.636 172.344 209.494L172.385 209.136C172.167 208.785 171.918 208.497 171.617 208.216C169.829 206.543 167.671 205.324 165.757 203.808C163.7 202.178 161.779 200.285 159.637 198.777C157.51 197.28 155.161 196.02 152.915 194.708C145.02 190.096 136.541 185.532 127.779 182.782C123.985 181.591 119.942 180.846 116.074 179.902C113.362 179.24 110.653 178.243 107.92 177.738C105.717 177.331 103.426 177.539 101.218 177.184C100.241 177.027 99.9067 176.216 98.9282 176.083C95.839 175.664 92.6683 176.075 89.561 175.748C88.2589 175.611 87.3419 174.633 86.017 174.5C82.2225 174.121 78.224 174.33 74.4134 174.329C70.086 174.329 65.6487 174.141 61.3357 174.499C59.6626 174.637 58.0795 175.421 56.4169 175.654C54.4659 175.928 52.4667 175.916 50.5079 176.157C48.6 176.392 46.7257 176.898 44.8421 177.275C42.1715 177.809 39.4784 178.232 36.8622 179.003C33.0674 180.121 29.7241 181.935 26.1702 183.632C20.7451 186.222 9.14294 191.719 3.60309 193.003C2.43668 193.274 1.19263 193.264 0 193.298V183.789C0.239343 183.59 0.404526 183.401 0.61813 183.177C0.973211 180.708 3.3628 174.491 4.20315 171.644C6.40235 165.195 8.51989 158.074 11.3865 151.902C13.1468 148.111 14.3816 144.986 15.909 141.185C18.2418 135.379 22.0887 129.368 24.7917 123.702C25.4954 122.227 27.1744 120.536 27.8645 118.976C30.8224 113.062 33.0187 106.18 35.9102 100.329L53.1626 65.9233C57.042 58.0643 60.9143 49.683 64.9925 41.9553C67.7341 36.7603 71.7579 30.9962 74.6866 25.7137C78.2394 19.3054 81.986 9.77259 85.812 3.94304C89.0672 2.18383 92.9627 1.65806 96.5876 1.31611C97.0674 0.88103 96.9739 0.722426 97.141 0Z" fill="#FE613E"/>
</svg>
