<svg width="422" height="300" viewBox="0 0 422 300" fill="none" xmlns="http://www.w3.org/2000/svg">
<path d="M17.3371 80.8445C21.4332 76.895 21.5429 73.2543 28.8848 73.8018C34.0096 74.1839 38.9583 74.5718 44.2248 75.2327C50.6187 76.0351 59.0912 75.9141 65.1135 77.9317C67.7632 78.8193 71.6839 83.5077 73.9231 85.3263C77.8711 89.6191 80.6583 95.4797 83.3253 100.633C85.1978 104.251 88.3645 109.075 89.8582 112.582C92.9517 120.372 96.1817 128.231 103.696 132.884C104.859 133.84 109.409 136.198 110.709 134.669C113.787 131.053 115.007 125.844 118.221 122.188C121.309 118.677 124.219 114.58 127.436 111.196C130.463 108.012 134.506 105.303 137.856 102.427C140.046 100.718 142.679 99.8727 145.246 97.652C147.251 96.2407 153.659 89.6284 155.926 89.9171C162.859 90.8629 168.459 95.9959 174.223 99.3677C179.944 102.714 187.231 104.388 193.45 106.816C195.656 107.677 197.283 107.572 199.765 108.944C201.563 109.939 207.429 109.001 209.241 110.805C211.707 112.439 217.317 111.228 219.776 113.172C220.959 114.106 225.617 114.112 227.075 114.479C228.539 114.929 229.242 115.775 230.863 116.016C234.261 116.522 237.981 116.931 241.385 117.169C248.234 117.649 254.965 119.157 261.795 118C263.018 117.792 264.878 118.091 266.154 117.909C267.655 117.912 270.038 117.242 271.404 117.327C273.94 117.485 275.319 116.587 277.356 116.261C283.15 115.296 288.999 114.344 294.767 113.256C300.047 112.26 305.89 110.32 311.34 110.547C316.681 110.769 321.13 116.749 324.533 120.096C330.269 118.221 335.772 115.848 341.551 114.055C343.23 113.535 344.982 112.878 346.721 112.604C348.704 112.291 376.603 114.947 379.525 115.617C382.473 116.294 387.647 118.418 390.406 119.795C391.447 120.315 392.436 120.863 393.324 121.619C395.825 123.747 401.5 130.639 403.038 133.498C404.383 135.995 405.286 138.802 406.301 141.442C407.185 143.741 408.201 146.041 408.964 148.38C409.282 149.359 409.584 150.427 409.647 151.457C409.719 152.624 408.969 155.1 409.525 155.96L410.469 156.276L408.703 174.64L407.8 174.699C406.98 176.62 406.889 178.886 405.853 181.105C401.637 190.128 397.126 197.31 390.74 204.967C385.583 211.15 381.587 218.432 374.589 223.156C372.798 224.439 370.838 226.53 368.827 227.537C366.235 228.837 360.928 231.738 358.141 232.191C354.459 232.791 352.634 233.844 349.273 235.252C347.236 236.327 342.352 235.091 340.649 235.983C338.648 237.029 337.043 242.749 335.703 244.611C334.701 246.003 334.038 247.043 332.794 248.249C331.671 249.337 330.208 250.46 329.279 251.604C327.879 253.327 327.173 255.696 325.612 257.329C315.264 269.205 300.741 274.224 285.983 278.413C277.383 280.853 268.92 279.126 260.454 282.1C259.797 282.342 255.09 281.855 253.992 281.767C250.794 281.515 247.579 281.814 244.488 282.645C243.301 282.957 241.679 283.455 240.8 284.34L238.7 284.139C238.654 284.049 238.254 283.37 238.198 283.345C236.394 282.549 234.635 281.909 232.857 281.028C230.513 281.397 229.363 281.664 227.456 283.058L222.526 282.584C222.502 282.324 222.438 281.499 222.161 281.436C220.011 280.947 217.381 280.924 215.237 280.557C213.712 280.296 212.032 279.053 210.627 278.885C207.044 278.459 203.432 278.143 199.856 277.799L179.173 275.83C175.737 275.506 172.258 275.239 168.841 274.764C167.162 274.529 166.77 273.862 165.288 273.491L145.93 268.472C131.475 264.725 118.668 253.991 108.578 243.419C107.157 241.746 104.158 239.553 103.303 237.524C100.313 230.435 98.5949 222.832 96.6597 215.427C95.6931 211.73 91.7857 211.684 88.7453 210.931C86.2433 210.311 83.7502 209.516 81.2664 208.816C73.0157 206.49 66.5721 200.014 60.2467 194.592C58.7061 193.27 57.0063 191.735 55.6374 190.253C54.1359 188.681 52.9294 186.241 51.8097 184.498C46.6942 176.53 45.0099 168.128 45.9489 158.812C46.0314 157.992 45.221 155.682 45.3181 154.748C45.7317 150.772 45.6486 147.346 45.0044 143.413C44.7418 140.586 45.9897 136.052 45.9717 133.002C46.4224 130.495 45.5775 127.964 45.583 125.568C45.592 121.488 44.9305 118.234 43.85 114.283C43.0901 111.505 42.8912 108.756 41.7142 106.021C38.2643 98.0037 28.1803 98.171 21.5992 94.1461C20.0355 93.1895 17.8739 90.5785 16.5476 89.0583L17.3371 80.8445ZM346.106 181.595C347.806 184.29 348.587 188.693 348.849 191.867C348.901 192.503 348.61 196.122 348.682 196.273C349.972 199.02 349.668 200.676 348.971 203.852C351.376 202.374 353.261 201.71 356.01 201.063C355.718 201.131 357.955 199.375 358.097 199.283C363.373 194.973 362.798 194.489 366.671 189.744C372.083 183.113 376.277 177.7 378.473 169.152C378.885 167.546 380.041 164.772 380.073 163.087C380.165 158.035 379.018 150.407 375.696 146.443C373.085 143.325 370.057 143.074 366.439 142.581L365.054 141.389C360.639 142.396 360.056 142.255 355.539 141.577C354.929 141.064 354.177 140.392 353.467 140.046C353.04 140.281 351.107 141.406 350.788 141.717C348.939 143.508 339.289 145.333 338.542 147.235C338.973 148.336 339.635 148.532 339.573 149.927C339.44 152.982 341.777 155.247 342.916 157.815C344.901 162.29 346.084 167.425 345.618 172.316C347.067 174.146 346.213 179.043 346.106 181.595Z" fill="#FDC31C"/>
<path d="M235.727 20.247L255.38 22.1363L255.485 22.9406C256.167 23.7145 257.414 23.4974 257.875 23.7265C259.97 24.7671 263.747 28.5864 265.188 30.377C265.723 31.0413 267.335 34.1125 267.825 34.9759C267.469 41.972 266.971 52.0569 261.433 57.0915C260.137 58.269 256.622 58.4562 257.439 60.9752C258.103 61.0707 258.747 60.9574 259.28 61.0516C260.777 61.3163 262.223 62.3034 263.746 62.6074C267.599 63.3765 273.146 64.7124 276.842 66.0884C284.275 68.8554 293.055 73.5707 299.692 77.923C302.199 79.566 307.406 84.5748 309.473 86.8539C311.502 89.0901 313.886 94.7139 313.528 97.9112C313.385 99.1693 311.957 100.548 310.934 101.266C305.679 104.959 297.128 106.343 290.764 107.14C288.978 107.44 287.236 107.965 285.434 108.184C281.478 108.664 277.5 108.746 273.541 109.03C270.539 109.245 267.54 110.318 264.43 110.151C261.019 109.967 257.677 109.55 254.279 109.244C248.599 108.665 242.832 108.251 237.189 107.47L236.184 106.319C231.361 105.445 225.1 105.23 219.941 104.471L218.938 103.33C214.453 102.443 207.668 102.23 202.697 101.472L201.686 100.358C199.599 99.9389 196.7 99.6831 194.58 99.5245C194.482 99.2162 194.183 98.1324 193.843 98.0303C184.385 95.1822 173.233 91.5541 165.627 85.1156C164.477 84.142 160.604 79.9086 160.576 78.3999C160.541 76.5643 162.905 73.3522 164.296 72.1838C170.153 67.4358 177.484 63.2518 184.506 60.4365C186.4 59.6769 192.978 59.2579 195.26 59.1224C196.236 59.0643 196.926 60.03 197.514 60.7326C204.321 57.5815 212.251 55.5051 219.838 56.0613C221.754 56.2017 223.551 56.3895 225.484 56.3901C221.742 52.1237 220.544 49.6562 219.488 44.0647C218.341 37.9993 218.93 33.5596 222.431 28.2938C223.837 26.1802 227.796 22.8803 230.322 21.9909C231.52 21.5692 233.397 21.3179 234.697 21.1341C235.407 21.0337 235.373 20.8359 235.727 20.247Z" fill="#FDC31C"/>
</svg>
