<svg width="77" height="98" viewBox="0 0 77 98" fill="none" xmlns="http://www.w3.org/2000/svg">
<path d="M35.5973 3.5H45.7155C45.7238 3.70207 45.6918 3.79748 45.7919 3.93948C46.2545 4.01673 47.0312 3.88428 47.3778 3.98458C48.7091 4.36488 50.2483 4.59586 51.5562 5.00218C53.1261 5.48988 54.7349 6.05269 56.2271 6.73305C59.2551 8.11369 62.0572 9.89436 64.6472 11.9877C65.2273 12.4568 65.7811 13.2318 66.3524 13.7344C69.8691 16.7568 72.1409 21.0272 73.8234 25.2927C74.1916 26.2261 74.2812 27.6547 74.6175 28.6339C74.7809 29.1592 74.6995 29.3483 74.9997 29.9103C75.2091 30.303 74.8455 32.6987 75.1794 32.9338L75.5 32.9397V40.8244C75.34 40.8131 75.2213 40.7738 75.1108 40.8475C74.9898 41.6527 75.112 42.4762 75.0445 43.2474C74.9857 43.9219 74.7135 44.8204 74.5401 45.4931C74.2946 46.4435 74.0892 47.6466 73.7687 48.5638C73.3719 49.7009 72.8437 50.993 72.3282 52.0863C72.1927 52.3741 71.7325 52.8539 71.5603 53.2066C71.195 53.9542 70.8622 54.7804 70.4777 55.5091C70.149 56.0479 69.8214 56.6255 69.4759 57.151C69.2612 57.4776 68.9895 58.1534 68.7725 58.4175C67.9191 59.4561 67.3926 60.6418 66.6852 61.7532C64.0666 65.8466 61.2178 69.7868 58.1523 73.554C57.7857 73.9998 57.2265 74.4007 56.8443 74.8635C56.4682 75.3193 56.1115 76.1473 55.7358 76.5475C55.0227 77.3148 54.1654 77.9716 53.4483 78.7341C52.2545 80.0027 50.9727 81.186 49.7693 82.4405C49.0189 83.2224 48.3597 83.9528 47.5421 84.6756C46.99 85.1635 46.4836 86.2101 45.9586 86.7681C45.444 87.3869 44.7059 87.9315 44.1583 88.5568C43.6584 89.1271 43.2147 89.9475 42.7562 90.4874C42.3113 91.011 41.5542 91.6876 41.0529 92.1954C40.4068 92.8499 39.6669 93.6066 38.973 94.1722C38.4467 94.6011 36.3866 94.5175 35.7498 94.427C34.1095 94.1932 33.0751 92.6956 32.1941 91.4515C31.8859 91.0168 31.4199 90.5581 31.0843 90.0731C30.7865 89.6419 30.3901 88.9892 30.0577 88.6123C29.7167 88.226 29.1531 87.8439 28.7988 87.4343C28.309 86.8674 27.9076 86.0885 27.4275 85.5457C26.8416 84.8825 26.0462 84.245 25.4266 83.6028C24.7674 82.9191 24.1087 82.1863 23.4603 81.4927C22.9023 80.8961 21.7735 80.379 21.4069 79.9203C20.7918 79.1501 20.4725 78.0744 19.7815 77.1757C18.9984 76.1578 18.0765 75.8218 17.3664 74.8933C16.7859 74.1337 16.2483 73.0959 15.723 72.272C14.4248 70.2741 13.1959 68.2313 12.0385 66.1476C11.4177 65.0058 10.8895 63.6542 10.2713 62.4931C9.74524 61.5049 9.11176 60.6017 8.55368 59.6405C8.2002 59.0319 7.89902 58.2886 7.563 57.6487C7.03386 56.6412 5.91852 55.9826 5.51932 54.9906C5.08697 53.9165 5.39021 52.452 5.1333 51.3324C5.02708 50.8695 4.72609 50.1739 4.55563 49.7072C4.33974 49.1161 4.13825 48.2209 3.85668 47.6878C3.38041 46.786 2.6944 45.9266 2.29415 44.9826C2.1069 44.541 1.91577 44.0314 1.87624 43.5509C1.85681 43.3146 1.91796 43.2917 1.79381 43.1383C1.66492 43.1311 1.63267 43.1275 1.5 43.1486V42.1243C1.59455 42.1381 1.71998 42.1459 1.81779 42.1547C1.85838 42.1309 1.89896 42.1071 1.93955 42.0834C1.99991 39.4643 1.87468 36.8237 1.97751 34.2029C1.99448 33.7706 2.30017 33.1845 2.35395 32.7246C2.50385 31.8676 2.28417 30.7034 2.51211 29.8834C2.98001 28.2001 3.76142 26.2595 4.49098 24.6821C5.11844 23.3256 5.88721 22.0358 6.6121 20.7463C7.14081 19.8058 7.66131 18.8395 8.35082 18.0236C8.6424 17.6191 9.16086 17.1595 9.41614 16.7485C10.2959 15.3324 11.4167 14.2965 12.6048 13.1458C13.3696 12.4051 14.1086 11.5158 14.938 10.8295C15.64 10.2486 16.5108 9.81291 17.2783 9.32119C18.4304 8.62695 19.6274 7.9782 20.8223 7.36202C21.1725 7.18143 21.5806 6.96956 21.9438 6.82536C24.3268 5.87933 26.8613 5.24717 29.3384 4.60053C30.1893 4.37839 31.136 4.47161 31.9999 4.35168C32.5266 4.27404 33.0244 4.00609 33.56 3.96203C34.1541 3.92341 34.922 4.04284 35.4906 3.9279C35.6249 3.76626 35.5842 3.7439 35.5973 3.5ZM33.9907 24.3839C31.5773 24.2294 29.2577 26.4742 27.7609 28.1881C26.6361 29.476 25.2393 32.8763 24.8106 34.5463C24.6778 35.084 24.5956 35.633 24.565 36.1862C24.5149 37.0563 24.5159 38.4908 24.6226 39.3469C24.8216 40.366 25.9057 42.7851 26.6327 43.4761C27.5599 44.3574 28.6586 45.7099 29.669 46.3501C31.0743 47.2407 33.1074 47.8829 34.6998 48.3846C35.4716 48.6278 36.5861 48.18 37.3554 48.8964C37.6709 48.8906 37.9893 48.8924 38.299 48.8318C38.7556 48.7425 39.3721 48.4975 39.8239 48.4964C41.231 48.3833 42.4786 48.1437 43.8057 47.6551C44.5106 47.3956 45.2595 46.8495 45.9087 46.5867C47.6851 45.8676 48.6351 44.7685 49.8855 43.3736C50.3622 42.8418 51.0625 42.3125 51.5255 41.7392C52.255 40.8241 53.2398 38.434 53.3251 37.2437C53.3394 37.0435 52.8576 36.5489 52.7025 36.3733C52.2805 36.8488 52.1717 36.828 51.5458 36.9455C51.5126 35.3337 51.5658 33.7648 51.097 32.2045C51.0318 32.0294 50.9389 31.4077 50.8511 31.283C50.0156 30.0972 49.4188 28.3186 48.3063 27.3472C47.54 26.6782 46.1568 25.7023 45.2809 25.1721C44.292 24.5735 42.5544 24.1287 41.4059 23.9287C40.4772 23.8291 39.2786 23.8616 38.3575 23.8901C38.1642 23.8961 37.971 23.9039 37.7778 23.9135C36.6138 24.0789 35.5142 24.3609 34.3779 24.6582C34.3673 24.6609 34.1524 24.5123 34.1334 24.4977C34.0854 24.4603 34.0378 24.4224 33.9907 24.3839Z" fill="#FE613E"/>
</svg>
