<svg width="180" height="186" viewBox="0 0 180 186" fill="none" xmlns="http://www.w3.org/2000/svg">
<g clip-path="url(#clip0_14_473)">
<path d="M117.321 0H126.455C126.768 0.471094 126.932 0.740315 127.325 1.14981C130.654 1.17162 135.872 2.78301 139.215 3.58731C140.118 3.80452 141.517 4.45496 142.386 4.60712C144.39 4.95853 146.999 4.85798 148.933 5.56556C150.46 6.12437 152.18 7.24329 153.628 8.0602C154.563 8.5903 155.895 8.94476 156.802 9.48808C158.695 10.6212 160.631 11.8716 162.411 13.1689C163.118 13.6841 162.874 14.1771 164.002 14.2511L164.099 14.3675C163.993 14.5703 163.711 14.9448 163.672 15.0933C163.486 15.814 163.791 16.3088 163.385 17.0052C162.468 18.526 161.408 19.7177 160.663 21.3673C160.172 22.4574 159.792 23.7206 159.291 24.7586C157.973 27.4919 157.115 30.1546 156.323 33.0736C155.972 34.3637 155.101 35.8567 154.726 37.1738C153.588 40.5484 152.533 43.9776 151.502 47.3871C150.838 49.578 150.308 51.7989 149.729 54.0095C149.418 55.196 148.794 56.5492 148.464 57.7218C148.136 58.8917 147.769 60.084 147.429 61.2359C146.935 62.9011 145.619 64.0541 145.06 65.3127C144.52 66.5248 144.531 68.3287 143.871 69.8517C143.229 71.343 142.457 72.7726 141.831 74.2721C141.11 76 140.673 78.0716 139.936 79.7706C138.46 83.1743 137.372 86.5419 136.255 90.0749C135.681 91.8871 134.407 93.6301 133.855 95.4597C133.581 96.3079 133.659 98.1405 133.672 99.0826C135.728 100.8 135.288 101.137 136.521 103.14C137.035 103.212 137.589 103.279 138.097 103.363C138.997 104.449 139.429 105.412 140.063 106.654C140.032 105.383 140.048 103.78 139.791 102.545C139.385 100.592 138.079 98.04 138.286 96.0579C138.37 95.2364 138.94 93.456 139.2 92.6067C140.39 88.7277 141.89 84.8975 143.21 81.0569C143.678 79.6974 144.009 78.3064 144.458 76.9451C144.912 75.5686 145.61 74.1744 146.009 72.7887C147.383 68.013 148.623 63.2169 150.334 58.5472C150.812 57.079 151.607 55.749 152.19 54.3259C153.004 52.3341 153.692 50.3082 154.554 48.3334C155.156 46.9252 155.857 45.5546 156.406 44.1249C156.724 43.2935 156.926 42.3366 157.261 41.5257C158.497 38.532 159.516 35.5228 160.404 32.4099C160.771 31.126 161.359 29.8251 161.752 28.5423C162.186 27.2313 162.498 25.8283 162.925 24.5174C163.416 23.0101 164.019 21.4488 164.638 19.9884C165.55 19.2191 165.949 19.1602 167.123 18.8088C168.858 19.7853 170.3 19.8137 172.158 20.3208C172.838 20.5065 173.557 21.3241 174.239 21.5617C176.394 22.1199 177.656 20.812 178.607 23.4751C179.049 23.7593 179.576 24.0796 180 24.3762V28.1208C179.712 28.3928 177.637 32.779 177.535 33.2998C176.872 36.6581 175.505 39.4257 174.331 42.6073C173.152 45.8062 172.645 49.3997 171.072 52.4589C170.772 53.061 168.772 57.0069 168.73 57.3653C168.268 61.2765 167.352 62.216 164.93 65.3518C164.789 68.1953 164.229 69.4735 162.992 72.0102C162.518 72.9801 162.269 74.4848 161.797 75.5001C159.948 79.6241 158.707 83.9444 157.181 88.1924C156.817 89.2085 156.715 90.5111 156.37 91.5523C156.105 92.3839 155.381 93.3278 154.953 94.1023C154.906 94.1888 155.28 94.5565 155.344 94.6186C155.529 95.3258 155.295 98.9977 155.463 100.152C155.707 101.828 155.879 101.811 156.541 103.377C156.807 104.004 156.681 105.885 156.589 106.602C156.131 107.063 155.676 107.528 155.224 107.996C156.903 110.456 156.445 112.483 156.736 115.235C156.922 117.017 156.934 119.07 157.165 120.807C157.467 123.091 157.815 124.855 157.84 127.232C157.862 129.235 158.674 131.504 158.265 133.617C158.224 133.956 157.801 134.49 157.825 134.632C157.974 135.49 159.208 137.335 159.61 138.147C159.223 138.828 158.97 139.413 159.036 140.223C159.232 142.651 159.644 145.002 159.683 147.457C159.703 148.706 160.053 150.021 160.005 151.283C160.039 152.614 159.801 153.782 159.73 155.068C159.693 155.714 159.968 156.983 159.996 157.759C160.082 160.152 159.805 162.874 160.125 165.216C160.199 165.762 161.085 167.155 161.191 167.757C161.456 169.274 160.466 170.163 160.738 171.761C160.973 173.151 161.478 174.392 161.826 175.71C162.326 177.591 163.007 181.155 162.058 182.964C161.466 184.092 160.503 184.825 159.282 185.191C157.542 185.714 155.932 185.24 154.258 185.649C154.146 185.676 154.018 185.891 153.935 186H147.092C146.715 183.939 145.502 183.292 144.969 181.4C144.597 180.084 144.966 178.896 144.968 177.578C144.968 177.351 144.754 176.4 144.694 176.131C145.568 173.754 145.24 172.49 144.786 170.034C144.214 166.936 144.126 164.086 144.042 160.976C143.961 158.017 143.52 155.02 143.585 152.018C143.608 150.994 143.17 149.602 143.096 148.551C142.806 146.195 142.421 143.843 142.261 141.472C141.438 141.093 140.435 140.106 140 140.058C138.132 139.852 135.647 139.925 133.745 139.93C128.942 139.995 124.111 139.829 119.311 139.988C117.157 140.059 114.821 140.708 112.568 140.656C111.278 140.627 109.386 141.373 108.043 141.288C107.922 141.28 107.699 140.87 107.628 140.762C107.34 140.718 105.517 141.75 104.517 141.799C102.794 141.884 101.787 141.351 100.184 141.22C98.0725 141.026 96.0499 141.552 94.0062 141.766C91.3338 142.047 89.5059 142.105 86.9671 143.167C86.8101 143.575 86.4753 144.226 86.2749 144.642C85.4041 145.256 84.0346 145.415 83.8639 145.873C83.0249 148.12 82.324 151.234 81.7431 153.542C81.3131 155.744 80.201 158.049 79.7756 160.228C78.9741 164.335 77.7726 168.061 76.3994 172.001C75.3861 174.908 74.0355 182.654 71.9812 184.724C71.6411 184.809 70.0601 184.523 69.6058 184.467C68.4864 184.325 67.0782 184.39 65.9964 184.205C63.9887 183.799 63.1763 183.132 61.1432 182.391C59.5338 181.803 57.1439 179.925 57.3251 177.877C57.3488 177.609 58.3137 176.45 58.5414 175.767C58.9517 174.538 59.2838 173.308 59.65 172.064C60.1614 170.547 60.7296 168.926 61.2864 167.431C62.1145 165.21 62.1943 163.368 62.639 161.134C63.152 158.556 64.2952 155.536 64.7774 152.995C65.7908 147.657 66.4553 142.403 68.8853 137.439C70.2845 134.58 73.4539 131.486 76.5177 130.529C77.7966 130.129 79.1333 129.921 80.4424 129.622C81.1691 129.495 82.0274 129.059 82.7365 128.951C84.2522 128.717 85.7759 128.569 87.2826 128.241C88.1426 128.052 88.7255 129.004 89.7418 128.748C90.6512 128.519 91.1887 127.985 92.0562 127.692C93.1813 127.289 95.6664 127.739 96.6692 127.465C100.115 126.528 103.686 127.003 107.238 126.893C108.97 126.838 109.859 126.55 111.527 126.305C113.156 126.064 115.91 126.488 117.501 126.236C121.334 125.626 121.397 124.935 124.985 126.816C125.248 126.771 125.252 126.639 125.469 126.342C126.292 126.241 127.281 126.23 128.127 126.188C127.328 125.817 125.913 125.22 125.042 124.984C124.914 124.95 124.153 125.182 123.949 125.243C122.898 125.558 122.142 124.833 121.22 124.459C120.688 124.242 120.09 124.186 119.557 124.04C117.477 123.47 115.679 123.462 113.593 123.289C112.182 123.173 110.798 122.462 109.187 122.361C106.962 122.224 105.202 122.56 103.023 122.719C101.458 122.844 99.8538 122.665 98.2933 122.84C91.3321 123.618 84.3242 124.559 77.9018 127.551C76.3126 128.292 74.7721 129.739 73.4743 130.896C72.1847 132.046 70.8985 134.021 69.3096 134.665L69.1663 134.722C66.8311 134.301 65.0991 133.626 62.8515 132.996C59.3326 132.012 55.7419 131.118 52.1886 130.262C51.0238 129.98 49.6402 129.972 48.5001 129.76C46.4603 129.357 44.3773 129.177 42.3437 128.756C37.2287 127.696 32.2889 125.99 27.1492 125.006C25.968 124.78 24.3624 123.807 23.1292 123.505C21.5297 123.113 19.9133 122.993 18.3805 122.394C16.7544 121.744 15.4299 120.907 13.8859 120.103C12.3183 119.286 10.647 118.593 9.09163 117.753C7.73227 117.023 6.56265 115.941 6.26979 114.264C5.78121 111.467 5.28325 107.868 5.10991 105.039C5.0174 103.529 4.98197 101.106 5.67039 99.8816C6.24404 98.8611 7.61151 97.685 8.38744 96.7787C9.90374 94.6651 10.5925 93.9097 12.6975 92.3965C14.1781 91.3324 15.4672 90.0866 17.067 89.0275C19.0277 87.7294 20.8712 86.6906 22.9011 85.5286L29.067 82.0474C29.9087 81.5679 30.7482 80.9896 31.5828 80.5298C32.3613 80.1011 33.6995 79.7646 34.4715 79.3833C37.9098 77.6856 40.9611 76.2781 44.8167 75.736C46.4119 75.5117 48.6449 75.567 50.3015 75.5763C51.6245 75.6171 53.0304 75.5098 54.3442 75.6437C55.2927 75.7466 56.2977 76.0675 57.2451 76.1624C58.7668 76.3148 60.2202 76.9402 61.696 77.1555C63.5031 77.4194 65.4669 77.1601 67.2935 77.2993C68.0369 77.3559 68.7539 77.5711 69.4881 77.687C70.6915 77.8412 71.8581 78.173 73.0457 78.3758C74.071 78.551 75.2306 78.4558 76.2673 78.6177C76.7291 78.6898 77.1461 78.9754 77.6016 79.0701C79.952 79.2422 82.2941 79.0497 84.6498 79.1622C85.485 79.2021 86.5392 79.776 87.0072 79.6498L87.0519 79.4962C86.8055 79.2945 86.7248 79.2492 86.5519 78.9722C86.6751 78.1561 87.3162 77.1804 87.4134 76.3758C87.9805 71.8099 88.8297 67.2607 89.7733 62.7592C90.0667 61.3593 91.1272 60.2443 91.1757 58.497C91.2742 56.9671 91.7748 55.3805 91.9656 53.8929C92.5304 49.49 94.1868 45.3655 95.4178 41.1235C95.8792 39.5335 95.7438 37.7996 96.1749 36.1779C96.4835 35.0177 97.2091 34.2054 97.5497 33.0808C97.6702 32.5817 97.728 31.8772 97.7136 31.371C97.6425 28.876 98.321 26.9146 99.5962 24.7864C99.9294 24.2304 100.44 23.2195 100.61 22.5648C101.371 20.0154 101.613 17.1816 102.471 14.6624C103.266 12.327 104.722 9.49799 105.74 7.18229C105.952 6.698 106.248 6.1856 106.474 5.71221C106.243 5.33337 105.951 4.92165 105.702 4.54907C107.811 3.10374 114.408 0.67193 117.058 0.360553L117.321 0Z" fill="#0F52A1"/>
<path d="M7.15152 118.98C7.58118 119.458 9.61948 121.673 10.0851 121.846C12.8369 122.867 15.6971 123.887 18.4331 125.002C19.0226 125.243 21.1667 125.26 21.8288 125.192C21.8121 125.929 21.8067 127.268 21.6667 127.947C21.325 129.571 20.627 131.019 20.2554 132.65C19.489 136.013 18.9042 139.471 18.0885 142.815C17.3433 145.869 16.0152 147.474 17.0083 150.712C16.5597 151.393 15.885 152.45 15.6197 153.185C15.0863 154.663 13.9885 158.809 14.0376 160.25L13.8714 160.211C12.577 159.905 11.2756 159.256 10.1589 158.994C8.90476 158.702 6.62525 158.843 5.27454 158.744C3.55822 158.621 1.69857 158.302 0 158.367V148.851C0.250084 148.685 0.412515 148.643 0.448815 148.289C0.525749 147.405 0.525786 146.545 0.63639 145.662C0.717152 145.017 1.33949 144.104 1.38724 143.585C1.57281 141.564 1.91543 140.452 2.73759 138.765C3.16941 137.878 2.69649 134.763 3.1847 133.66C3.66077 131.51 4.37169 129.468 4.98686 127.367C5.41875 125.891 5.69318 124.175 6.07487 122.656C6.38657 121.416 6.86557 120.17 7.15152 118.98Z" fill="#0F52A1"/>
</g>
<defs>
<clipPath id="clip0_14_473">
<rect width="180" height="186" fill="white"/>
</clipPath>
</defs>
</svg>
