<svg width="76" height="78" viewBox="0 0 76 78" fill="none" xmlns="http://www.w3.org/2000/svg">
<path d="M28.5687 0.458804L34.4277 1.73525e-05C34.4389 0.00833569 34.4501 0.0166541 34.4612 0.0249769C35.1296 0.300275 36.4814 0.24239 37.1932 0.39848C37.9851 0.572123 38.6166 0.733604 39.3758 0.933969C39.7792 1.04046 40.6032 1.19477 40.9167 1.31204C42.1692 1.78038 43.7497 2.79923 44.8256 3.59707C45.1253 3.81939 45.7464 4.5699 46.0873 4.88495C46.3792 5.15477 47.1009 5.61346 47.2664 5.80592C48.4959 7.23578 49.7809 8.92321 50.2592 10.7689C50.3756 11.2181 50.3644 11.9104 50.4844 12.3917C50.651 13.0594 51.0409 13.6925 51.2183 14.3034C51.4308 15.0351 51.4237 15.9595 51.5811 16.7321C51.6994 17.3132 51.9705 17.8488 52.0783 18.3929C52.2919 19.4724 52.181 20.8322 52.4396 21.8808C52.6204 22.6136 53.4496 23.3614 53.8099 24.1012C54.2129 24.9285 54.077 25.2025 54.2901 25.9935C54.3893 26.3618 54.2981 26.4461 54.2792 26.806C54.2191 27.9551 53.8116 29.4102 53.3009 30.4519C52.6356 31.6874 52.2106 32.8104 51.7647 34.1274C51.2509 35.6448 51.1421 37.6217 50.3174 38.9744C49.4831 40.3427 48.4274 41.738 47.6345 43.1672C47.4061 43.5787 46.6513 44.0898 46.3957 44.5303C45.9432 45.2111 45.7181 46.0217 45.319 46.7562C45.1731 47.0248 44.5531 47.8701 44.5307 48.1055C44.4268 49.1994 44.9251 51.1921 45.2243 52.2828C45.3236 52.6445 45.7279 53.194 45.9744 53.3924C47.1934 54.3732 49.0413 55.1463 50.4324 55.8701C51.1318 56.234 52.3953 56.4407 53.1499 56.3828C53.5663 56.3508 54.1393 56.3343 54.5412 56.379C55.31 56.4646 56.3513 56.9194 57.1061 56.9497C58.4578 57.0041 60.0156 56.7924 61.3635 57.1051C63.2647 57.5462 65.3764 58.238 67.0405 59.2563C67.763 59.6983 68.5295 60.0561 69.2258 60.5382C71.6223 62.1955 73.1282 64.6979 74.1435 67.36C74.2477 67.6322 74.7163 68.9442 74.8405 69.0738L75.0569 71.8369C73.8914 71.921 72.6827 71.9909 71.5248 72.1412C70.734 72.2436 69.9525 72.4579 69.1518 72.5435C68.2344 72.6419 67.2596 72.3975 66.365 72.5218C65.3213 72.6662 64.4849 72.9114 63.4153 73.0054C62.5764 73.0783 61.946 72.9781 61.1891 73.0157C60.4341 73.0989 59.6192 73.372 58.8527 73.3512C57.8158 73.3221 56.8964 73.2192 55.8528 73.3347C54.6681 73.466 53.4424 73.4698 52.258 73.6331C51.3852 73.7533 50.5274 73.9989 49.6479 74.0774C48.8028 74.1556 48.0553 74.0116 47.205 74.0402C46.7585 74.0552 45.8569 74.3598 45.5359 74.3572C44.6085 74.346 43.7612 74.267 42.8273 74.3414C41.8584 74.4185 40.9984 74.651 40.0488 74.8001C38.6273 75.023 37.1056 74.8973 35.7113 75.2694C35.5601 75.3102 35.1528 75.2251 34.9825 75.2366C34.5944 75.2393 34.1051 75.2282 33.7218 75.2696C31.5097 75.5092 29.2762 75.6672 27.0564 75.8296C26.2908 75.834 25.5315 75.7235 24.7644 75.7654C23.8609 75.8151 22.9936 76.0548 22.1104 76.2102C20.5429 76.4861 18.9979 76.2682 17.433 76.3437C16.6199 76.3827 15.7617 76.6826 14.9497 76.7721C13.2588 76.9528 11.5155 77.0362 9.81946 77.1871C8.91311 77.2677 8.17586 77.1886 7.27533 77.1723C6.61271 77.1609 5.83939 77.2558 5.17114 77.3009C4.23335 77.3635 3.31896 77.6081 2.40055 77.7446C1.7031 77.848 0.873881 77.8906 0.160188 77.9387L-5.93989e-05 75.8922C0.490659 75.0959 0.323974 72.1046 0.683697 71.0773C1.42585 68.959 2.46883 67.5937 3.83255 65.9042C5.28295 64.1073 6.33917 63.4795 8.39922 62.45C9.24093 62.0291 10.0473 61.391 10.9985 61.1339C12.7918 60.6814 14.6218 60.3253 16.4059 59.8115C17.1421 59.6974 18.1285 59.0829 18.7932 58.9606C20.4946 58.6476 21.8005 58.3703 23.2456 57.3062C24.489 56.3905 25.5414 54.9552 26.5708 53.752C26.375 52.1484 26.6761 50.5152 26.3876 48.9829C26.2345 48.1697 23.5146 45.9208 22.8824 45.1174C22.5595 44.707 21.5408 44.0893 21.1667 43.5932C20.3048 42.4505 19.6104 41.2971 18.6258 40.2479C18.249 39.8517 17.9669 38.9045 17.73 38.382C17.197 37.2063 16.7404 35.9827 16.2506 34.7888C15.5685 33.4621 14.7247 32.2479 14.11 30.8908C12.8208 28.0446 14.5934 26.3233 14.869 23.5815C14.9353 22.9218 14.529 21.7528 14.474 21.0019C14.3559 19.3892 14.6309 17.7409 14.7678 16.1311C14.8304 15.3825 15.149 14.544 15.337 13.8186C15.6369 12.8234 15.7977 11.5314 16.3366 10.616C17.0485 9.40682 17.8586 7.95302 18.4932 6.71722C18.7134 6.28851 20.2094 5.17101 20.62 4.69649C21.1939 4.03337 22.3143 3.14609 23.1135 2.74383C24.2278 2.26542 25.2858 1.68646 26.3991 1.20631C26.8696 1.00336 28.2707 0.718293 28.5687 0.458804Z" fill="#E1B3EC"/>
</svg>
